<svg width="247" height="231" viewBox="0 0 247 231" fill="none" xmlns="http://www.w3.org/2000/svg">
<rect x="1" y="1" width="245" height="229" rx="8" fill="white"/>
<rect x="1" y="1" width="245" height="229" rx="8" stroke="black"/>
<rect x="21.5" y="122.5" width="203" height="37" rx="9.5" fill="black" stroke="black"/>
<path d="M94.6591 147V135.364H98.5909C99.5 135.364 100.246 135.519 100.83 135.83C101.413 136.136 101.845 136.559 102.125 137.097C102.405 137.634 102.545 138.246 102.545 138.932C102.545 139.617 102.405 140.225 102.125 140.756C101.845 141.286 101.415 141.703 100.835 142.006C100.256 142.305 99.5152 142.455 98.6136 142.455H95.4318V141.182H98.5682C99.1894 141.182 99.6894 141.091 100.068 140.909C100.451 140.727 100.727 140.47 100.898 140.136C101.072 139.799 101.159 139.398 101.159 138.932C101.159 138.466 101.072 138.059 100.898 137.71C100.723 137.362 100.445 137.093 100.062 136.903C99.6799 136.71 99.1742 136.614 98.5455 136.614H96.0682V147H94.6591ZM100.136 141.773L103 147H101.364L98.5455 141.773H100.136ZM108.277 147.182C107.436 147.182 106.711 146.996 106.101 146.625C105.495 146.25 105.027 145.727 104.697 145.057C104.372 144.383 104.209 143.598 104.209 142.705C104.209 141.811 104.372 141.023 104.697 140.341C105.027 139.655 105.485 139.121 106.072 138.739C106.663 138.352 107.353 138.159 108.141 138.159C108.595 138.159 109.044 138.235 109.487 138.386C109.93 138.538 110.334 138.784 110.697 139.125C111.061 139.462 111.351 139.909 111.567 140.466C111.783 141.023 111.891 141.708 111.891 142.523V143.091H105.163V141.932H110.527C110.527 141.439 110.429 141 110.232 140.614C110.038 140.227 109.762 139.922 109.402 139.699C109.046 139.475 108.625 139.364 108.141 139.364C107.607 139.364 107.144 139.496 106.754 139.761C106.368 140.023 106.071 140.364 105.862 140.784C105.654 141.205 105.55 141.655 105.55 142.136V142.909C105.55 143.568 105.663 144.127 105.891 144.585C106.122 145.04 106.442 145.386 106.851 145.625C107.26 145.86 107.735 145.977 108.277 145.977C108.629 145.977 108.947 145.928 109.232 145.83C109.519 145.727 109.768 145.576 109.976 145.375C110.184 145.17 110.345 144.917 110.459 144.614L111.754 144.977C111.618 145.417 111.389 145.803 111.067 146.136C110.745 146.466 110.347 146.723 109.874 146.909C109.4 147.091 108.868 147.182 108.277 147.182ZM113.93 147V138.273H115.226V139.636H115.339C115.521 139.17 115.815 138.809 116.22 138.551C116.625 138.29 117.112 138.159 117.68 138.159C118.256 138.159 118.735 138.29 119.118 138.551C119.504 138.809 119.805 139.17 120.021 139.636H120.112C120.336 139.186 120.671 138.828 121.118 138.562C121.565 138.294 122.101 138.159 122.726 138.159C123.506 138.159 124.144 138.403 124.641 138.892C125.137 139.377 125.385 140.133 125.385 141.159V147H124.044V141.159C124.044 140.515 123.868 140.055 123.516 139.778C123.163 139.502 122.749 139.364 122.271 139.364C121.658 139.364 121.182 139.549 120.845 139.92C120.508 140.288 120.339 140.754 120.339 141.318V147H118.976V141.023C118.976 140.527 118.815 140.127 118.493 139.824C118.171 139.517 117.756 139.364 117.249 139.364C116.9 139.364 116.574 139.456 116.271 139.642C115.972 139.828 115.73 140.085 115.544 140.415C115.362 140.741 115.271 141.117 115.271 141.545V147H113.93ZM131.382 147.182C130.594 147.182 129.903 146.994 129.308 146.619C128.717 146.244 128.255 145.72 127.922 145.045C127.592 144.371 127.428 143.583 127.428 142.682C127.428 141.773 127.592 140.979 127.922 140.301C128.255 139.623 128.717 139.097 129.308 138.722C129.903 138.347 130.594 138.159 131.382 138.159C132.17 138.159 132.859 138.347 133.45 138.722C134.045 139.097 134.507 139.623 134.837 140.301C135.17 140.979 135.337 141.773 135.337 142.682C135.337 143.583 135.17 144.371 134.837 145.045C134.507 145.72 134.045 146.244 133.45 146.619C132.859 146.994 132.17 147.182 131.382 147.182ZM131.382 145.977C131.981 145.977 132.473 145.824 132.859 145.517C133.246 145.21 133.532 144.807 133.717 144.307C133.903 143.807 133.996 143.265 133.996 142.682C133.996 142.098 133.903 141.555 133.717 141.051C133.532 140.547 133.246 140.14 132.859 139.83C132.473 139.519 131.981 139.364 131.382 139.364C130.784 139.364 130.291 139.519 129.905 139.83C129.518 140.14 129.232 140.547 129.047 141.051C128.861 141.555 128.768 142.098 128.768 142.682C128.768 143.265 128.861 143.807 129.047 144.307C129.232 144.807 129.518 145.21 129.905 145.517C130.291 145.824 130.784 145.977 131.382 145.977ZM144.207 138.273L140.98 147H139.616L136.389 138.273H137.844L140.253 145.227H140.344L142.753 138.273H144.207ZM149.324 147.182C148.483 147.182 147.758 146.996 147.148 146.625C146.542 146.25 146.074 145.727 145.744 145.057C145.419 144.383 145.256 143.598 145.256 142.705C145.256 141.811 145.419 141.023 145.744 140.341C146.074 139.655 146.532 139.121 147.119 138.739C147.71 138.352 148.4 138.159 149.188 138.159C149.642 138.159 150.091 138.235 150.534 138.386C150.977 138.538 151.381 138.784 151.744 139.125C152.108 139.462 152.398 139.909 152.614 140.466C152.83 141.023 152.938 141.708 152.938 142.523V143.091H146.21V141.932H151.574C151.574 141.439 151.475 141 151.278 140.614C151.085 140.227 150.809 139.922 150.449 139.699C150.093 139.475 149.672 139.364 149.188 139.364C148.653 139.364 148.191 139.496 147.801 139.761C147.415 140.023 147.117 140.364 146.909 140.784C146.701 141.205 146.597 141.655 146.597 142.136V142.909C146.597 143.568 146.71 144.127 146.938 144.585C147.169 145.04 147.489 145.386 147.898 145.625C148.307 145.86 148.782 145.977 149.324 145.977C149.676 145.977 149.994 145.928 150.278 145.83C150.566 145.727 150.814 145.576 151.023 145.375C151.231 145.17 151.392 144.917 151.506 144.614L152.801 144.977C152.665 145.417 152.436 145.803 152.114 146.136C151.792 146.466 151.394 146.723 150.92 146.909C150.447 147.091 149.915 147.182 149.324 147.182Z" fill="#D4D4D4"/>
<path d="M108.241 188H106.832C106.749 187.595 106.603 187.239 106.395 186.932C106.19 186.625 105.94 186.367 105.645 186.159C105.353 185.947 105.029 185.788 104.673 185.682C104.317 185.576 103.946 185.523 103.56 185.523C102.855 185.523 102.217 185.701 101.645 186.057C101.077 186.413 100.624 186.938 100.287 187.631C99.9536 188.324 99.7869 189.174 99.7869 190.182C99.7869 191.189 99.9536 192.04 100.287 192.733C100.624 193.426 101.077 193.951 101.645 194.307C102.217 194.663 102.855 194.841 103.56 194.841C103.946 194.841 104.317 194.788 104.673 194.682C105.029 194.576 105.353 194.419 105.645 194.21C105.94 193.998 106.19 193.739 106.395 193.432C106.603 193.121 106.749 192.765 106.832 192.364H108.241C108.135 192.958 107.942 193.491 107.662 193.96C107.382 194.43 107.033 194.83 106.616 195.159C106.2 195.485 105.732 195.733 105.213 195.903C104.698 196.074 104.147 196.159 103.56 196.159C102.567 196.159 101.685 195.917 100.912 195.432C100.139 194.947 99.5313 194.258 99.0881 193.364C98.6449 192.47 98.4233 191.409 98.4233 190.182C98.4233 188.955 98.6449 187.894 99.0881 187C99.5313 186.106 100.139 185.417 100.912 184.932C101.685 184.447 102.567 184.205 103.56 184.205C104.147 184.205 104.698 184.29 105.213 184.46C105.732 184.631 106.2 184.881 106.616 185.21C107.033 185.536 107.382 185.934 107.662 186.403C107.942 186.869 108.135 187.402 108.241 188ZM112.905 196.205C112.352 196.205 111.85 196.1 111.399 195.892C110.948 195.68 110.59 195.375 110.325 194.977C110.06 194.576 109.928 194.091 109.928 193.523C109.928 193.023 110.026 192.617 110.223 192.307C110.42 191.992 110.683 191.746 111.013 191.568C111.342 191.39 111.706 191.258 112.104 191.17C112.505 191.08 112.909 191.008 113.314 190.955C113.844 190.886 114.274 190.835 114.604 190.801C114.937 190.763 115.179 190.701 115.331 190.614C115.486 190.527 115.564 190.375 115.564 190.159V190.114C115.564 189.553 115.411 189.117 115.104 188.807C114.801 188.496 114.34 188.341 113.723 188.341C113.083 188.341 112.581 188.481 112.217 188.761C111.854 189.042 111.598 189.341 111.45 189.659L110.178 189.205C110.405 188.674 110.708 188.261 111.087 187.966C111.469 187.667 111.886 187.458 112.337 187.341C112.791 187.22 113.238 187.159 113.678 187.159C113.958 187.159 114.28 187.193 114.643 187.261C115.011 187.326 115.365 187.46 115.706 187.665C116.051 187.869 116.337 188.178 116.564 188.591C116.791 189.004 116.905 189.557 116.905 190.25V196H115.564V194.818H115.496C115.405 195.008 115.253 195.21 115.041 195.426C114.829 195.642 114.547 195.826 114.195 195.977C113.842 196.129 113.412 196.205 112.905 196.205ZM113.109 195C113.64 195 114.087 194.896 114.45 194.688C114.818 194.479 115.094 194.21 115.28 193.881C115.469 193.551 115.564 193.205 115.564 192.841V191.614C115.507 191.682 115.382 191.744 115.189 191.801C115 191.854 114.78 191.902 114.53 191.943C114.284 191.981 114.043 192.015 113.808 192.045C113.577 192.072 113.39 192.095 113.246 192.114C112.897 192.159 112.571 192.233 112.268 192.335C111.969 192.434 111.727 192.583 111.541 192.784C111.359 192.981 111.268 193.25 111.268 193.591C111.268 194.057 111.441 194.409 111.786 194.648C112.134 194.883 112.575 195 113.109 195ZM120.693 190.75V196H119.352V187.273H120.648V188.636H120.761C120.966 188.193 121.277 187.837 121.693 187.568C122.11 187.295 122.648 187.159 123.307 187.159C123.898 187.159 124.415 187.28 124.858 187.523C125.301 187.761 125.646 188.125 125.892 188.614C126.138 189.098 126.261 189.712 126.261 190.455V196H124.92V190.545C124.92 189.86 124.742 189.326 124.386 188.943C124.03 188.557 123.542 188.364 122.92 188.364C122.492 188.364 122.11 188.456 121.773 188.642C121.439 188.828 121.176 189.098 120.983 189.455C120.79 189.811 120.693 190.242 120.693 190.75ZM132.257 196.182C131.439 196.182 130.734 195.989 130.143 195.602C129.553 195.216 129.098 194.684 128.78 194.006C128.462 193.328 128.303 192.553 128.303 191.682C128.303 190.795 128.465 190.013 128.791 189.335C129.121 188.653 129.579 188.121 130.166 187.739C130.757 187.352 131.446 187.159 132.234 187.159C132.848 187.159 133.401 187.273 133.893 187.5C134.386 187.727 134.789 188.045 135.104 188.455C135.418 188.864 135.613 189.341 135.689 189.886H134.348C134.246 189.489 134.018 189.136 133.666 188.83C133.318 188.519 132.848 188.364 132.257 188.364C131.734 188.364 131.276 188.5 130.882 188.773C130.492 189.042 130.187 189.422 129.967 189.915C129.751 190.403 129.643 190.977 129.643 191.636C129.643 192.311 129.75 192.898 129.962 193.398C130.178 193.898 130.481 194.286 130.871 194.562C131.265 194.839 131.727 194.977 132.257 194.977C132.606 194.977 132.922 194.917 133.206 194.795C133.49 194.674 133.731 194.5 133.928 194.273C134.125 194.045 134.265 193.773 134.348 193.455H135.689C135.613 193.97 135.426 194.434 135.126 194.847C134.831 195.256 134.439 195.581 133.95 195.824C133.465 196.062 132.901 196.182 132.257 196.182ZM141.308 196.182C140.467 196.182 139.742 195.996 139.132 195.625C138.526 195.25 138.058 194.727 137.729 194.057C137.403 193.383 137.24 192.598 137.24 191.705C137.24 190.811 137.403 190.023 137.729 189.341C138.058 188.655 138.517 188.121 139.104 187.739C139.695 187.352 140.384 187.159 141.172 187.159C141.626 187.159 142.075 187.235 142.518 187.386C142.962 187.538 143.365 187.784 143.729 188.125C144.092 188.462 144.382 188.909 144.598 189.466C144.814 190.023 144.922 190.708 144.922 191.523V192.091H138.195V190.932H143.558C143.558 190.439 143.46 190 143.263 189.614C143.07 189.227 142.793 188.922 142.433 188.699C142.077 188.475 141.657 188.364 141.172 188.364C140.638 188.364 140.176 188.496 139.786 188.761C139.399 189.023 139.102 189.364 138.893 189.784C138.685 190.205 138.581 190.655 138.581 191.136V191.909C138.581 192.568 138.695 193.127 138.922 193.585C139.153 194.04 139.473 194.386 139.882 194.625C140.291 194.86 140.767 194.977 141.308 194.977C141.661 194.977 141.979 194.928 142.263 194.83C142.551 194.727 142.799 194.576 143.007 194.375C143.215 194.17 143.376 193.917 143.49 193.614L144.786 193.977C144.649 194.417 144.42 194.803 144.098 195.136C143.776 195.466 143.378 195.723 142.905 195.909C142.431 196.091 141.899 196.182 141.308 196.182ZM148.303 184.364V196H146.962V184.364H148.303Z" fill="black"/>
<rect x="21.5" y="171.5" width="203" height="37" rx="9.5" stroke="black"/>
<path d="M55.0263 37V25.3636H58.9581C59.8672 25.3636 60.6134 25.5189 61.1967 25.8295C61.7801 26.1364 62.2119 26.5587 62.4922 27.0966C62.7725 27.6345 62.9126 28.2462 62.9126 28.9318C62.9126 29.6174 62.7725 30.2254 62.4922 30.7557C62.2119 31.286 61.782 31.7027 61.2024 32.0057C60.6229 32.3049 59.8823 32.4545 58.9808 32.4545H55.799V31.1818H58.9354C59.5566 31.1818 60.0566 31.0909 60.4354 30.9091C60.8179 30.7273 61.0945 30.4697 61.2649 30.1364C61.4392 29.7992 61.5263 29.3977 61.5263 28.9318C61.5263 28.4659 61.4392 28.0587 61.2649 27.7102C61.0907 27.3617 60.8123 27.0928 60.4297 26.9034C60.0471 26.7102 59.5414 26.6136 58.9126 26.6136H56.4354V37H55.0263ZM60.5036 31.7727L63.3672 37H61.7308L58.9126 31.7727H60.5036ZM68.6442 37.1818C67.8033 37.1818 67.0779 36.9962 66.468 36.625C65.862 36.25 65.3942 35.7273 65.0646 35.0568C64.7389 34.3826 64.576 33.5985 64.576 32.7045C64.576 31.8106 64.7389 31.0227 65.0646 30.3409C65.3942 29.6553 65.8525 29.1212 66.4396 28.7386C67.0305 28.3523 67.7199 28.1591 68.5078 28.1591C68.9624 28.1591 69.4112 28.2348 69.8544 28.3864C70.2976 28.5379 70.701 28.7841 71.0646 29.125C71.4283 29.4621 71.718 29.9091 71.9339 30.4659C72.1499 31.0227 72.2578 31.7083 72.2578 32.5227V33.0909H65.5305V31.9318H70.8942C70.8942 31.4394 70.7957 31 70.5987 30.6136C70.4055 30.2273 70.129 29.9223 69.7692 29.6989C69.4131 29.4754 68.9927 29.3636 68.5078 29.3636C67.9737 29.3636 67.5116 29.4962 67.1214 29.7614C66.7351 30.0227 66.4377 30.3636 66.2294 30.7841C66.0211 31.2045 65.9169 31.6553 65.9169 32.1364V32.9091C65.9169 33.5682 66.0305 34.1269 66.2578 34.5852C66.4889 35.0398 66.8089 35.3864 67.218 35.625C67.6271 35.8598 68.1025 35.9773 68.6442 35.9773C68.9964 35.9773 69.3146 35.928 69.5987 35.8295C69.8866 35.7273 70.1347 35.5758 70.343 35.375C70.5514 35.1705 70.7124 34.9167 70.826 34.6136L72.1214 34.9773C71.9851 35.4167 71.7559 35.803 71.4339 36.1364C71.112 36.4659 70.7143 36.7235 70.2408 36.9091C69.7673 37.0909 69.2351 37.1818 68.6442 37.1818ZM74.2976 37V28.2727H75.593V29.6364H75.7067C75.8885 29.1705 76.1821 28.8087 76.5874 28.5511C76.9927 28.2898 77.4794 28.1591 78.0476 28.1591C78.6233 28.1591 79.1025 28.2898 79.4851 28.5511C79.8714 28.8087 80.1726 29.1705 80.3885 29.6364H80.4794C80.7029 29.1856 81.0381 28.8277 81.4851 28.5625C81.9321 28.2936 82.468 28.1591 83.093 28.1591C83.8733 28.1591 84.5116 28.4034 85.0078 28.892C85.504 29.3769 85.7521 30.1326 85.7521 31.1591V37H84.4112V31.1591C84.4112 30.5152 84.2351 30.0549 83.8828 29.7784C83.5305 29.5019 83.1158 29.3636 82.6385 29.3636C82.0249 29.3636 81.5495 29.5492 81.2124 29.9205C80.8752 30.2879 80.7067 30.7538 80.7067 31.3182V37H79.343V31.0227C79.343 30.5265 79.1821 30.1269 78.8601 29.8239C78.5381 29.517 78.1233 29.3636 77.6158 29.3636C77.2673 29.3636 76.9415 29.4564 76.6385 29.642C76.3393 29.8277 76.0968 30.0852 75.9112 30.4148C75.7294 30.7405 75.6385 31.1174 75.6385 31.5455V37H74.2976ZM91.7493 37.1818C90.9614 37.1818 90.2701 36.9943 89.6754 36.6193C89.0845 36.2443 88.6224 35.7197 88.2891 35.0455C87.9595 34.3712 87.7947 33.5833 87.7947 32.6818C87.7947 31.7727 87.9595 30.9792 88.2891 30.3011C88.6224 29.6231 89.0845 29.0966 89.6754 28.7216C90.2701 28.3466 90.9614 28.1591 91.7493 28.1591C92.5372 28.1591 93.2266 28.3466 93.8175 28.7216C94.4122 29.0966 94.8743 29.6231 95.2038 30.3011C95.5372 30.9792 95.7038 31.7727 95.7038 32.6818C95.7038 33.5833 95.5372 34.3712 95.2038 35.0455C94.8743 35.7197 94.4122 36.2443 93.8175 36.6193C93.2266 36.9943 92.5372 37.1818 91.7493 37.1818ZM91.7493 35.9773C92.3478 35.9773 92.8402 35.8239 93.2266 35.517C93.6129 35.2102 93.8989 34.8068 94.0845 34.3068C94.2701 33.8068 94.3629 33.2652 94.3629 32.6818C94.3629 32.0985 94.2701 31.5549 94.0845 31.0511C93.8989 30.5473 93.6129 30.1402 93.2266 29.8295C92.8402 29.5189 92.3478 29.3636 91.7493 29.3636C91.1508 29.3636 90.6584 29.5189 90.272 29.8295C89.8857 30.1402 89.5997 30.5473 89.4141 31.0511C89.2285 31.5549 89.1357 32.0985 89.1357 32.6818C89.1357 33.2652 89.2285 33.8068 89.4141 34.3068C89.5997 34.8068 89.8857 35.2102 90.272 35.517C90.6584 35.8239 91.1508 35.9773 91.7493 35.9773ZM104.575 28.2727L101.347 37H99.9837L96.7564 28.2727H98.2109L100.62 35.2273H100.711L103.12 28.2727H104.575ZM109.691 37.1818C108.85 37.1818 108.125 36.9962 107.515 36.625C106.909 36.25 106.441 35.7273 106.112 35.0568C105.786 34.3826 105.623 33.5985 105.623 32.7045C105.623 31.8106 105.786 31.0227 106.112 30.3409C106.441 29.6553 106.899 29.1212 107.487 28.7386C108.077 28.3523 108.767 28.1591 109.555 28.1591C110.009 28.1591 110.458 28.2348 110.901 28.3864C111.344 28.5379 111.748 28.7841 112.112 29.125C112.475 29.4621 112.765 29.9091 112.981 30.4659C113.197 31.0227 113.305 31.7083 113.305 32.5227V33.0909H106.577V31.9318H111.941C111.941 31.4394 111.843 31 111.646 30.6136C111.452 30.2273 111.176 29.9223 110.816 29.6989C110.46 29.4754 110.04 29.3636 109.555 29.3636C109.021 29.3636 108.558 29.4962 108.168 29.7614C107.782 30.0227 107.485 30.3636 107.276 30.7841C107.068 31.2045 106.964 31.6553 106.964 32.1364V32.9091C106.964 33.5682 107.077 34.1269 107.305 34.5852C107.536 35.0398 107.856 35.3864 108.265 35.625C108.674 35.8598 109.149 35.9773 109.691 35.9773C110.043 35.9773 110.362 35.928 110.646 35.8295C110.933 35.7273 111.182 35.5758 111.39 35.375C111.598 35.1705 111.759 34.9167 111.873 34.6136L113.168 34.9773C113.032 35.4167 112.803 35.803 112.481 36.1364C112.159 36.4659 111.761 36.7235 111.288 36.9091C110.814 37.0909 110.282 37.1818 109.691 37.1818ZM120.026 37V25.3636H123.958C124.871 25.3636 125.617 25.5284 126.197 25.858C126.78 26.1837 127.212 26.625 127.492 27.1818C127.772 27.7386 127.913 28.3598 127.913 29.0455C127.913 29.7311 127.772 30.3542 127.492 30.9148C127.216 31.4754 126.788 31.9223 126.208 32.2557C125.629 32.5852 124.886 32.75 123.981 32.75H121.163V31.5H123.935C124.56 31.5 125.062 31.392 125.441 31.1761C125.82 30.9602 126.094 30.6686 126.265 30.3011C126.439 29.9299 126.526 29.5114 126.526 29.0455C126.526 28.5795 126.439 28.1629 126.265 27.7955C126.094 27.428 125.818 27.1402 125.435 26.9318C125.053 26.7197 124.545 26.6136 123.913 26.6136H121.435V37H120.026ZM132.569 37.2045C132.016 37.2045 131.514 37.1004 131.063 36.892C130.612 36.6799 130.254 36.375 129.989 35.9773C129.724 35.5758 129.592 35.0909 129.592 34.5227C129.592 34.0227 129.69 33.6174 129.887 33.3068C130.084 32.9924 130.347 32.7462 130.677 32.5682C131.006 32.3902 131.37 32.2576 131.768 32.1705C132.169 32.0795 132.573 32.0076 132.978 31.9545C133.508 31.8864 133.938 31.8352 134.268 31.8011C134.601 31.7633 134.844 31.7008 134.995 31.6136C135.15 31.5265 135.228 31.375 135.228 31.1591V31.1136C135.228 30.553 135.075 30.1174 134.768 29.8068C134.465 29.4962 134.004 29.3409 133.387 29.3409C132.747 29.3409 132.245 29.4811 131.881 29.7614C131.518 30.0417 131.262 30.3409 131.114 30.6591L129.842 30.2045C130.069 29.6742 130.372 29.2614 130.751 28.9659C131.133 28.6667 131.55 28.4583 132.001 28.3409C132.455 28.2197 132.902 28.1591 133.342 28.1591C133.622 28.1591 133.944 28.1932 134.308 28.2614C134.675 28.3258 135.029 28.4602 135.37 28.6648C135.715 28.8693 136.001 29.178 136.228 29.5909C136.455 30.0038 136.569 30.5568 136.569 31.25V37H135.228V35.8182H135.16C135.069 36.0076 134.917 36.2102 134.705 36.4261C134.493 36.642 134.211 36.8258 133.859 36.9773C133.506 37.1288 133.076 37.2045 132.569 37.2045ZM132.773 36C133.304 36 133.751 35.8958 134.114 35.6875C134.482 35.4792 134.758 35.2102 134.944 34.8807C135.133 34.5511 135.228 34.2045 135.228 33.8409V32.6136C135.171 32.6818 135.046 32.7443 134.853 32.8011C134.664 32.8542 134.444 32.9015 134.194 32.9432C133.948 32.9811 133.707 33.0152 133.472 33.0455C133.241 33.072 133.054 33.0947 132.91 33.1136C132.561 33.1591 132.236 33.233 131.933 33.3352C131.633 33.4337 131.391 33.5833 131.205 33.7841C131.023 33.9811 130.933 34.25 130.933 34.5909C130.933 35.0568 131.105 35.4091 131.45 35.6477C131.798 35.8826 132.239 36 132.773 36ZM145.198 30.2273L143.994 30.5682C143.918 30.3674 143.806 30.1723 143.658 29.983C143.514 29.7898 143.317 29.6307 143.067 29.5057C142.817 29.3807 142.497 29.3182 142.107 29.3182C141.573 29.3182 141.128 29.4413 140.772 29.6875C140.42 29.9299 140.244 30.2386 140.244 30.6136C140.244 30.947 140.365 31.2102 140.607 31.4034C140.85 31.5966 141.228 31.7576 141.744 31.8864L143.039 32.2045C143.819 32.3939 144.401 32.6837 144.783 33.0739C145.166 33.4602 145.357 33.9583 145.357 34.5682C145.357 35.0682 145.213 35.5152 144.925 35.9091C144.641 36.303 144.244 36.6136 143.732 36.8409C143.221 37.0682 142.626 37.1818 141.948 37.1818C141.058 37.1818 140.321 36.9886 139.738 36.6023C139.155 36.2159 138.785 35.6515 138.63 34.9091L139.903 34.5909C140.024 35.0606 140.253 35.4129 140.59 35.6477C140.931 35.8826 141.376 36 141.925 36C142.55 36 143.047 35.8674 143.414 35.6023C143.785 35.3333 143.971 35.0114 143.971 34.6364C143.971 34.3333 143.865 34.0795 143.653 33.875C143.441 33.6667 143.115 33.5114 142.675 33.4091L141.221 33.0682C140.422 32.8788 139.835 32.5852 139.46 32.1875C139.088 31.786 138.903 31.2841 138.903 30.6818C138.903 30.1894 139.041 29.7538 139.317 29.375C139.598 28.9962 139.978 28.6989 140.46 28.483C140.944 28.267 141.494 28.1591 142.107 28.1591C142.971 28.1591 143.649 28.3485 144.141 28.7273C144.638 29.1061 144.99 29.6061 145.198 30.2273ZM153.558 30.2273L152.353 30.5682C152.277 30.3674 152.165 30.1723 152.018 29.983C151.874 29.7898 151.677 29.6307 151.427 29.5057C151.177 29.3807 150.857 29.3182 150.467 29.3182C149.933 29.3182 149.487 29.4413 149.131 29.6875C148.779 29.9299 148.603 30.2386 148.603 30.6136C148.603 30.947 148.724 31.2102 148.967 31.4034C149.209 31.5966 149.588 31.7576 150.103 31.8864L151.398 32.2045C152.179 32.3939 152.76 32.6837 153.143 33.0739C153.525 33.4602 153.717 33.9583 153.717 34.5682C153.717 35.0682 153.573 35.5152 153.285 35.9091C153.001 36.303 152.603 36.6136 152.092 36.8409C151.58 37.0682 150.986 37.1818 150.308 37.1818C149.417 37.1818 148.681 36.9886 148.097 36.6023C147.514 36.2159 147.145 35.6515 146.989 34.9091L148.262 34.5909C148.383 35.0606 148.612 35.4129 148.95 35.6477C149.29 35.8826 149.736 36 150.285 36C150.91 36 151.406 35.8674 151.773 35.6023C152.145 35.3333 152.33 35.0114 152.33 34.6364C152.33 34.3333 152.224 34.0795 152.012 33.875C151.8 33.6667 151.474 33.5114 151.035 33.4091L149.58 33.0682C148.781 32.8788 148.194 32.5852 147.819 32.1875C147.448 31.786 147.262 31.2841 147.262 30.6818C147.262 30.1894 147.4 29.7538 147.677 29.375C147.957 28.9962 148.338 28.6989 148.819 28.483C149.304 28.267 149.853 28.1591 150.467 28.1591C151.33 28.1591 152.008 28.3485 152.501 28.7273C152.997 29.1061 153.349 29.6061 153.558 30.2273ZM157.712 37L155.053 28.2727H156.462L158.349 34.9545H158.44L160.303 28.2727H161.735L163.576 34.9318H163.667L165.553 28.2727H166.962L164.303 37H162.985L161.076 30.2955H160.94L159.031 37H157.712ZM171.984 37.1818C171.196 37.1818 170.504 36.9943 169.91 36.6193C169.319 36.2443 168.857 35.7197 168.523 35.0455C168.194 34.3712 168.029 33.5833 168.029 32.6818C168.029 31.7727 168.194 30.9792 168.523 30.3011C168.857 29.6231 169.319 29.0966 169.91 28.7216C170.504 28.3466 171.196 28.1591 171.984 28.1591C172.772 28.1591 173.461 28.3466 174.052 28.7216C174.647 29.0966 175.109 29.6231 175.438 30.3011C175.772 30.9792 175.938 31.7727 175.938 32.6818C175.938 33.5833 175.772 34.3712 175.438 35.0455C175.109 35.7197 174.647 36.2443 174.052 36.6193C173.461 36.9943 172.772 37.1818 171.984 37.1818ZM171.984 35.9773C172.582 35.9773 173.075 35.8239 173.461 35.517C173.847 35.2102 174.133 34.8068 174.319 34.3068C174.504 33.8068 174.597 33.2652 174.597 32.6818C174.597 32.0985 174.504 31.5549 174.319 31.0511C174.133 30.5473 173.847 30.1402 173.461 29.8295C173.075 29.5189 172.582 29.3636 171.984 29.3636C171.385 29.3636 170.893 29.5189 170.506 29.8295C170.12 30.1402 169.834 30.5473 169.648 31.0511C169.463 31.5549 169.37 32.0985 169.37 32.6818C169.37 33.2652 169.463 33.8068 169.648 34.3068C169.834 34.8068 170.12 35.2102 170.506 35.517C170.893 35.8239 171.385 35.9773 171.984 35.9773ZM177.985 37V28.2727H179.281V29.5909H179.371C179.531 29.1591 179.818 28.8087 180.235 28.5398C180.652 28.2708 181.121 28.1364 181.644 28.1364C181.743 28.1364 181.866 28.1383 182.013 28.142C182.161 28.1458 182.273 28.1515 182.349 28.1591V29.5227C182.303 29.5114 182.199 29.4943 182.036 29.4716C181.877 29.4451 181.709 29.4318 181.531 29.4318C181.106 29.4318 180.728 29.5208 180.394 29.6989C180.065 29.8731 179.803 30.1155 179.61 30.4261C179.421 30.733 179.326 31.0833 179.326 31.4773V37H177.985ZM186.968 37.1818C186.241 37.1818 185.599 36.9981 185.042 36.6307C184.485 36.2595 184.049 35.7367 183.735 35.0625C183.421 34.3845 183.263 33.5833 183.263 32.6591C183.263 31.7424 183.421 30.947 183.735 30.2727C184.049 29.5985 184.487 29.0777 185.048 28.7102C185.608 28.3428 186.256 28.1591 186.991 28.1591C187.559 28.1591 188.008 28.2538 188.337 28.4432C188.671 28.6288 188.924 28.8409 189.099 29.0795C189.277 29.3144 189.415 29.5076 189.513 29.6591H189.627V25.3636H190.968V37H189.673V35.6591H189.513C189.415 35.8182 189.275 36.0189 189.093 36.2614C188.911 36.5 188.652 36.714 188.315 36.9034C187.978 37.089 187.529 37.1818 186.968 37.1818ZM187.15 35.9773C187.688 35.9773 188.142 35.8371 188.513 35.5568C188.885 35.2727 189.167 34.8807 189.36 34.3807C189.553 33.8769 189.65 33.2955 189.65 32.6364C189.65 31.9848 189.555 31.4148 189.366 30.9261C189.176 30.4337 188.896 30.0511 188.525 29.7784C188.154 29.5019 187.695 29.3636 187.15 29.3636C186.582 29.3636 186.108 29.5095 185.729 29.8011C185.354 30.089 185.072 30.4811 184.883 30.9773C184.697 31.4697 184.604 32.0227 184.604 32.6364C184.604 33.2576 184.699 33.822 184.888 34.3295C185.082 34.8333 185.366 35.2348 185.741 35.5341C186.12 35.8295 186.589 35.9773 187.15 35.9773Z" fill="black"/>
<path d="M31.7379 76H30.2607L34.5334 64.3636H35.9879L40.2607 76H38.7834L35.3061 66.2045H35.2152L31.7379 76ZM32.2834 71.4545H38.2379V72.7045H32.2834V71.4545ZM41.8913 76V67.2727H43.1868V68.5909H43.2777C43.4368 68.1591 43.7247 67.8087 44.1413 67.5398C44.558 67.2708 45.0277 67.1364 45.5504 67.1364C45.6489 67.1364 45.772 67.1383 45.9197 67.142C46.0675 67.1458 46.1792 67.1515 46.255 67.1591V68.5227C46.2095 68.5114 46.1054 68.4943 45.9425 68.4716C45.7834 68.4451 45.6148 68.4318 45.4368 68.4318C45.0125 68.4318 44.6338 68.5208 44.3004 68.6989C43.9709 68.8731 43.7095 69.1155 43.5163 69.4261C43.3269 69.733 43.2322 70.0833 43.2322 70.4773V76H41.8913ZM51.2379 76.1818C50.397 76.1818 49.6716 75.9962 49.0618 75.625C48.4557 75.25 47.9879 74.7273 47.6584 74.0568C47.3326 73.3826 47.1697 72.5985 47.1697 71.7045C47.1697 70.8106 47.3326 70.0227 47.6584 69.3409C47.9879 68.6553 48.4463 68.1212 49.0334 67.7386C49.6243 67.3523 50.3137 67.1591 51.1016 67.1591C51.5561 67.1591 52.005 67.2348 52.4482 67.3864C52.8913 67.5379 53.2947 67.7841 53.6584 68.125C54.022 68.4621 54.3118 68.9091 54.5277 69.4659C54.7436 70.0227 54.8516 70.7083 54.8516 71.5227V72.0909H48.1243V70.9318H53.4879C53.4879 70.4394 53.3894 70 53.1925 69.6136C52.9993 69.2273 52.7228 68.9223 52.3629 68.6989C52.0069 68.4754 51.5864 68.3636 51.1016 68.3636C50.5675 68.3636 50.1054 68.4962 49.7152 68.7614C49.3288 69.0227 49.0315 69.3636 48.8232 69.7841C48.6148 70.2045 48.5107 70.6553 48.5107 71.1364V71.9091C48.5107 72.5682 48.6243 73.1269 48.8516 73.5852C49.0826 74.0398 49.4027 74.3864 49.8118 74.625C50.2209 74.8598 50.6963 74.9773 51.2379 74.9773C51.5902 74.9773 51.9084 74.928 52.1925 74.8295C52.4804 74.7273 52.7285 74.5758 52.9368 74.375C53.1451 74.1705 53.3061 73.9167 53.4197 73.6136L54.7152 73.9773C54.5788 74.4167 54.3497 74.803 54.0277 75.1364C53.7057 75.4659 53.308 75.7235 52.8345 75.9091C52.361 76.0909 51.8288 76.1818 51.2379 76.1818ZM62.255 79.2727C62.0277 79.2727 61.825 79.2538 61.647 79.2159C61.469 79.1818 61.3459 79.1477 61.2777 79.1136L61.6186 77.9318C61.9444 78.0152 62.2322 78.0455 62.4822 78.0227C62.7322 78 62.9538 77.8883 63.147 77.6875C63.344 77.4905 63.5239 77.1705 63.6868 76.7273L63.9368 76.0455L60.7095 67.2727H62.1641L64.5732 74.2273H64.6641L67.0732 67.2727H68.5277L64.8232 77.2727C64.6565 77.7235 64.45 78.0966 64.2038 78.392C63.9576 78.6913 63.6716 78.9129 63.3459 79.0568C63.0239 79.2008 62.6603 79.2727 62.255 79.2727ZM73.5305 76.1818C72.7427 76.1818 72.0514 75.9943 71.4567 75.6193C70.8658 75.2443 70.4036 74.7197 70.0703 74.0455C69.7408 73.3712 69.576 72.5833 69.576 71.6818C69.576 70.7727 69.7408 69.9792 70.0703 69.3011C70.4036 68.6231 70.8658 68.0966 71.4567 67.7216C72.0514 67.3466 72.7427 67.1591 73.5305 67.1591C74.3184 67.1591 75.0078 67.3466 75.5987 67.7216C76.1934 68.0966 76.6555 68.6231 76.9851 69.3011C77.3184 69.9792 77.4851 70.7727 77.4851 71.6818C77.4851 72.5833 77.3184 73.3712 76.9851 74.0455C76.6555 74.7197 76.1934 75.2443 75.5987 75.6193C75.0078 75.9943 74.3184 76.1818 73.5305 76.1818ZM73.5305 74.9773C74.129 74.9773 74.6214 74.8239 75.0078 74.517C75.3942 74.2102 75.6802 73.8068 75.8658 73.3068C76.0514 72.8068 76.1442 72.2652 76.1442 71.6818C76.1442 71.0985 76.0514 70.5549 75.8658 70.0511C75.6802 69.5473 75.3942 69.1402 75.0078 68.8295C74.6214 68.5189 74.129 68.3636 73.5305 68.3636C72.9321 68.3636 72.4396 68.5189 72.0533 68.8295C71.6669 69.1402 71.3809 69.5473 71.1953 70.0511C71.0097 70.5549 70.9169 71.0985 70.9169 71.6818C70.9169 72.2652 71.0097 72.8068 71.1953 73.3068C71.3809 73.8068 71.6669 74.2102 72.0533 74.517C72.4396 74.8239 72.9321 74.9773 73.5305 74.9773ZM85.032 72.4318V67.2727H86.3729V76H85.032V74.5227H84.9411C84.7365 74.9659 84.4183 75.3428 83.9865 75.6534C83.5547 75.9602 83.0092 76.1136 82.3501 76.1136C81.8047 76.1136 81.3198 75.9943 80.8956 75.7557C80.4714 75.5133 80.138 75.1496 79.8956 74.6648C79.6532 74.1761 79.532 73.5606 79.532 72.8182V67.2727H80.8729V72.7273C80.8729 73.3636 81.0509 73.8712 81.407 74.25C81.7668 74.6288 82.2251 74.8182 82.782 74.8182C83.1153 74.8182 83.4543 74.733 83.799 74.5625C84.1475 74.392 84.4392 74.1307 84.674 73.7784C84.9126 73.4261 85.032 72.9773 85.032 72.4318ZM99.5107 69.2273L98.3061 69.5682C98.2304 69.3674 98.1186 69.1723 97.9709 68.983C97.8269 68.7898 97.63 68.6307 97.38 68.5057C97.13 68.3807 96.8099 68.3182 96.4197 68.3182C95.8857 68.3182 95.4406 68.4413 95.0845 68.6875C94.7322 68.9299 94.5561 69.2386 94.5561 69.6136C94.5561 69.947 94.6773 70.2102 94.9197 70.4034C95.1622 70.5966 95.541 70.7576 96.0561 70.8864L97.3516 71.2045C98.1319 71.3939 98.7133 71.6837 99.0959 72.0739C99.4785 72.4602 99.6697 72.9583 99.6697 73.5682C99.6697 74.0682 99.5258 74.5152 99.2379 74.9091C98.9538 75.303 98.5561 75.6136 98.0447 75.8409C97.5334 76.0682 96.9387 76.1818 96.2607 76.1818C95.3705 76.1818 94.6338 75.9886 94.0504 75.6023C93.4671 75.2159 93.0978 74.6515 92.9425 73.9091L94.2152 73.5909C94.3364 74.0606 94.5656 74.4129 94.9027 74.6477C95.2436 74.8826 95.6887 75 96.2379 75C96.8629 75 97.3591 74.8674 97.7266 74.6023C98.0978 74.3333 98.2834 74.0114 98.2834 73.6364C98.2834 73.3333 98.1773 73.0795 97.9652 72.875C97.7531 72.6667 97.4273 72.5114 96.9879 72.4091L95.5334 72.0682C94.7341 71.8788 94.147 71.5852 93.772 71.1875C93.4008 70.786 93.2152 70.2841 93.2152 69.6818C93.2152 69.1894 93.3535 68.7538 93.63 68.375C93.9103 67.9962 94.291 67.6989 94.772 67.483C95.2569 67.267 95.8061 67.1591 96.4197 67.1591C97.2834 67.1591 97.9614 67.3485 98.4538 67.7273C98.95 68.1061 99.3023 68.6061 99.5107 69.2273ZM107.188 72.4318V67.2727H108.529V76H107.188V74.5227H107.097C106.893 74.9659 106.575 75.3428 106.143 75.6534C105.711 75.9602 105.165 76.1136 104.506 76.1136C103.961 76.1136 103.476 75.9943 103.052 75.7557C102.628 75.5133 102.294 75.1496 102.052 74.6648C101.809 74.1761 101.688 73.5606 101.688 72.8182V67.2727H103.029V72.7273C103.029 73.3636 103.207 73.8712 103.563 74.25C103.923 74.6288 104.381 74.8182 104.938 74.8182C105.272 74.8182 105.611 74.733 105.955 74.5625C106.304 74.392 106.595 74.1307 106.83 73.7784C107.069 73.4261 107.188 72.9773 107.188 72.4318ZM110.985 76V67.2727H112.281V68.5909H112.371C112.531 68.1591 112.818 67.8087 113.235 67.5398C113.652 67.2708 114.121 67.1364 114.644 67.1364C114.743 67.1364 114.866 67.1383 115.013 67.142C115.161 67.1458 115.273 67.1515 115.349 67.1591V68.5227C115.303 68.5114 115.199 68.4943 115.036 68.4716C114.877 68.4451 114.709 68.4318 114.531 68.4318C114.106 68.4318 113.728 68.5208 113.394 68.6989C113.065 68.8731 112.803 69.1155 112.61 69.4261C112.421 69.733 112.326 70.0833 112.326 70.4773V76H110.985ZM120.332 76.1818C119.491 76.1818 118.765 75.9962 118.156 75.625C117.549 75.25 117.082 74.7273 116.752 74.0568C116.426 73.3826 116.263 72.5985 116.263 71.7045C116.263 70.8106 116.426 70.0227 116.752 69.3409C117.082 68.6553 117.54 68.1212 118.127 67.7386C118.718 67.3523 119.407 67.1591 120.195 67.1591C120.65 67.1591 121.099 67.2348 121.542 67.3864C121.985 67.5379 122.388 67.7841 122.752 68.125C123.116 68.4621 123.406 68.9091 123.621 69.4659C123.837 70.0227 123.945 70.7083 123.945 71.5227V72.0909H117.218V70.9318H122.582C122.582 70.4394 122.483 70 122.286 69.6136C122.093 69.2273 121.817 68.9223 121.457 68.6989C121.101 68.4754 120.68 68.3636 120.195 68.3636C119.661 68.3636 119.199 68.4962 118.809 68.7614C118.423 69.0227 118.125 69.3636 117.917 69.7841C117.709 70.2045 117.604 70.6553 117.604 71.1364V71.9091C117.604 72.5682 117.718 73.1269 117.945 73.5852C118.176 74.0398 118.496 74.3864 118.906 74.625C119.315 74.8598 119.79 74.9773 120.332 74.9773C120.684 74.9773 121.002 74.928 121.286 74.8295C121.574 74.7273 121.822 74.5758 122.031 74.375C122.239 74.1705 122.4 73.9167 122.513 73.6136L123.809 73.9773C123.673 74.4167 123.443 74.803 123.121 75.1364C122.799 75.4659 122.402 75.7235 121.928 75.9091C121.455 76.0909 120.923 76.1818 120.332 76.1818ZM131.349 79.2727C131.121 79.2727 130.919 79.2538 130.741 79.2159C130.563 79.1818 130.44 79.1477 130.371 79.1136L130.712 77.9318C131.038 78.0152 131.326 78.0455 131.576 78.0227C131.826 78 132.048 77.8883 132.241 77.6875C132.438 77.4905 132.618 77.1705 132.781 76.7273L133.031 76.0455L129.803 67.2727H131.258L133.667 74.2273H133.758L136.167 67.2727H137.621L133.917 77.2727C133.75 77.7235 133.544 78.0966 133.298 78.392C133.051 78.6913 132.765 78.9129 132.44 79.0568C132.118 79.2008 131.754 79.2727 131.349 79.2727ZM142.624 76.1818C141.836 76.1818 141.145 75.9943 140.55 75.6193C139.96 75.2443 139.497 74.7197 139.164 74.0455C138.835 73.3712 138.67 72.5833 138.67 71.6818C138.67 70.7727 138.835 69.9792 139.164 69.3011C139.497 68.6231 139.96 68.0966 140.55 67.7216C141.145 67.3466 141.836 67.1591 142.624 67.1591C143.412 67.1591 144.102 67.3466 144.692 67.7216C145.287 68.0966 145.749 68.6231 146.079 69.3011C146.412 69.9792 146.579 70.7727 146.579 71.6818C146.579 72.5833 146.412 73.3712 146.079 74.0455C145.749 74.7197 145.287 75.2443 144.692 75.6193C144.102 75.9943 143.412 76.1818 142.624 76.1818ZM142.624 74.9773C143.223 74.9773 143.715 74.8239 144.102 74.517C144.488 74.2102 144.774 73.8068 144.96 73.3068C145.145 72.8068 145.238 72.2652 145.238 71.6818C145.238 71.0985 145.145 70.5549 144.96 70.0511C144.774 69.5473 144.488 69.1402 144.102 68.8295C143.715 68.5189 143.223 68.3636 142.624 68.3636C142.026 68.3636 141.533 68.5189 141.147 68.8295C140.761 69.1402 140.475 69.5473 140.289 70.0511C140.103 70.5549 140.011 71.0985 140.011 71.6818C140.011 72.2652 140.103 72.8068 140.289 73.3068C140.475 73.8068 140.761 74.2102 141.147 74.517C141.533 74.8239 142.026 74.9773 142.624 74.9773ZM154.126 72.4318V67.2727H155.467V76H154.126V74.5227H154.035C153.83 74.9659 153.512 75.3428 153.08 75.6534C152.648 75.9602 152.103 76.1136 151.444 76.1136C150.898 76.1136 150.414 75.9943 149.989 75.7557C149.565 75.5133 149.232 75.1496 148.989 74.6648C148.747 74.1761 148.626 73.5606 148.626 72.8182V67.2727H149.967V72.7273C149.967 73.3636 150.145 73.8712 150.501 74.25C150.861 74.6288 151.319 74.8182 151.876 74.8182C152.209 74.8182 152.548 74.733 152.893 74.5625C153.241 74.392 153.533 74.1307 153.768 73.7784C154.006 73.4261 154.126 72.9773 154.126 72.4318ZM164.4 76L161.741 67.2727H163.15L165.036 73.9545H165.127L166.991 67.2727H168.423L170.263 73.9318H170.354L172.241 67.2727H173.65L170.991 76H169.673L167.763 69.2955H167.627L165.718 76H164.4ZM177.991 76.2045C177.438 76.2045 176.936 76.1004 176.485 75.892C176.034 75.6799 175.676 75.375 175.411 74.9773C175.146 74.5758 175.013 74.0909 175.013 73.5227C175.013 73.0227 175.112 72.6174 175.309 72.3068C175.506 71.9924 175.769 71.7462 176.099 71.5682C176.428 71.3902 176.792 71.2576 177.19 71.1705C177.591 71.0795 177.995 71.0076 178.4 70.9545C178.93 70.8864 179.36 70.8352 179.69 70.8011C180.023 70.7633 180.265 70.7008 180.417 70.6136C180.572 70.5265 180.65 70.375 180.65 70.1591V70.1136C180.65 69.553 180.496 69.1174 180.19 68.8068C179.887 68.4962 179.426 68.3409 178.809 68.3409C178.169 68.3409 177.667 68.4811 177.303 68.7614C176.94 69.0417 176.684 69.3409 176.536 69.6591L175.263 69.2045C175.491 68.6742 175.794 68.2614 176.173 67.9659C176.555 67.6667 176.972 67.4583 177.423 67.3409C177.877 67.2197 178.324 67.1591 178.763 67.1591C179.044 67.1591 179.366 67.1932 179.729 67.2614C180.097 67.3258 180.451 67.4602 180.792 67.6648C181.137 67.8693 181.423 68.178 181.65 68.5909C181.877 69.0038 181.991 69.5568 181.991 70.25V76H180.65V74.8182H180.582C180.491 75.0076 180.339 75.2102 180.127 75.4261C179.915 75.642 179.633 75.8258 179.281 75.9773C178.928 76.1288 178.498 76.2045 177.991 76.2045ZM178.195 75C178.726 75 179.173 74.8958 179.536 74.6875C179.904 74.4792 180.18 74.2102 180.366 73.8807C180.555 73.5511 180.65 73.2045 180.65 72.8409V71.6136C180.593 71.6818 180.468 71.7443 180.275 71.8011C180.085 71.8542 179.866 71.9015 179.616 71.9432C179.37 71.9811 179.129 72.0152 178.894 72.0455C178.663 72.072 178.476 72.0947 178.332 72.1136C177.983 72.1591 177.657 72.233 177.354 72.3352C177.055 72.4337 176.813 72.5833 176.627 72.7841C176.445 72.9811 176.354 73.25 176.354 73.5909C176.354 74.0568 176.527 74.4091 176.871 74.6477C177.22 74.8826 177.661 75 178.195 75ZM185.779 70.75V76H184.438V67.2727H185.734V68.6364H185.847C186.052 68.1932 186.362 67.8371 186.779 67.5682C187.196 67.2955 187.734 67.1591 188.393 67.1591C188.984 67.1591 189.501 67.2803 189.944 67.5227C190.387 67.7614 190.732 68.125 190.978 68.6136C191.224 69.0985 191.347 69.7121 191.347 70.4545V76H190.006V70.5455C190.006 69.8598 189.828 69.3258 189.472 68.9432C189.116 68.5568 188.628 68.3636 188.006 68.3636C187.578 68.3636 187.196 68.4564 186.859 68.642C186.525 68.8277 186.262 69.0985 186.069 69.4545C185.876 69.8106 185.779 70.2424 185.779 70.75ZM197.593 67.2727V68.4091H193.07V67.2727H197.593ZM194.388 65.1818H195.729V73.5C195.729 73.8788 195.784 74.1629 195.894 74.3523C196.008 74.5379 196.152 74.6629 196.326 74.7273C196.504 74.7879 196.692 74.8182 196.888 74.8182C197.036 74.8182 197.157 74.8106 197.252 74.7955C197.347 74.7765 197.423 74.7614 197.479 74.75L197.752 75.9545C197.661 75.9886 197.534 76.0227 197.371 76.0568C197.209 76.0947 197.002 76.1136 196.752 76.1136C196.373 76.1136 196.002 76.0322 195.638 75.8693C195.279 75.7064 194.979 75.4583 194.741 75.125C194.506 74.7917 194.388 74.3712 194.388 73.8636V65.1818ZM207.906 67.2727V68.4091H203.383V67.2727H207.906ZM204.701 65.1818H206.042V73.5C206.042 73.8788 206.097 74.1629 206.207 74.3523C206.32 74.5379 206.464 74.6629 206.638 74.7273C206.817 74.7879 207.004 74.8182 207.201 74.8182C207.349 74.8182 207.47 74.8106 207.565 74.7955C207.659 74.7765 207.735 74.7614 207.792 74.75L208.065 75.9545C207.974 75.9886 207.847 76.0227 207.684 76.0568C207.521 76.0947 207.315 76.1136 207.065 76.1136C206.686 76.1136 206.315 76.0322 205.951 75.8693C205.591 75.7064 205.292 75.4583 205.053 75.125C204.818 74.7917 204.701 74.3712 204.701 73.8636V65.1818ZM213.374 76.1818C212.586 76.1818 211.895 75.9943 211.3 75.6193C210.71 75.2443 210.247 74.7197 209.914 74.0455C209.585 73.3712 209.42 72.5833 209.42 71.6818C209.42 70.7727 209.585 69.9792 209.914 69.3011C210.247 68.6231 210.71 68.0966 211.3 67.7216C211.895 67.3466 212.586 67.1591 213.374 67.1591C214.162 67.1591 214.852 67.3466 215.442 67.7216C216.037 68.0966 216.499 68.6231 216.829 69.3011C217.162 69.9792 217.329 70.7727 217.329 71.6818C217.329 72.5833 217.162 73.3712 216.829 74.0455C216.499 74.7197 216.037 75.2443 215.442 75.6193C214.852 75.9943 214.162 76.1818 213.374 76.1818ZM213.374 74.9773C213.973 74.9773 214.465 74.8239 214.852 74.517C215.238 74.2102 215.524 73.8068 215.71 73.3068C215.895 72.8068 215.988 72.2652 215.988 71.6818C215.988 71.0985 215.895 70.5549 215.71 70.0511C215.524 69.5473 215.238 69.1402 214.852 68.8295C214.465 68.5189 213.973 68.3636 213.374 68.3636C212.776 68.3636 212.283 68.5189 211.897 68.8295C211.511 69.1402 211.225 69.5473 211.039 70.0511C210.853 70.5549 210.761 71.0985 210.761 71.6818C210.761 72.2652 210.853 72.8068 211.039 73.3068C211.225 73.8068 211.511 74.2102 211.897 74.517C212.283 74.8239 212.776 74.9773 213.374 74.9773ZM35.2741 95V86.2727H36.5696V87.5909H36.6605C36.8196 87.1591 37.1075 86.8087 37.5241 86.5398C37.9408 86.2708 38.4105 86.1364 38.9332 86.1364C39.0317 86.1364 39.1548 86.1383 39.3026 86.142C39.4503 86.1458 39.562 86.1515 39.6378 86.1591V87.5227C39.5923 87.5114 39.4882 87.4943 39.3253 87.4716C39.1662 87.4451 38.9976 87.4318 38.8196 87.4318C38.3954 87.4318 38.0166 87.5208 37.6832 87.6989C37.3537 87.8731 37.0923 88.1155 36.8991 88.4261C36.7098 88.733 36.6151 89.0833 36.6151 89.4773V95H35.2741ZM44.6207 95.1818C43.7798 95.1818 43.0545 94.9962 42.4446 94.625C41.8385 94.25 41.3707 93.7273 41.0412 93.0568C40.7154 92.3826 40.5526 91.5985 40.5526 90.7045C40.5526 89.8106 40.7154 89.0227 41.0412 88.3409C41.3707 87.6553 41.8291 87.1212 42.4162 86.7386C43.0071 86.3523 43.6965 86.1591 44.4844 86.1591C44.9389 86.1591 45.3878 86.2348 45.831 86.3864C46.2741 86.5379 46.6776 86.7841 47.0412 87.125C47.4048 87.4621 47.6946 87.9091 47.9105 88.4659C48.1264 89.0227 48.2344 89.7083 48.2344 90.5227V91.0909H41.5071V89.9318H46.8707C46.8707 89.4394 46.7723 89 46.5753 88.6136C46.3821 88.2273 46.1056 87.9223 45.7457 87.6989C45.3897 87.4754 44.9692 87.3636 44.4844 87.3636C43.9503 87.3636 43.4882 87.4962 43.098 87.7614C42.7116 88.0227 42.4143 88.3636 42.206 88.7841C41.9976 89.2045 41.8935 89.6553 41.8935 90.1364V90.9091C41.8935 91.5682 42.0071 92.1269 42.2344 92.5852C42.4654 93.0398 42.7855 93.3864 43.1946 93.625C43.6037 93.8598 44.0791 93.9773 44.6207 93.9773C44.973 93.9773 45.2912 93.928 45.5753 93.8295C45.8632 93.7273 46.1113 93.5758 46.3196 93.375C46.5279 93.1705 46.6889 92.9167 46.8026 92.6136L48.098 92.9773C47.9616 93.4167 47.7325 93.803 47.4105 94.1364C47.0885 94.4659 46.6908 94.7235 46.2173 94.9091C45.7438 95.0909 45.2116 95.1818 44.6207 95.1818ZM50.2741 95V86.2727H51.5696V87.6364H51.6832C51.8651 87.1705 52.1586 86.8087 52.5639 86.5511C52.9692 86.2898 53.456 86.1591 54.0241 86.1591C54.5999 86.1591 55.0791 86.2898 55.4616 86.5511C55.848 86.8087 56.1491 87.1705 56.3651 87.6364H56.456C56.6795 87.1856 57.0147 86.8277 57.4616 86.5625C57.9086 86.2936 58.4446 86.1591 59.0696 86.1591C59.8499 86.1591 60.4882 86.4034 60.9844 86.892C61.4806 87.3769 61.7287 88.1326 61.7287 89.1591V95H60.3878V89.1591C60.3878 88.5152 60.2116 88.0549 59.8594 87.7784C59.5071 87.5019 59.0923 87.3636 58.6151 87.3636C58.0014 87.3636 57.526 87.5492 57.1889 87.9205C56.8518 88.2879 56.6832 88.7538 56.6832 89.3182V95H55.3196V89.0227C55.3196 88.5265 55.1586 88.1269 54.8366 87.8239C54.5147 87.517 54.0999 87.3636 53.5923 87.3636C53.2438 87.3636 52.9181 87.4564 52.6151 87.642C52.3158 87.8277 52.0734 88.0852 51.8878 88.4148C51.706 88.7405 51.6151 89.1174 51.6151 89.5455V95H50.2741ZM67.7259 95.1818C66.938 95.1818 66.2467 94.9943 65.652 94.6193C65.0611 94.2443 64.599 93.7197 64.2656 93.0455C63.9361 92.3712 63.7713 91.5833 63.7713 90.6818C63.7713 89.7727 63.9361 88.9792 64.2656 88.3011C64.599 87.6231 65.0611 87.0966 65.652 86.7216C66.2467 86.3466 66.938 86.1591 67.7259 86.1591C68.5137 86.1591 69.2031 86.3466 69.794 86.7216C70.3887 87.0966 70.8509 87.6231 71.1804 88.3011C71.5137 88.9792 71.6804 89.7727 71.6804 90.6818C71.6804 91.5833 71.5137 92.3712 71.1804 93.0455C70.8509 93.7197 70.3887 94.2443 69.794 94.6193C69.2031 94.9943 68.5137 95.1818 67.7259 95.1818ZM67.7259 93.9773C68.3243 93.9773 68.8168 93.8239 69.2031 93.517C69.5895 93.2102 69.8755 92.8068 70.0611 92.3068C70.2467 91.8068 70.3395 91.2652 70.3395 90.6818C70.3395 90.0985 70.2467 89.5549 70.0611 89.0511C69.8755 88.5473 69.5895 88.1402 69.2031 87.8295C68.8168 87.5189 68.3243 87.3636 67.7259 87.3636C67.1274 87.3636 66.6349 87.5189 66.2486 87.8295C65.8622 88.1402 65.5762 88.5473 65.3906 89.0511C65.205 89.5549 65.1122 90.0985 65.1122 90.6818C65.1122 91.2652 65.205 91.8068 65.3906 92.3068C65.5762 92.8068 65.8622 93.2102 66.2486 93.517C66.6349 93.8239 67.1274 93.9773 67.7259 93.9773ZM80.5511 86.2727L77.3239 95H75.9602L72.733 86.2727H74.1875L76.5966 93.2273H76.6875L79.0966 86.2727H80.5511ZM85.6676 95.1818C84.8267 95.1818 84.1013 94.9962 83.4915 94.625C82.8854 94.25 82.4176 93.7273 82.0881 93.0568C81.7623 92.3826 81.5994 91.5985 81.5994 90.7045C81.5994 89.8106 81.7623 89.0227 82.0881 88.3409C82.4176 87.6553 82.8759 87.1212 83.4631 86.7386C84.054 86.3523 84.7434 86.1591 85.5312 86.1591C85.9858 86.1591 86.4347 86.2348 86.8778 86.3864C87.321 86.5379 87.7244 86.7841 88.0881 87.125C88.4517 87.4621 88.7415 87.9091 88.9574 88.4659C89.1733 89.0227 89.2812 89.7083 89.2812 90.5227V91.0909H82.554V89.9318H87.9176C87.9176 89.4394 87.8191 89 87.6222 88.6136C87.429 88.2273 87.1525 87.9223 86.7926 87.6989C86.4366 87.4754 86.0161 87.3636 85.5312 87.3636C84.9972 87.3636 84.535 87.4962 84.1449 87.7614C83.7585 88.0227 83.4612 88.3636 83.2528 88.7841C83.0445 89.2045 82.9403 89.6553 82.9403 90.1364V90.9091C82.9403 91.5682 83.054 92.1269 83.2812 92.5852C83.5123 93.0398 83.8324 93.3864 84.2415 93.625C84.6506 93.8598 85.1259 93.9773 85.6676 93.9773C86.0199 93.9773 86.3381 93.928 86.6222 93.8295C86.91 93.7273 87.1581 93.5758 87.3665 93.375C87.5748 93.1705 87.7358 92.9167 87.8494 92.6136L89.1449 92.9773C89.0085 93.4167 88.7794 93.803 88.4574 94.1364C88.1354 94.4659 87.7377 94.7235 87.2642 94.9091C86.7907 95.0909 86.2585 95.1818 85.6676 95.1818ZM96.6847 98.2727C96.4574 98.2727 96.2547 98.2538 96.0767 98.2159C95.8987 98.1818 95.7756 98.1477 95.7074 98.1136L96.0483 96.9318C96.3741 97.0152 96.6619 97.0455 96.9119 97.0227C97.1619 97 97.3835 96.8883 97.5767 96.6875C97.7737 96.4905 97.9536 96.1705 98.1165 95.7273L98.3665 95.0455L95.1392 86.2727H96.5938L99.0028 93.2273H99.0938L101.503 86.2727H102.957L99.2528 96.2727C99.0862 96.7235 98.8797 97.0966 98.6335 97.392C98.3873 97.6913 98.1013 97.9129 97.7756 98.0568C97.4536 98.2008 97.09 98.2727 96.6847 98.2727ZM107.96 95.1818C107.172 95.1818 106.481 94.9943 105.886 94.6193C105.295 94.2443 104.833 93.7197 104.5 93.0455C104.17 92.3712 104.006 91.5833 104.006 90.6818C104.006 89.7727 104.17 88.9792 104.5 88.3011C104.833 87.6231 105.295 87.0966 105.886 86.7216C106.481 86.3466 107.172 86.1591 107.96 86.1591C108.748 86.1591 109.438 86.3466 110.028 86.7216C110.623 87.0966 111.085 87.6231 111.415 88.3011C111.748 88.9792 111.915 89.7727 111.915 90.6818C111.915 91.5833 111.748 92.3712 111.415 93.0455C111.085 93.7197 110.623 94.2443 110.028 94.6193C109.438 94.9943 108.748 95.1818 107.96 95.1818ZM107.96 93.9773C108.559 93.9773 109.051 93.8239 109.438 93.517C109.824 93.2102 110.11 92.8068 110.295 92.3068C110.481 91.8068 110.574 91.2652 110.574 90.6818C110.574 90.0985 110.481 89.5549 110.295 89.0511C110.11 88.5473 109.824 88.1402 109.438 87.8295C109.051 87.5189 108.559 87.3636 107.96 87.3636C107.362 87.3636 106.869 87.5189 106.483 87.8295C106.097 88.1402 105.811 88.5473 105.625 89.0511C105.439 89.5549 105.347 90.0985 105.347 90.6818C105.347 91.2652 105.439 91.8068 105.625 92.3068C105.811 92.8068 106.097 93.2102 106.483 93.517C106.869 93.8239 107.362 93.9773 107.96 93.9773ZM119.462 91.4318V86.2727H120.803V95H119.462V93.5227H119.371C119.166 93.9659 118.848 94.3428 118.416 94.6534C117.984 94.9602 117.439 95.1136 116.78 95.1136C116.234 95.1136 115.75 94.9943 115.325 94.7557C114.901 94.5133 114.568 94.1496 114.325 93.6648C114.083 93.1761 113.962 92.5606 113.962 91.8182V86.2727H115.303V91.7273C115.303 92.3636 115.481 92.8712 115.837 93.25C116.196 93.6288 116.655 93.8182 117.212 93.8182C117.545 93.8182 117.884 93.733 118.229 93.5625C118.577 93.392 118.869 93.1307 119.104 92.7784C119.342 92.4261 119.462 91.9773 119.462 91.4318ZM123.259 95V86.2727H124.554V87.5909H124.645C124.804 87.1591 125.092 86.8087 125.509 86.5398C125.925 86.2708 126.395 86.1364 126.918 86.1364C127.016 86.1364 127.139 86.1383 127.287 86.142C127.435 86.1458 127.546 86.1515 127.622 86.1591V87.5227C127.577 87.5114 127.473 87.4943 127.31 87.4716C127.151 87.4451 126.982 87.4318 126.804 87.4318C126.38 87.4318 126.001 87.5208 125.668 87.6989C125.338 87.8731 125.077 88.1155 124.884 88.4261C124.694 88.733 124.599 89.0833 124.599 89.4773V95H123.259ZM133.712 98.2727V86.2727H135.007V87.6591H135.166C135.265 87.5076 135.401 87.3144 135.575 87.0795C135.753 86.8409 136.007 86.6288 136.337 86.4432C136.67 86.2538 137.121 86.1591 137.689 86.1591C138.424 86.1591 139.071 86.3428 139.632 86.7102C140.193 87.0777 140.63 87.5985 140.945 88.2727C141.259 88.947 141.416 89.7424 141.416 90.6591C141.416 91.5833 141.259 92.3845 140.945 93.0625C140.63 93.7367 140.195 94.2595 139.638 94.6307C139.081 94.9981 138.439 95.1818 137.712 95.1818C137.151 95.1818 136.702 95.089 136.365 94.9034C136.028 94.714 135.768 94.5 135.587 94.2614C135.405 94.0189 135.265 93.8182 135.166 93.6591H135.053V98.2727H133.712ZM135.03 90.6364C135.03 91.2955 135.126 91.8769 135.32 92.3807C135.513 92.8807 135.795 93.2727 136.166 93.5568C136.537 93.8371 136.992 93.9773 137.53 93.9773C138.09 93.9773 138.558 93.8295 138.933 93.5341C139.312 93.2348 139.596 92.8333 139.786 92.3295C139.979 91.822 140.075 91.2576 140.075 90.6364C140.075 90.0227 139.981 89.4697 139.791 88.9773C139.606 88.4811 139.323 88.089 138.945 87.8011C138.57 87.5095 138.098 87.3636 137.53 87.3636C136.984 87.3636 136.526 87.5019 136.155 87.7784C135.784 88.0511 135.503 88.4337 135.314 88.9261C135.125 89.4148 135.03 89.9848 135.03 90.6364ZM146.03 95.2045C145.477 95.2045 144.975 95.1004 144.524 94.892C144.073 94.6799 143.715 94.375 143.45 93.9773C143.185 93.5758 143.053 93.0909 143.053 92.5227C143.053 92.0227 143.151 91.6174 143.348 91.3068C143.545 90.9924 143.808 90.7462 144.138 90.5682C144.467 90.3902 144.831 90.2576 145.229 90.1705C145.63 90.0795 146.034 90.0076 146.439 89.9545C146.969 89.8864 147.399 89.8352 147.729 89.8011C148.062 89.7633 148.304 89.7008 148.456 89.6136C148.611 89.5265 148.689 89.375 148.689 89.1591V89.1136C148.689 88.553 148.536 88.1174 148.229 87.8068C147.926 87.4962 147.465 87.3409 146.848 87.3409C146.208 87.3409 145.706 87.4811 145.342 87.7614C144.979 88.0417 144.723 88.3409 144.575 88.6591L143.303 88.2045C143.53 87.6742 143.833 87.2614 144.212 86.9659C144.594 86.6667 145.011 86.4583 145.462 86.3409C145.916 86.2197 146.363 86.1591 146.803 86.1591C147.083 86.1591 147.405 86.1932 147.768 86.2614C148.136 86.3258 148.49 86.4602 148.831 86.6648C149.176 86.8693 149.462 87.178 149.689 87.5909C149.916 88.0038 150.03 88.5568 150.03 89.25V95H148.689V93.8182H148.621C148.53 94.0076 148.378 94.2102 148.166 94.4261C147.954 94.642 147.672 94.8258 147.32 94.9773C146.967 95.1288 146.537 95.2045 146.03 95.2045ZM146.234 94C146.765 94 147.212 93.8958 147.575 93.6875C147.943 93.4792 148.219 93.2102 148.405 92.8807C148.594 92.5511 148.689 92.2045 148.689 91.8409V90.6136C148.632 90.6818 148.507 90.7443 148.314 90.8011C148.125 90.8542 147.905 90.9015 147.655 90.9432C147.409 90.9811 147.168 91.0152 146.933 91.0455C146.702 91.072 146.515 91.0947 146.371 91.1136C146.022 91.1591 145.696 91.233 145.393 91.3352C145.094 91.4337 144.852 91.5833 144.666 91.7841C144.484 91.9811 144.393 92.25 144.393 92.5909C144.393 93.0568 144.566 93.4091 144.911 93.6477C145.259 93.8826 145.7 94 146.234 94ZM158.659 88.2273L157.455 88.5682C157.379 88.3674 157.267 88.1723 157.119 87.983C156.975 87.7898 156.778 87.6307 156.528 87.5057C156.278 87.3807 155.958 87.3182 155.568 87.3182C155.034 87.3182 154.589 87.4413 154.233 87.6875C153.881 87.9299 153.705 88.2386 153.705 88.6136C153.705 88.947 153.826 89.2102 154.068 89.4034C154.311 89.5966 154.689 89.7576 155.205 89.8864L156.5 90.2045C157.28 90.3939 157.862 90.6837 158.244 91.0739C158.627 91.4602 158.818 91.9583 158.818 92.5682C158.818 93.0682 158.674 93.5152 158.386 93.9091C158.102 94.303 157.705 94.6136 157.193 94.8409C156.682 95.0682 156.087 95.1818 155.409 95.1818C154.519 95.1818 153.782 94.9886 153.199 94.6023C152.616 94.2159 152.246 93.6515 152.091 92.9091L153.364 92.5909C153.485 93.0606 153.714 93.4129 154.051 93.6477C154.392 93.8826 154.837 94 155.386 94C156.011 94 156.508 93.8674 156.875 93.6023C157.246 93.3333 157.432 93.0114 157.432 92.6364C157.432 92.3333 157.326 92.0795 157.114 91.875C156.902 91.6667 156.576 91.5114 156.136 91.4091L154.682 91.0682C153.883 90.8788 153.295 90.5852 152.92 90.1875C152.549 89.786 152.364 89.2841 152.364 88.6818C152.364 88.1894 152.502 87.7538 152.778 87.375C153.059 86.9962 153.439 86.6989 153.92 86.483C154.405 86.267 154.955 86.1591 155.568 86.1591C156.432 86.1591 157.11 86.3485 157.602 86.7273C158.098 87.1061 158.451 87.6061 158.659 88.2273ZM167.018 88.2273L165.814 88.5682C165.738 88.3674 165.626 88.1723 165.479 87.983C165.335 87.7898 165.138 87.6307 164.888 87.5057C164.638 87.3807 164.318 87.3182 163.928 87.3182C163.393 87.3182 162.948 87.4413 162.592 87.6875C162.24 87.9299 162.064 88.2386 162.064 88.6136C162.064 88.947 162.185 89.2102 162.428 89.4034C162.67 89.5966 163.049 89.7576 163.564 89.8864L164.859 90.2045C165.64 90.3939 166.221 90.6837 166.604 91.0739C166.986 91.4602 167.178 91.9583 167.178 92.5682C167.178 93.0682 167.034 93.5152 166.746 93.9091C166.462 94.303 166.064 94.6136 165.553 94.8409C165.041 95.0682 164.446 95.1818 163.768 95.1818C162.878 95.1818 162.142 94.9886 161.558 94.6023C160.975 94.2159 160.606 93.6515 160.45 92.9091L161.723 92.5909C161.844 93.0606 162.073 93.4129 162.411 93.6477C162.751 93.8826 163.196 94 163.746 94C164.371 94 164.867 93.8674 165.234 93.6023C165.606 93.3333 165.791 93.0114 165.791 92.6364C165.791 92.3333 165.685 92.0795 165.473 91.875C165.261 91.6667 164.935 91.5114 164.496 91.4091L163.041 91.0682C162.242 90.8788 161.655 90.5852 161.28 90.1875C160.909 89.786 160.723 89.2841 160.723 88.6818C160.723 88.1894 160.861 87.7538 161.138 87.375C161.418 86.9962 161.799 86.6989 162.28 86.483C162.765 86.267 163.314 86.1591 163.928 86.1591C164.791 86.1591 165.469 86.3485 165.962 86.7273C166.458 87.1061 166.81 87.6061 167.018 88.2273ZM171.173 95L168.514 86.2727H169.923L171.81 92.9545H171.901L173.764 86.2727H175.196L177.037 92.9318H177.128L179.014 86.2727H180.423L177.764 95H176.446L174.537 88.2955H174.401L172.491 95H171.173ZM185.445 95.1818C184.657 95.1818 183.965 94.9943 183.371 94.6193C182.78 94.2443 182.318 93.7197 181.984 93.0455C181.655 92.3712 181.49 91.5833 181.49 90.6818C181.49 89.7727 181.655 88.9792 181.984 88.3011C182.318 87.6231 182.78 87.0966 183.371 86.7216C183.965 86.3466 184.657 86.1591 185.445 86.1591C186.232 86.1591 186.922 86.3466 187.513 86.7216C188.107 87.0966 188.57 87.6231 188.899 88.3011C189.232 88.9792 189.399 89.7727 189.399 90.6818C189.399 91.5833 189.232 92.3712 188.899 93.0455C188.57 93.7197 188.107 94.2443 187.513 94.6193C186.922 94.9943 186.232 95.1818 185.445 95.1818ZM185.445 93.9773C186.043 93.9773 186.536 93.8239 186.922 93.517C187.308 93.2102 187.594 92.8068 187.78 92.3068C187.965 91.8068 188.058 91.2652 188.058 90.6818C188.058 90.0985 187.965 89.5549 187.78 89.0511C187.594 88.5473 187.308 88.1402 186.922 87.8295C186.536 87.5189 186.043 87.3636 185.445 87.3636C184.846 87.3636 184.354 87.5189 183.967 87.8295C183.581 88.1402 183.295 88.5473 183.109 89.0511C182.924 89.5549 182.831 90.0985 182.831 90.6818C182.831 91.2652 182.924 91.8068 183.109 92.3068C183.295 92.8068 183.581 93.2102 183.967 93.517C184.354 93.8239 184.846 93.9773 185.445 93.9773ZM191.446 95V86.2727H192.741V87.5909H192.832C192.991 87.1591 193.279 86.8087 193.696 86.5398C194.113 86.2708 194.582 86.1364 195.105 86.1364C195.204 86.1364 195.327 86.1383 195.474 86.142C195.622 86.1458 195.734 86.1515 195.81 86.1591V87.5227C195.764 87.5114 195.66 87.4943 195.497 87.4716C195.338 87.4451 195.17 87.4318 194.991 87.4318C194.567 87.4318 194.188 87.5208 193.855 87.6989C193.526 87.8731 193.264 88.1155 193.071 88.4261C192.882 88.733 192.787 89.0833 192.787 89.4773V95H191.446ZM200.429 95.1818C199.702 95.1818 199.06 94.9981 198.503 94.6307C197.946 94.2595 197.51 93.7367 197.196 93.0625C196.882 92.3845 196.724 91.5833 196.724 90.6591C196.724 89.7424 196.882 88.947 197.196 88.2727C197.51 87.5985 197.948 87.0777 198.509 86.7102C199.069 86.3428 199.717 86.1591 200.452 86.1591C201.02 86.1591 201.469 86.2538 201.798 86.4432C202.132 86.6288 202.385 86.8409 202.56 87.0795C202.738 87.3144 202.876 87.5076 202.974 87.6591H203.088V83.3636H204.429V95H203.134V93.6591H202.974C202.876 93.8182 202.736 94.0189 202.554 94.2614C202.372 94.5 202.113 94.714 201.776 94.9034C201.438 95.089 200.99 95.1818 200.429 95.1818ZM200.611 93.9773C201.149 93.9773 201.603 93.8371 201.974 93.5568C202.346 93.2727 202.628 92.8807 202.821 92.3807C203.014 91.8769 203.111 91.2955 203.111 90.6364C203.111 89.9848 203.016 89.4148 202.827 88.9261C202.637 88.4337 202.357 88.0511 201.986 87.7784C201.615 87.5019 201.156 87.3636 200.611 87.3636C200.043 87.3636 199.569 87.5095 199.19 87.8011C198.815 88.089 198.533 88.4811 198.344 88.9773C198.158 89.4697 198.065 90.0227 198.065 90.6364C198.065 91.2576 198.16 91.822 198.349 92.3295C198.543 92.8333 198.827 93.2348 199.202 93.5341C199.58 93.8295 200.05 93.9773 200.611 93.9773ZM208.821 91.7273V91.6591C208.829 90.9356 208.904 90.3598 209.048 89.9318C209.192 89.5038 209.397 89.1572 209.662 88.892C209.927 88.6269 210.245 88.3826 210.616 88.1591C210.84 88.0227 211.041 87.8617 211.219 87.6761C211.397 87.4867 211.537 87.2689 211.639 87.0227C211.745 86.7765 211.798 86.5038 211.798 86.2045C211.798 85.8333 211.711 85.5114 211.537 85.2386C211.363 84.9659 211.13 84.7557 210.838 84.608C210.546 84.4602 210.223 84.3864 209.866 84.3864C209.556 84.3864 209.257 84.4508 208.969 84.5795C208.681 84.7083 208.44 84.911 208.247 85.1875C208.054 85.464 207.942 85.8258 207.912 86.2727H206.48C206.51 85.6288 206.677 85.0777 206.98 84.6193C207.287 84.161 207.69 83.8106 208.19 83.5682C208.694 83.3258 209.253 83.2045 209.866 83.2045C210.533 83.2045 211.113 83.3371 211.605 83.6023C212.101 83.8674 212.484 84.2311 212.753 84.6932C213.026 85.1553 213.162 85.6818 213.162 86.2727C213.162 86.6894 213.098 87.0663 212.969 87.4034C212.844 87.7405 212.662 88.0417 212.423 88.3068C212.188 88.572 211.904 88.8068 211.571 89.0114C211.238 89.2197 210.971 89.4394 210.77 89.6705C210.569 89.8977 210.423 90.1686 210.332 90.483C210.241 90.7973 210.192 91.1894 210.185 91.6591V91.7273H208.821ZM209.548 95.0909C209.268 95.0909 209.027 94.9905 208.827 94.7898C208.626 94.589 208.526 94.3485 208.526 94.0682C208.526 93.7879 208.626 93.5473 208.827 93.3466C209.027 93.1458 209.268 93.0455 209.548 93.0455C209.829 93.0455 210.069 93.1458 210.27 93.3466C210.471 93.5473 210.571 93.7879 210.571 94.0682C210.571 94.2538 210.524 94.4242 210.429 94.5795C210.338 94.7348 210.215 94.8598 210.06 94.9545C209.908 95.0455 209.738 95.0909 209.548 95.0909Z" fill="black"/>
</svg>
