<svg width="247" height="355" viewBox="0 0 247 355" fill="none" xmlns="http://www.w3.org/2000/svg">
<rect x="1" y="1" width="245" height="353" rx="8" fill="white"/>
<rect x="1" y="1" width="245" height="353" rx="8" stroke="black"/>
<rect x="21.5" y="246.5" width="203" height="37" rx="9.5" fill="black" stroke="black"/>
<path d="M104.023 271H100.433V259.364H104.183C105.311 259.364 106.277 259.597 107.08 260.062C107.883 260.525 108.499 261.189 108.927 262.057C109.355 262.92 109.569 263.955 109.569 265.159C109.569 266.371 109.353 267.415 108.921 268.29C108.489 269.161 107.861 269.831 107.035 270.301C106.209 270.767 105.205 271 104.023 271ZM101.842 269.75H103.933C104.895 269.75 105.692 269.564 106.325 269.193C106.957 268.822 107.429 268.294 107.739 267.608C108.05 266.922 108.205 266.106 108.205 265.159C108.205 264.22 108.052 263.411 107.745 262.733C107.438 262.051 106.98 261.528 106.37 261.165C105.76 260.797 105.001 260.614 104.092 260.614H101.842V269.75ZM115.41 271.182C114.569 271.182 113.844 270.996 113.234 270.625C112.628 270.25 112.16 269.727 111.83 269.057C111.504 268.383 111.342 267.598 111.342 266.705C111.342 265.811 111.504 265.023 111.83 264.341C112.16 263.655 112.618 263.121 113.205 262.739C113.796 262.352 114.486 262.159 115.273 262.159C115.728 262.159 116.177 262.235 116.62 262.386C117.063 262.538 117.467 262.784 117.83 263.125C118.194 263.462 118.484 263.909 118.7 264.466C118.915 265.023 119.023 265.708 119.023 266.523V267.091H112.296V265.932H117.66C117.66 265.439 117.561 265 117.364 264.614C117.171 264.227 116.895 263.922 116.535 263.699C116.179 263.475 115.758 263.364 115.273 263.364C114.739 263.364 114.277 263.496 113.887 263.761C113.501 264.023 113.203 264.364 112.995 264.784C112.787 265.205 112.683 265.655 112.683 266.136V266.909C112.683 267.568 112.796 268.127 113.023 268.585C113.254 269.04 113.575 269.386 113.984 269.625C114.393 269.86 114.868 269.977 115.41 269.977C115.762 269.977 116.08 269.928 116.364 269.83C116.652 269.727 116.9 269.576 117.109 269.375C117.317 269.17 117.478 268.917 117.592 268.614L118.887 268.977C118.751 269.417 118.522 269.803 118.2 270.136C117.878 270.466 117.48 270.723 117.006 270.909C116.533 271.091 116.001 271.182 115.41 271.182ZM122.404 259.364V271H121.063V259.364H122.404ZM128.519 271.182C127.678 271.182 126.953 270.996 126.343 270.625C125.737 270.25 125.269 269.727 124.94 269.057C124.614 268.383 124.451 267.598 124.451 266.705C124.451 265.811 124.614 265.023 124.94 264.341C125.269 263.655 125.728 263.121 126.315 262.739C126.906 262.352 127.595 262.159 128.383 262.159C128.837 262.159 129.286 262.235 129.729 262.386C130.173 262.538 130.576 262.784 130.94 263.125C131.303 263.462 131.593 263.909 131.809 264.466C132.025 265.023 132.133 265.708 132.133 266.523V267.091H125.406V265.932H130.769C130.769 265.439 130.671 265 130.474 264.614C130.281 264.227 130.004 263.922 129.644 263.699C129.288 263.475 128.868 263.364 128.383 263.364C127.849 263.364 127.387 263.496 126.996 263.761C126.61 264.023 126.313 264.364 126.104 264.784C125.896 265.205 125.792 265.655 125.792 266.136V266.909C125.792 267.568 125.906 268.127 126.133 268.585C126.364 269.04 126.684 269.386 127.093 269.625C127.502 269.86 127.978 269.977 128.519 269.977C128.871 269.977 129.19 269.928 129.474 269.83C129.762 269.727 130.01 269.576 130.218 269.375C130.426 269.17 130.587 268.917 130.701 268.614L131.996 268.977C131.86 269.417 131.631 269.803 131.309 270.136C130.987 270.466 130.589 270.723 130.116 270.909C129.642 271.091 129.11 271.182 128.519 271.182ZM137.968 262.273V263.409H133.445V262.273H137.968ZM134.763 260.182H136.104V268.5C136.104 268.879 136.159 269.163 136.269 269.352C136.383 269.538 136.527 269.663 136.701 269.727C136.879 269.788 137.067 269.818 137.263 269.818C137.411 269.818 137.532 269.811 137.627 269.795C137.722 269.777 137.798 269.761 137.854 269.75L138.127 270.955C138.036 270.989 137.909 271.023 137.746 271.057C137.584 271.095 137.377 271.114 137.127 271.114C136.748 271.114 136.377 271.032 136.013 270.869C135.654 270.706 135.354 270.458 135.116 270.125C134.881 269.792 134.763 269.371 134.763 268.864V260.182ZM143.55 271.182C142.71 271.182 141.984 270.996 141.374 270.625C140.768 270.25 140.3 269.727 139.971 269.057C139.645 268.383 139.482 267.598 139.482 266.705C139.482 265.811 139.645 265.023 139.971 264.341C140.3 263.655 140.759 263.121 141.346 262.739C141.937 262.352 142.626 262.159 143.414 262.159C143.869 262.159 144.317 262.235 144.761 262.386C145.204 262.538 145.607 262.784 145.971 263.125C146.335 263.462 146.624 263.909 146.84 264.466C147.056 265.023 147.164 265.708 147.164 266.523V267.091H140.437V265.932H145.8C145.8 265.439 145.702 265 145.505 264.614C145.312 264.227 145.035 263.922 144.675 263.699C144.319 263.475 143.899 263.364 143.414 263.364C142.88 263.364 142.418 263.496 142.028 263.761C141.641 264.023 141.344 264.364 141.136 264.784C140.927 265.205 140.823 265.655 140.823 266.136V266.909C140.823 267.568 140.937 268.127 141.164 268.585C141.395 269.04 141.715 269.386 142.124 269.625C142.533 269.86 143.009 269.977 143.55 269.977C143.903 269.977 144.221 269.928 144.505 269.83C144.793 269.727 145.041 269.576 145.249 269.375C145.458 269.17 145.619 268.917 145.732 268.614L147.028 268.977C146.891 269.417 146.662 269.803 146.34 270.136C146.018 270.466 145.621 270.723 145.147 270.909C144.674 271.091 144.141 271.182 143.55 271.182Z" fill="#D4D4D4"/>
<path d="M108.241 312H106.832C106.749 311.595 106.603 311.239 106.395 310.932C106.19 310.625 105.94 310.367 105.645 310.159C105.353 309.947 105.029 309.788 104.673 309.682C104.317 309.576 103.946 309.523 103.56 309.523C102.855 309.523 102.217 309.701 101.645 310.057C101.077 310.413 100.624 310.938 100.287 311.631C99.9536 312.324 99.7869 313.174 99.7869 314.182C99.7869 315.189 99.9536 316.04 100.287 316.733C100.624 317.426 101.077 317.951 101.645 318.307C102.217 318.663 102.855 318.841 103.56 318.841C103.946 318.841 104.317 318.788 104.673 318.682C105.029 318.576 105.353 318.419 105.645 318.21C105.94 317.998 106.19 317.739 106.395 317.432C106.603 317.121 106.749 316.765 106.832 316.364H108.241C108.135 316.958 107.942 317.491 107.662 317.96C107.382 318.43 107.033 318.83 106.616 319.159C106.2 319.485 105.732 319.733 105.213 319.903C104.698 320.074 104.147 320.159 103.56 320.159C102.567 320.159 101.685 319.917 100.912 319.432C100.139 318.947 99.5313 318.258 99.0881 317.364C98.6449 316.47 98.4233 315.409 98.4233 314.182C98.4233 312.955 98.6449 311.894 99.0881 311C99.5313 310.106 100.139 309.417 100.912 308.932C101.685 308.447 102.567 308.205 103.56 308.205C104.147 308.205 104.698 308.29 105.213 308.46C105.732 308.631 106.2 308.881 106.616 309.21C107.033 309.536 107.382 309.934 107.662 310.403C107.942 310.869 108.135 311.402 108.241 312ZM112.905 320.205C112.352 320.205 111.85 320.1 111.399 319.892C110.948 319.68 110.59 319.375 110.325 318.977C110.06 318.576 109.928 318.091 109.928 317.523C109.928 317.023 110.026 316.617 110.223 316.307C110.42 315.992 110.683 315.746 111.013 315.568C111.342 315.39 111.706 315.258 112.104 315.17C112.505 315.08 112.909 315.008 113.314 314.955C113.844 314.886 114.274 314.835 114.604 314.801C114.937 314.763 115.179 314.701 115.331 314.614C115.486 314.527 115.564 314.375 115.564 314.159V314.114C115.564 313.553 115.411 313.117 115.104 312.807C114.801 312.496 114.34 312.341 113.723 312.341C113.083 312.341 112.581 312.481 112.217 312.761C111.854 313.042 111.598 313.341 111.45 313.659L110.178 313.205C110.405 312.674 110.708 312.261 111.087 311.966C111.469 311.667 111.886 311.458 112.337 311.341C112.791 311.22 113.238 311.159 113.678 311.159C113.958 311.159 114.28 311.193 114.643 311.261C115.011 311.326 115.365 311.46 115.706 311.665C116.051 311.869 116.337 312.178 116.564 312.591C116.791 313.004 116.905 313.557 116.905 314.25V320H115.564V318.818H115.496C115.405 319.008 115.253 319.21 115.041 319.426C114.829 319.642 114.547 319.826 114.195 319.977C113.842 320.129 113.412 320.205 112.905 320.205ZM113.109 319C113.64 319 114.087 318.896 114.45 318.688C114.818 318.479 115.094 318.21 115.28 317.881C115.469 317.551 115.564 317.205 115.564 316.841V315.614C115.507 315.682 115.382 315.744 115.189 315.801C115 315.854 114.78 315.902 114.53 315.943C114.284 315.981 114.043 316.015 113.808 316.045C113.577 316.072 113.39 316.095 113.246 316.114C112.897 316.159 112.571 316.233 112.268 316.335C111.969 316.434 111.727 316.583 111.541 316.784C111.359 316.981 111.268 317.25 111.268 317.591C111.268 318.057 111.441 318.409 111.786 318.648C112.134 318.883 112.575 319 113.109 319ZM120.693 314.75V320H119.352V311.273H120.648V312.636H120.761C120.966 312.193 121.277 311.837 121.693 311.568C122.11 311.295 122.648 311.159 123.307 311.159C123.898 311.159 124.415 311.28 124.858 311.523C125.301 311.761 125.646 312.125 125.892 312.614C126.138 313.098 126.261 313.712 126.261 314.455V320H124.92V314.545C124.92 313.86 124.742 313.326 124.386 312.943C124.03 312.557 123.542 312.364 122.92 312.364C122.492 312.364 122.11 312.456 121.773 312.642C121.439 312.828 121.176 313.098 120.983 313.455C120.79 313.811 120.693 314.242 120.693 314.75ZM132.257 320.182C131.439 320.182 130.734 319.989 130.143 319.602C129.553 319.216 129.098 318.684 128.78 318.006C128.462 317.328 128.303 316.553 128.303 315.682C128.303 314.795 128.465 314.013 128.791 313.335C129.121 312.653 129.579 312.121 130.166 311.739C130.757 311.352 131.446 311.159 132.234 311.159C132.848 311.159 133.401 311.273 133.893 311.5C134.386 311.727 134.789 312.045 135.104 312.455C135.418 312.864 135.613 313.341 135.689 313.886H134.348C134.246 313.489 134.018 313.136 133.666 312.83C133.318 312.519 132.848 312.364 132.257 312.364C131.734 312.364 131.276 312.5 130.882 312.773C130.492 313.042 130.187 313.422 129.967 313.915C129.751 314.403 129.643 314.977 129.643 315.636C129.643 316.311 129.75 316.898 129.962 317.398C130.178 317.898 130.481 318.286 130.871 318.562C131.265 318.839 131.727 318.977 132.257 318.977C132.606 318.977 132.922 318.917 133.206 318.795C133.49 318.674 133.731 318.5 133.928 318.273C134.125 318.045 134.265 317.773 134.348 317.455H135.689C135.613 317.97 135.426 318.434 135.126 318.847C134.831 319.256 134.439 319.581 133.95 319.824C133.465 320.062 132.901 320.182 132.257 320.182ZM141.308 320.182C140.467 320.182 139.742 319.996 139.132 319.625C138.526 319.25 138.058 318.727 137.729 318.057C137.403 317.383 137.24 316.598 137.24 315.705C137.24 314.811 137.403 314.023 137.729 313.341C138.058 312.655 138.517 312.121 139.104 311.739C139.695 311.352 140.384 311.159 141.172 311.159C141.626 311.159 142.075 311.235 142.518 311.386C142.962 311.538 143.365 311.784 143.729 312.125C144.092 312.462 144.382 312.909 144.598 313.466C144.814 314.023 144.922 314.708 144.922 315.523V316.091H138.195V314.932H143.558C143.558 314.439 143.46 314 143.263 313.614C143.07 313.227 142.793 312.922 142.433 312.699C142.077 312.475 141.657 312.364 141.172 312.364C140.638 312.364 140.176 312.496 139.786 312.761C139.399 313.023 139.102 313.364 138.893 313.784C138.685 314.205 138.581 314.655 138.581 315.136V315.909C138.581 316.568 138.695 317.127 138.922 317.585C139.153 318.04 139.473 318.386 139.882 318.625C140.291 318.86 140.767 318.977 141.308 318.977C141.661 318.977 141.979 318.928 142.263 318.83C142.551 318.727 142.799 318.576 143.007 318.375C143.215 318.17 143.376 317.917 143.49 317.614L144.786 317.977C144.649 318.417 144.42 318.803 144.098 319.136C143.776 319.466 143.378 319.723 142.905 319.909C142.431 320.091 141.899 320.182 141.308 320.182ZM148.303 308.364V320H146.962V308.364H148.303Z" fill="black"/>
<rect x="21.5" y="295.5" width="203" height="37" rx="9.5" stroke="black"/>
<circle cx="123.462" cy="107.462" r="32.5" stroke="black"/>
<path d="M99.981 130.943L145.943 84.981" stroke="black"/>
<path d="M145.943 130.943L99.981 84.981" stroke="black"/>
<path d="M72.8828 37H69.2919V25.3636H73.0419C74.1707 25.3636 75.1366 25.5966 75.9396 26.0625C76.7427 26.5246 77.3582 27.1894 77.7862 28.0568C78.2143 28.9205 78.4283 29.9545 78.4283 31.1591C78.4283 32.3712 78.2124 33.4148 77.7805 34.2898C77.3487 35.161 76.7199 35.8314 75.8942 36.3011C75.0684 36.767 74.0646 37 72.8828 37ZM70.701 35.75H72.7919C73.754 35.75 74.5514 35.5644 75.1839 35.1932C75.8165 34.822 76.2881 34.2936 76.5987 33.608C76.9093 32.9223 77.0646 32.1061 77.0646 31.1591C77.0646 30.2197 76.9112 29.411 76.6044 28.733C76.2976 28.0511 75.8393 27.5284 75.2294 27.1648C74.6196 26.7973 73.8601 26.6136 72.951 26.6136H70.701V35.75ZM84.2692 37.1818C83.4283 37.1818 82.7029 36.9962 82.093 36.625C81.487 36.25 81.0192 35.7273 80.6896 35.0568C80.3639 34.3826 80.201 33.5985 80.201 32.7045C80.201 31.8106 80.3639 31.0227 80.6896 30.3409C81.0192 29.6553 81.4775 29.1212 82.0646 28.7386C82.6555 28.3523 83.3449 28.1591 84.1328 28.1591C84.5874 28.1591 85.0362 28.2348 85.4794 28.3864C85.9226 28.5379 86.326 28.7841 86.6896 29.125C87.0533 29.4621 87.343 29.9091 87.5589 30.4659C87.7749 31.0227 87.8828 31.7083 87.8828 32.5227V33.0909H81.1555V31.9318H86.5192C86.5192 31.4394 86.4207 31 86.2237 30.6136C86.0305 30.2273 85.754 29.9223 85.3942 29.6989C85.0381 29.4754 84.6177 29.3636 84.1328 29.3636C83.5987 29.3636 83.1366 29.4962 82.7464 29.7614C82.3601 30.0227 82.0627 30.3636 81.8544 30.7841C81.6461 31.2045 81.5419 31.6553 81.5419 32.1364V32.9091C81.5419 33.5682 81.6555 34.1269 81.8828 34.5852C82.1139 35.0398 82.4339 35.3864 82.843 35.625C83.2521 35.8598 83.7275 35.9773 84.2692 35.9773C84.6214 35.9773 84.9396 35.928 85.2237 35.8295C85.5116 35.7273 85.7597 35.5758 85.968 35.375C86.1764 35.1705 86.3374 34.9167 86.451 34.6136L87.7464 34.9773C87.6101 35.4167 87.3809 35.803 87.0589 36.1364C86.737 36.4659 86.3393 36.7235 85.8658 36.9091C85.3923 37.0909 84.8601 37.1818 84.2692 37.1818ZM91.2635 25.3636V37H89.9226V25.3636H91.2635ZM97.3786 37.1818C96.5376 37.1818 95.8123 36.9962 95.2024 36.625C94.5964 36.25 94.1286 35.7273 93.799 35.0568C93.4732 34.3826 93.3104 33.5985 93.3104 32.7045C93.3104 31.8106 93.4732 31.0227 93.799 30.3409C94.1286 29.6553 94.5869 29.1212 95.174 28.7386C95.7649 28.3523 96.4543 28.1591 97.2422 28.1591C97.6967 28.1591 98.1456 28.2348 98.5888 28.3864C99.032 28.5379 99.4354 28.7841 99.799 29.125C100.163 29.4621 100.452 29.9091 100.668 30.4659C100.884 31.0227 100.992 31.7083 100.992 32.5227V33.0909H94.2649V31.9318H99.6286C99.6286 31.4394 99.5301 31 99.3331 30.6136C99.1399 30.2273 98.8634 29.9223 98.5036 29.6989C98.1475 29.4754 97.727 29.3636 97.2422 29.3636C96.7081 29.3636 96.246 29.4962 95.8558 29.7614C95.4695 30.0227 95.1721 30.3636 94.9638 30.7841C94.7554 31.2045 94.6513 31.6553 94.6513 32.1364V32.9091C94.6513 33.5682 94.7649 34.1269 94.9922 34.5852C95.2232 35.0398 95.5433 35.3864 95.9524 35.625C96.3615 35.8598 96.8369 35.9773 97.3786 35.9773C97.7308 35.9773 98.049 35.928 98.3331 35.8295C98.621 35.7273 98.8691 35.5758 99.0774 35.375C99.2857 35.1705 99.4467 34.9167 99.5604 34.6136L100.856 34.9773C100.719 35.4167 100.49 35.803 100.168 36.1364C99.8464 36.4659 99.4486 36.7235 98.9751 36.9091C98.5017 37.0909 97.9695 37.1818 97.3786 37.1818ZM106.827 28.2727V29.4091H102.305V28.2727H106.827ZM103.623 26.1818H104.964V34.5C104.964 34.8788 105.019 35.1629 105.129 35.3523C105.242 35.5379 105.386 35.6629 105.56 35.7273C105.738 35.7879 105.926 35.8182 106.123 35.8182C106.271 35.8182 106.392 35.8106 106.487 35.7955C106.581 35.7765 106.657 35.7614 106.714 35.75L106.987 36.9545C106.896 36.9886 106.769 37.0227 106.606 37.0568C106.443 37.0947 106.237 37.1136 105.987 37.1136C105.608 37.1136 105.237 37.0322 104.873 36.8693C104.513 36.7064 104.214 36.4583 103.975 36.125C103.74 35.7917 103.623 35.3712 103.623 34.8636V26.1818ZM112.41 37.1818C111.569 37.1818 110.844 36.9962 110.234 36.625C109.628 36.25 109.16 35.7273 108.83 35.0568C108.504 34.3826 108.342 33.5985 108.342 32.7045C108.342 31.8106 108.504 31.0227 108.83 30.3409C109.16 29.6553 109.618 29.1212 110.205 28.7386C110.796 28.3523 111.486 28.1591 112.273 28.1591C112.728 28.1591 113.177 28.2348 113.62 28.3864C114.063 28.5379 114.467 28.7841 114.83 29.125C115.194 29.4621 115.484 29.9091 115.7 30.4659C115.915 31.0227 116.023 31.7083 116.023 32.5227V33.0909H109.296V31.9318H114.66C114.66 31.4394 114.561 31 114.364 30.6136C114.171 30.2273 113.895 29.9223 113.535 29.6989C113.179 29.4754 112.758 29.3636 112.273 29.3636C111.739 29.3636 111.277 29.4962 110.887 29.7614C110.501 30.0227 110.203 30.3636 109.995 30.7841C109.787 31.2045 109.683 31.6553 109.683 32.1364V32.9091C109.683 33.5682 109.796 34.1269 110.023 34.5852C110.254 35.0398 110.575 35.3864 110.984 35.625C111.393 35.8598 111.868 35.9773 112.41 35.9773C112.762 35.9773 113.08 35.928 113.364 35.8295C113.652 35.7273 113.9 35.5758 114.109 35.375C114.317 35.1705 114.478 34.9167 114.592 34.6136L115.887 34.9773C115.751 35.4167 115.522 35.803 115.2 36.1364C114.878 36.4659 114.48 36.7235 114.006 36.9091C113.533 37.0909 113.001 37.1818 112.41 37.1818ZM123.222 37H121.745L126.018 25.3636H127.472L131.745 37H130.268L126.79 27.2045H126.7L123.222 37ZM123.768 32.4545H129.722V33.7045H123.768V32.4545ZM136.921 37.1818C136.103 37.1818 135.398 36.9886 134.808 36.6023C134.217 36.2159 133.762 35.6837 133.444 35.0057C133.126 34.3277 132.967 33.553 132.967 32.6818C132.967 31.7955 133.129 31.0133 133.455 30.3352C133.785 29.6534 134.243 29.1212 134.83 28.7386C135.421 28.3523 136.111 28.1591 136.898 28.1591C137.512 28.1591 138.065 28.2727 138.558 28.5C139.05 28.7273 139.453 29.0455 139.768 29.4545C140.082 29.8636 140.277 30.3409 140.353 30.8864H139.012C138.91 30.4886 138.683 30.1364 138.33 29.8295C137.982 29.5189 137.512 29.3636 136.921 29.3636C136.398 29.3636 135.94 29.5 135.546 29.7727C135.156 30.0417 134.851 30.4223 134.631 30.9148C134.415 31.4034 134.308 31.9773 134.308 32.6364C134.308 33.3106 134.414 33.8977 134.626 34.3977C134.842 34.8977 135.145 35.286 135.535 35.5625C135.929 35.839 136.391 35.9773 136.921 35.9773C137.27 35.9773 137.586 35.9167 137.87 35.7955C138.154 35.6742 138.395 35.5 138.592 35.2727C138.789 35.0455 138.929 34.7727 139.012 34.4545H140.353C140.277 34.9697 140.09 35.4337 139.79 35.8466C139.495 36.2557 139.103 36.5814 138.614 36.8239C138.129 37.0625 137.565 37.1818 136.921 37.1818ZM146.109 28.2727V29.4091H141.586V28.2727H146.109ZM142.904 26.1818H144.245V34.5C144.245 34.8788 144.3 35.1629 144.41 35.3523C144.523 35.5379 144.667 35.6629 144.842 35.7273C145.02 35.7879 145.207 35.8182 145.404 35.8182C145.552 35.8182 145.673 35.8106 145.768 35.7955C145.862 35.7765 145.938 35.7614 145.995 35.75L146.268 36.9545C146.177 36.9886 146.05 37.0227 145.887 37.0568C145.724 37.0947 145.518 37.1136 145.268 37.1136C144.889 37.1136 144.518 37.0322 144.154 36.8693C143.794 36.7064 143.495 36.4583 143.256 36.125C143.022 35.7917 142.904 35.3712 142.904 34.8636V26.1818ZM148.126 37V28.2727H149.467V37H148.126ZM148.808 26.8182C148.546 26.8182 148.321 26.7292 148.131 26.5511C147.946 26.3731 147.853 26.1591 147.853 25.9091C147.853 25.6591 147.946 25.4451 148.131 25.267C148.321 25.089 148.546 25 148.808 25C149.069 25 149.292 25.089 149.478 25.267C149.667 25.4451 149.762 25.6591 149.762 25.9091C149.762 26.1591 149.667 26.3731 149.478 26.5511C149.292 26.7292 149.069 26.8182 148.808 26.8182ZM159.059 28.2727L155.832 37H154.468L151.241 28.2727H152.695L155.104 35.2273H155.195L157.604 28.2727H159.059ZM160.829 37V28.2727H162.17V37H160.829ZM161.511 26.8182C161.249 26.8182 161.024 26.7292 160.835 26.5511C160.649 26.3731 160.556 26.1591 160.556 25.9091C160.556 25.6591 160.649 25.4451 160.835 25.267C161.024 25.089 161.249 25 161.511 25C161.772 25 161.996 25.089 162.181 25.267C162.371 25.4451 162.465 25.6591 162.465 25.9091C162.465 26.1591 162.371 26.3731 162.181 26.5511C161.996 26.7292 161.772 26.8182 161.511 26.8182ZM168.421 28.2727V29.4091H163.898V28.2727H168.421ZM165.217 26.1818H166.558V34.5C166.558 34.8788 166.612 35.1629 166.722 35.3523C166.836 35.5379 166.98 35.6629 167.154 35.7273C167.332 35.7879 167.52 35.8182 167.717 35.8182C167.864 35.8182 167.986 35.8106 168.08 35.7955C168.175 35.7765 168.251 35.7614 168.308 35.75L168.58 36.9545C168.489 36.9886 168.362 37.0227 168.2 37.0568C168.037 37.0947 167.83 37.1136 167.58 37.1136C167.201 37.1136 166.83 37.0322 166.467 36.8693C166.107 36.7064 165.808 36.4583 165.569 36.125C165.334 35.7917 165.217 35.3712 165.217 34.8636V26.1818ZM171.302 40.2727C171.075 40.2727 170.872 40.2538 170.694 40.2159C170.516 40.1818 170.393 40.1477 170.325 40.1136L170.665 38.9318C170.991 39.0152 171.279 39.0455 171.529 39.0227C171.779 39 172.001 38.8883 172.194 38.6875C172.391 38.4905 172.571 38.1705 172.734 37.7273L172.984 37.0455L169.756 28.2727H171.211L173.62 35.2273H173.711L176.12 28.2727H177.575L173.87 38.2727C173.703 38.7235 173.497 39.0966 173.251 39.392C173.004 39.6913 172.719 39.9129 172.393 40.0568C172.071 40.2008 171.707 40.2727 171.302 40.2727Z" fill="black"/>
<path d="M31.2031 179H27.6122V167.364H31.3622C32.491 167.364 33.4569 167.597 34.2599 168.062C35.063 168.525 35.6785 169.189 36.1065 170.057C36.5346 170.92 36.7486 171.955 36.7486 173.159C36.7486 174.371 36.5327 175.415 36.1009 176.29C35.669 177.161 35.0402 177.831 34.2145 178.301C33.3887 178.767 32.3849 179 31.2031 179ZM29.0213 177.75H31.1122C32.0743 177.75 32.8717 177.564 33.5043 177.193C34.1368 176.822 34.6084 176.294 34.919 175.608C35.2296 174.922 35.3849 174.106 35.3849 173.159C35.3849 172.22 35.2315 171.411 34.9247 170.733C34.6179 170.051 34.1596 169.528 33.5497 169.165C32.9399 168.797 32.1804 168.614 31.2713 168.614H29.0213V177.75ZM42.4759 179.182C41.688 179.182 40.9967 178.994 40.402 178.619C39.8111 178.244 39.349 177.72 39.0156 177.045C38.6861 176.371 38.5213 175.583 38.5213 174.682C38.5213 173.773 38.6861 172.979 39.0156 172.301C39.349 171.623 39.8111 171.097 40.402 170.722C40.9967 170.347 41.688 170.159 42.4759 170.159C43.2637 170.159 43.9531 170.347 44.544 170.722C45.1387 171.097 45.6009 171.623 45.9304 172.301C46.2637 172.979 46.4304 173.773 46.4304 174.682C46.4304 175.583 46.2637 176.371 45.9304 177.045C45.6009 177.72 45.1387 178.244 44.544 178.619C43.9531 178.994 43.2637 179.182 42.4759 179.182ZM42.4759 177.977C43.0743 177.977 43.5668 177.824 43.9531 177.517C44.3395 177.21 44.6255 176.807 44.8111 176.307C44.9967 175.807 45.0895 175.265 45.0895 174.682C45.0895 174.098 44.9967 173.555 44.8111 173.051C44.6255 172.547 44.3395 172.14 43.9531 171.83C43.5668 171.519 43.0743 171.364 42.4759 171.364C41.8774 171.364 41.3849 171.519 40.9986 171.83C40.6122 172.14 40.3262 172.547 40.1406 173.051C39.955 173.555 39.8622 174.098 39.8622 174.682C39.8622 175.265 39.955 175.807 40.1406 176.307C40.3262 176.807 40.6122 177.21 40.9986 177.517C41.3849 177.824 41.8774 177.977 42.4759 177.977ZM53.8409 182.273C53.6136 182.273 53.411 182.254 53.233 182.216C53.0549 182.182 52.9318 182.148 52.8636 182.114L53.2045 180.932C53.5303 181.015 53.8182 181.045 54.0682 181.023C54.3182 181 54.5398 180.888 54.733 180.688C54.9299 180.491 55.1098 180.17 55.2727 179.727L55.5227 179.045L52.2955 170.273H53.75L56.1591 177.227H56.25L58.6591 170.273H60.1136L56.4091 180.273C56.2424 180.723 56.036 181.097 55.7898 181.392C55.5436 181.691 55.2576 181.913 54.9318 182.057C54.6098 182.201 54.2462 182.273 53.8409 182.273ZM65.1165 179.182C64.3286 179.182 63.6373 178.994 63.0426 178.619C62.4517 178.244 61.9896 177.72 61.6562 177.045C61.3267 176.371 61.1619 175.583 61.1619 174.682C61.1619 173.773 61.3267 172.979 61.6562 172.301C61.9896 171.623 62.4517 171.097 63.0426 170.722C63.6373 170.347 64.3286 170.159 65.1165 170.159C65.9044 170.159 66.5938 170.347 67.1847 170.722C67.7794 171.097 68.2415 171.623 68.571 172.301C68.9044 172.979 69.071 173.773 69.071 174.682C69.071 175.583 68.9044 176.371 68.571 177.045C68.2415 177.72 67.7794 178.244 67.1847 178.619C66.5938 178.994 65.9044 179.182 65.1165 179.182ZM65.1165 177.977C65.715 177.977 66.2074 177.824 66.5938 177.517C66.9801 177.21 67.2661 176.807 67.4517 176.307C67.6373 175.807 67.7301 175.265 67.7301 174.682C67.7301 174.098 67.6373 173.555 67.4517 173.051C67.2661 172.547 66.9801 172.14 66.5938 171.83C66.2074 171.519 65.715 171.364 65.1165 171.364C64.518 171.364 64.0256 171.519 63.6392 171.83C63.2528 172.14 62.9669 172.547 62.7812 173.051C62.5956 173.555 62.5028 174.098 62.5028 174.682C62.5028 175.265 62.5956 175.807 62.7812 176.307C62.9669 176.807 63.2528 177.21 63.6392 177.517C64.0256 177.824 64.518 177.977 65.1165 177.977ZM76.6179 175.432V170.273H77.9588V179H76.6179V177.523H76.527C76.3224 177.966 76.0043 178.343 75.5724 178.653C75.1406 178.96 74.5952 179.114 73.9361 179.114C73.3906 179.114 72.9058 178.994 72.4815 178.756C72.0573 178.513 71.724 178.15 71.4815 177.665C71.2391 177.176 71.1179 176.561 71.1179 175.818V170.273H72.4588V175.727C72.4588 176.364 72.6368 176.871 72.9929 177.25C73.3527 177.629 73.8111 177.818 74.3679 177.818C74.7012 177.818 75.0402 177.733 75.3849 177.562C75.7334 177.392 76.0251 177.131 76.2599 176.778C76.4986 176.426 76.6179 175.977 76.6179 175.432ZM86.892 179L84.233 170.273H85.642L87.5284 176.955H87.6193L89.483 170.273H90.9148L92.7557 176.932H92.8466L94.733 170.273H96.142L93.483 179H92.1648L90.2557 172.295H90.1193L88.2102 179H86.892ZM100.483 179.205C99.9299 179.205 99.428 179.1 98.9773 178.892C98.5265 178.68 98.1686 178.375 97.9034 177.977C97.6383 177.576 97.5057 177.091 97.5057 176.523C97.5057 176.023 97.6042 175.617 97.8011 175.307C97.9981 174.992 98.2614 174.746 98.5909 174.568C98.9205 174.39 99.2841 174.258 99.6818 174.17C100.083 174.08 100.487 174.008 100.892 173.955C101.422 173.886 101.852 173.835 102.182 173.801C102.515 173.763 102.758 173.701 102.909 173.614C103.064 173.527 103.142 173.375 103.142 173.159V173.114C103.142 172.553 102.989 172.117 102.682 171.807C102.379 171.496 101.919 171.341 101.301 171.341C100.661 171.341 100.159 171.481 99.7955 171.761C99.4318 172.042 99.1761 172.341 99.0284 172.659L97.7557 172.205C97.983 171.674 98.286 171.261 98.6648 170.966C99.0473 170.667 99.464 170.458 99.9148 170.341C100.369 170.22 100.816 170.159 101.256 170.159C101.536 170.159 101.858 170.193 102.222 170.261C102.589 170.326 102.943 170.46 103.284 170.665C103.629 170.869 103.915 171.178 104.142 171.591C104.369 172.004 104.483 172.557 104.483 173.25V179H103.142V177.818H103.074C102.983 178.008 102.831 178.21 102.619 178.426C102.407 178.642 102.125 178.826 101.773 178.977C101.42 179.129 100.991 179.205 100.483 179.205ZM100.688 178C101.218 178 101.665 177.896 102.028 177.688C102.396 177.479 102.672 177.21 102.858 176.881C103.047 176.551 103.142 176.205 103.142 175.841V174.614C103.085 174.682 102.96 174.744 102.767 174.801C102.578 174.854 102.358 174.902 102.108 174.943C101.862 174.981 101.621 175.015 101.386 175.045C101.155 175.072 100.968 175.095 100.824 175.114C100.475 175.159 100.15 175.233 99.8466 175.335C99.5473 175.434 99.3049 175.583 99.1193 175.784C98.9375 175.981 98.8466 176.25 98.8466 176.591C98.8466 177.057 99.0189 177.409 99.3636 177.648C99.7121 177.883 100.153 178 100.688 178ZM108.271 173.75V179H106.93V170.273H108.226V171.636H108.339C108.544 171.193 108.855 170.837 109.271 170.568C109.688 170.295 110.226 170.159 110.885 170.159C111.476 170.159 111.993 170.28 112.436 170.523C112.879 170.761 113.224 171.125 113.47 171.614C113.716 172.098 113.839 172.712 113.839 173.455V179H112.499V173.545C112.499 172.86 112.321 172.326 111.964 171.943C111.608 171.557 111.12 171.364 110.499 171.364C110.071 171.364 109.688 171.456 109.351 171.642C109.018 171.828 108.754 172.098 108.561 172.455C108.368 172.811 108.271 173.242 108.271 173.75ZM120.085 170.273V171.409H115.562V170.273H120.085ZM116.881 168.182H118.222V176.5C118.222 176.879 118.277 177.163 118.386 177.352C118.5 177.538 118.644 177.663 118.818 177.727C118.996 177.788 119.184 177.818 119.381 177.818C119.528 177.818 119.65 177.811 119.744 177.795C119.839 177.777 119.915 177.761 119.972 177.75L120.244 178.955C120.153 178.989 120.027 179.023 119.864 179.057C119.701 179.095 119.494 179.114 119.244 179.114C118.866 179.114 118.494 179.032 118.131 178.869C117.771 178.706 117.472 178.458 117.233 178.125C116.998 177.792 116.881 177.371 116.881 176.864V168.182ZM130.398 170.273V171.409H125.875V170.273H130.398ZM127.193 168.182H128.534V176.5C128.534 176.879 128.589 177.163 128.699 177.352C128.813 177.538 128.956 177.663 129.131 177.727C129.309 177.788 129.496 177.818 129.693 177.818C129.841 177.818 129.962 177.811 130.057 177.795C130.152 177.777 130.227 177.761 130.284 177.75L130.557 178.955C130.466 178.989 130.339 179.023 130.176 179.057C130.013 179.095 129.807 179.114 129.557 179.114C129.178 179.114 128.807 179.032 128.443 178.869C128.083 178.706 127.784 178.458 127.545 178.125C127.311 177.792 127.193 177.371 127.193 176.864V168.182ZM135.866 179.182C135.079 179.182 134.387 178.994 133.793 178.619C133.202 178.244 132.74 177.72 132.406 177.045C132.077 176.371 131.912 175.583 131.912 174.682C131.912 173.773 132.077 172.979 132.406 172.301C132.74 171.623 133.202 171.097 133.793 170.722C134.387 170.347 135.079 170.159 135.866 170.159C136.654 170.159 137.344 170.347 137.935 170.722C138.529 171.097 138.991 171.623 139.321 172.301C139.654 172.979 139.821 173.773 139.821 174.682C139.821 175.583 139.654 176.371 139.321 177.045C138.991 177.72 138.529 178.244 137.935 178.619C137.344 178.994 136.654 179.182 135.866 179.182ZM135.866 177.977C136.465 177.977 136.957 177.824 137.344 177.517C137.73 177.21 138.016 176.807 138.202 176.307C138.387 175.807 138.48 175.265 138.48 174.682C138.48 174.098 138.387 173.555 138.202 173.051C138.016 172.547 137.73 172.14 137.344 171.83C136.957 171.519 136.465 171.364 135.866 171.364C135.268 171.364 134.776 171.519 134.389 171.83C134.003 172.14 133.717 172.547 133.531 173.051C133.346 173.555 133.253 174.098 133.253 174.682C133.253 175.265 133.346 175.807 133.531 176.307C133.717 176.807 134.003 177.21 134.389 177.517C134.776 177.824 135.268 177.977 135.866 177.977ZM149.663 179.182C148.936 179.182 148.294 178.998 147.737 178.631C147.18 178.259 146.745 177.737 146.43 177.062C146.116 176.384 145.959 175.583 145.959 174.659C145.959 173.742 146.116 172.947 146.43 172.273C146.745 171.598 147.182 171.078 147.743 170.71C148.304 170.343 148.951 170.159 149.686 170.159C150.254 170.159 150.703 170.254 151.033 170.443C151.366 170.629 151.62 170.841 151.794 171.08C151.972 171.314 152.11 171.508 152.209 171.659H152.322V167.364H153.663V179H152.368V177.659H152.209C152.11 177.818 151.97 178.019 151.788 178.261C151.607 178.5 151.347 178.714 151.01 178.903C150.673 179.089 150.224 179.182 149.663 179.182ZM149.845 177.977C150.383 177.977 150.838 177.837 151.209 177.557C151.58 177.273 151.862 176.881 152.055 176.381C152.249 175.877 152.345 175.295 152.345 174.636C152.345 173.985 152.25 173.415 152.061 172.926C151.872 172.434 151.591 172.051 151.22 171.778C150.849 171.502 150.391 171.364 149.845 171.364C149.277 171.364 148.804 171.509 148.425 171.801C148.05 172.089 147.768 172.481 147.578 172.977C147.393 173.47 147.3 174.023 147.3 174.636C147.3 175.258 147.394 175.822 147.584 176.33C147.777 176.833 148.061 177.235 148.436 177.534C148.815 177.83 149.285 177.977 149.845 177.977ZM159.964 179.182C159.124 179.182 158.398 178.996 157.788 178.625C157.182 178.25 156.714 177.727 156.385 177.057C156.059 176.383 155.896 175.598 155.896 174.705C155.896 173.811 156.059 173.023 156.385 172.341C156.714 171.655 157.173 171.121 157.76 170.739C158.351 170.352 159.04 170.159 159.828 170.159C160.283 170.159 160.732 170.235 161.175 170.386C161.618 170.538 162.021 170.784 162.385 171.125C162.749 171.462 163.038 171.909 163.254 172.466C163.47 173.023 163.578 173.708 163.578 174.523V175.091H156.851V173.932H162.214C162.214 173.439 162.116 173 161.919 172.614C161.726 172.227 161.449 171.922 161.089 171.699C160.733 171.475 160.313 171.364 159.828 171.364C159.294 171.364 158.832 171.496 158.442 171.761C158.055 172.023 157.758 172.364 157.55 172.784C157.341 173.205 157.237 173.655 157.237 174.136V174.909C157.237 175.568 157.351 176.127 157.578 176.585C157.809 177.04 158.129 177.386 158.538 177.625C158.947 177.86 159.423 177.977 159.964 177.977C160.317 177.977 160.635 177.928 160.919 177.83C161.207 177.727 161.455 177.576 161.663 177.375C161.872 177.17 162.033 176.917 162.146 176.614L163.442 176.977C163.305 177.417 163.076 177.803 162.754 178.136C162.432 178.466 162.035 178.723 161.561 178.909C161.088 179.091 160.555 179.182 159.964 179.182ZM166.959 167.364V179H165.618V167.364H166.959ZM173.074 179.182C172.233 179.182 171.508 178.996 170.898 178.625C170.292 178.25 169.824 177.727 169.494 177.057C169.169 176.383 169.006 175.598 169.006 174.705C169.006 173.811 169.169 173.023 169.494 172.341C169.824 171.655 170.282 171.121 170.869 170.739C171.46 170.352 172.15 170.159 172.938 170.159C173.392 170.159 173.841 170.235 174.284 170.386C174.727 170.538 175.131 170.784 175.494 171.125C175.858 171.462 176.148 171.909 176.364 172.466C176.58 173.023 176.688 173.708 176.688 174.523V175.091H169.96V173.932H175.324C175.324 173.439 175.225 173 175.028 172.614C174.835 172.227 174.559 171.922 174.199 171.699C173.843 171.475 173.422 171.364 172.938 171.364C172.403 171.364 171.941 171.496 171.551 171.761C171.165 172.023 170.867 172.364 170.659 172.784C170.451 173.205 170.347 173.655 170.347 174.136V174.909C170.347 175.568 170.46 176.127 170.688 176.585C170.919 177.04 171.239 177.386 171.648 177.625C172.057 177.86 172.532 177.977 173.074 177.977C173.426 177.977 173.744 177.928 174.028 177.83C174.316 177.727 174.564 177.576 174.773 177.375C174.981 177.17 175.142 176.917 175.256 176.614L176.551 176.977C176.415 177.417 176.186 177.803 175.864 178.136C175.542 178.466 175.144 178.723 174.67 178.909C174.197 179.091 173.665 179.182 173.074 179.182ZM182.523 170.273V171.409H178V170.273H182.523ZM179.318 168.182H180.659V176.5C180.659 176.879 180.714 177.163 180.824 177.352C180.938 177.538 181.081 177.663 181.256 177.727C181.434 177.788 181.621 177.818 181.818 177.818C181.966 177.818 182.087 177.811 182.182 177.795C182.277 177.777 182.352 177.761 182.409 177.75L182.682 178.955C182.591 178.989 182.464 179.023 182.301 179.057C182.138 179.095 181.932 179.114 181.682 179.114C181.303 179.114 180.932 179.032 180.568 178.869C180.208 178.706 179.909 178.458 179.67 178.125C179.436 177.792 179.318 177.371 179.318 176.864V168.182ZM188.105 179.182C187.264 179.182 186.539 178.996 185.929 178.625C185.323 178.25 184.855 177.727 184.526 177.057C184.2 176.383 184.037 175.598 184.037 174.705C184.037 173.811 184.2 173.023 184.526 172.341C184.855 171.655 185.313 171.121 185.901 170.739C186.491 170.352 187.181 170.159 187.969 170.159C188.423 170.159 188.872 170.235 189.315 170.386C189.759 170.538 190.162 170.784 190.526 171.125C190.889 171.462 191.179 171.909 191.395 172.466C191.611 173.023 191.719 173.708 191.719 174.523V175.091H184.991V173.932H190.355C190.355 173.439 190.257 173 190.06 172.614C189.866 172.227 189.59 171.922 189.23 171.699C188.874 171.475 188.454 171.364 187.969 171.364C187.435 171.364 186.973 171.496 186.582 171.761C186.196 172.023 185.899 172.364 185.69 172.784C185.482 173.205 185.378 173.655 185.378 174.136V174.909C185.378 175.568 185.491 176.127 185.719 176.585C185.95 177.04 186.27 177.386 186.679 177.625C187.088 177.86 187.563 177.977 188.105 177.977C188.457 177.977 188.776 177.928 189.06 177.83C189.348 177.727 189.596 177.576 189.804 177.375C190.012 177.17 190.173 176.917 190.287 176.614L191.582 176.977C191.446 177.417 191.217 177.803 190.895 178.136C190.573 178.466 190.175 178.723 189.702 178.909C189.228 179.091 188.696 179.182 188.105 179.182ZM202.054 170.273V171.409H197.531V170.273H202.054ZM198.849 168.182H200.19V176.5C200.19 176.879 200.245 177.163 200.355 177.352C200.469 177.538 200.613 177.663 200.787 177.727C200.965 177.788 201.152 177.818 201.349 177.818C201.497 177.818 201.618 177.811 201.713 177.795C201.808 177.777 201.884 177.761 201.94 177.75L202.213 178.955C202.122 178.989 201.995 179.023 201.832 179.057C201.67 179.095 201.463 179.114 201.213 179.114C200.834 179.114 200.463 179.032 200.099 178.869C199.74 178.706 199.44 178.458 199.202 178.125C198.967 177.792 198.849 177.371 198.849 176.864V168.182ZM205.599 173.75V179H204.259V167.364H205.599V171.636H205.713C205.918 171.186 206.224 170.828 206.634 170.562C207.046 170.294 207.596 170.159 208.281 170.159C208.876 170.159 209.397 170.278 209.844 170.517C210.291 170.752 210.637 171.114 210.884 171.602C211.134 172.087 211.259 172.705 211.259 173.455V179H209.918V173.545C209.918 172.852 209.738 172.316 209.378 171.938C209.022 171.555 208.527 171.364 207.895 171.364C207.455 171.364 207.062 171.456 206.713 171.642C206.368 171.828 206.096 172.098 205.895 172.455C205.698 172.811 205.599 173.242 205.599 173.75ZM217.371 179.182C216.53 179.182 215.804 178.996 215.195 178.625C214.589 178.25 214.121 177.727 213.791 177.057C213.465 176.383 213.303 175.598 213.303 174.705C213.303 173.811 213.465 173.023 213.791 172.341C214.121 171.655 214.579 171.121 215.166 170.739C215.757 170.352 216.446 170.159 217.234 170.159C217.689 170.159 218.138 170.235 218.581 170.386C219.024 170.538 219.428 170.784 219.791 171.125C220.155 171.462 220.445 171.909 220.661 172.466C220.876 173.023 220.984 173.708 220.984 174.523V175.091H214.257V173.932H219.621C219.621 173.439 219.522 173 219.325 172.614C219.132 172.227 218.856 171.922 218.496 171.699C218.14 171.475 217.719 171.364 217.234 171.364C216.7 171.364 216.238 171.496 215.848 171.761C215.462 172.023 215.164 172.364 214.956 172.784C214.748 173.205 214.643 173.655 214.643 174.136V174.909C214.643 175.568 214.757 176.127 214.984 176.585C215.215 177.04 215.536 177.386 215.945 177.625C216.354 177.86 216.829 177.977 217.371 177.977C217.723 177.977 218.041 177.928 218.325 177.83C218.613 177.727 218.861 177.576 219.07 177.375C219.278 177.17 219.439 176.917 219.553 176.614L220.848 176.977C220.712 177.417 220.482 177.803 220.161 178.136C219.839 178.466 219.441 178.723 218.967 178.909C218.494 179.091 217.962 179.182 217.371 179.182ZM51.2685 186.364V187.386C51.2685 187.697 51.2116 188.028 51.098 188.381C50.9882 188.729 50.8253 189.068 50.6094 189.398C50.3973 189.723 50.1397 190.008 49.8366 190.25L49.1094 189.659C49.348 189.318 49.5545 188.964 49.7287 188.597C49.9067 188.225 49.9957 187.83 49.9957 187.409V186.364H51.2685ZM54.1776 186.364V187.386C54.1776 187.697 54.1207 188.028 54.0071 188.381C53.8973 188.729 53.7344 189.068 53.5185 189.398C53.3063 189.723 53.0488 190.008 52.7457 190.25L52.0185 189.659C52.2571 189.318 52.4635 188.964 52.6378 188.597C52.8158 188.225 52.9048 187.83 52.9048 187.409V186.364H54.1776ZM64.3168 190C64.1918 189.617 64.027 189.275 63.8224 188.972C63.6217 188.665 63.3812 188.403 63.1009 188.188C62.8243 187.972 62.5099 187.807 62.1577 187.693C61.8054 187.58 61.419 187.523 60.9986 187.523C60.3092 187.523 59.6823 187.701 59.1179 188.057C58.5535 188.413 58.1046 188.938 57.7713 189.631C57.438 190.324 57.2713 191.174 57.2713 192.182C57.2713 193.189 57.4399 194.04 57.777 194.733C58.1141 195.426 58.5705 195.951 59.1463 196.307C59.7221 196.663 60.3698 196.841 61.0895 196.841C61.7562 196.841 62.3433 196.699 62.8509 196.415C63.3622 196.127 63.7599 195.722 64.044 195.199C64.3319 194.672 64.4759 194.053 64.4759 193.341L64.9077 193.432H61.4077V192.182H65.8395V193.432C65.8395 194.39 65.6349 195.223 65.2259 195.932C64.8205 196.64 64.2599 197.189 63.544 197.58C62.8319 197.966 62.0137 198.159 61.0895 198.159C60.0592 198.159 59.1539 197.917 58.3736 197.432C57.5971 196.947 56.991 196.258 56.5554 195.364C56.1236 194.47 55.9077 193.409 55.9077 192.182C55.9077 191.261 56.0308 190.434 56.277 189.699C56.527 188.96 56.8793 188.331 57.3338 187.812C57.7884 187.294 58.3262 186.896 58.9474 186.619C59.5687 186.343 60.2524 186.205 60.9986 186.205C61.6122 186.205 62.1842 186.297 62.7145 186.483C63.2486 186.665 63.724 186.924 64.1406 187.261C64.5611 187.595 64.9115 187.994 65.1918 188.46C65.4721 188.922 65.6652 189.436 65.7713 190H64.3168ZM68.9347 201.273C68.7074 201.273 68.5047 201.254 68.3267 201.216C68.1487 201.182 68.0256 201.148 67.9574 201.114L68.2983 199.932C68.6241 200.015 68.9119 200.045 69.1619 200.023C69.4119 200 69.6335 199.888 69.8267 199.688C70.0237 199.491 70.2036 199.17 70.3665 198.727L70.6165 198.045L67.3892 189.273H68.8438L71.2528 196.227H71.3438L73.7528 189.273H75.2074L71.5028 199.273C71.3362 199.723 71.1297 200.097 70.8835 200.392C70.6373 200.691 70.3513 200.913 70.0256 201.057C69.7036 201.201 69.34 201.273 68.9347 201.273ZM76.9773 198V189.273H78.2727V190.636H78.3864C78.5682 190.17 78.8617 189.809 79.267 189.551C79.6723 189.29 80.1591 189.159 80.7273 189.159C81.303 189.159 81.7822 189.29 82.1648 189.551C82.5511 189.809 82.8523 190.17 83.0682 190.636H83.1591C83.3826 190.186 83.7178 189.828 84.1648 189.562C84.6117 189.294 85.1477 189.159 85.7727 189.159C86.553 189.159 87.1913 189.403 87.6875 189.892C88.1837 190.377 88.4318 191.133 88.4318 192.159V198H87.0909V192.159C87.0909 191.515 86.9148 191.055 86.5625 190.778C86.2102 190.502 85.7955 190.364 85.3182 190.364C84.7045 190.364 84.2292 190.549 83.892 190.92C83.5549 191.288 83.3864 191.754 83.3864 192.318V198H82.0227V192.023C82.0227 191.527 81.8617 191.127 81.5398 190.824C81.2178 190.517 80.803 190.364 80.2955 190.364C79.947 190.364 79.6212 190.456 79.3182 190.642C79.0189 190.828 78.7765 191.085 78.5909 191.415C78.4091 191.741 78.3182 192.117 78.3182 192.545V198H76.9773ZM92.0653 186.364V187.386C92.0653 187.697 92.0085 188.028 91.8949 188.381C91.785 188.729 91.6222 189.068 91.4062 189.398C91.1941 189.723 90.9366 190.008 90.6335 190.25L89.9062 189.659C90.1449 189.318 90.3513 188.964 90.5256 188.597C90.7036 188.225 90.7926 187.83 90.7926 187.409V186.364H92.0653ZM94.9744 186.364V187.386C94.9744 187.697 94.9176 188.028 94.804 188.381C94.6941 188.729 94.5312 189.068 94.3153 189.398C94.1032 189.723 93.8456 190.008 93.5426 190.25L92.8153 189.659C93.054 189.318 93.2604 188.964 93.4347 188.597C93.6127 188.225 93.7017 187.83 93.7017 187.409V186.364H94.9744ZM104.045 198.205C103.492 198.205 102.991 198.1 102.54 197.892C102.089 197.68 101.731 197.375 101.466 196.977C101.201 196.576 101.068 196.091 101.068 195.523C101.068 195.023 101.167 194.617 101.364 194.307C101.561 193.992 101.824 193.746 102.153 193.568C102.483 193.39 102.847 193.258 103.244 193.17C103.646 193.08 104.049 193.008 104.455 192.955C104.985 192.886 105.415 192.835 105.744 192.801C106.078 192.763 106.32 192.701 106.472 192.614C106.627 192.527 106.705 192.375 106.705 192.159V192.114C106.705 191.553 106.551 191.117 106.244 190.807C105.941 190.496 105.481 190.341 104.864 190.341C104.223 190.341 103.722 190.481 103.358 190.761C102.994 191.042 102.739 191.341 102.591 191.659L101.318 191.205C101.545 190.674 101.848 190.261 102.227 189.966C102.61 189.667 103.027 189.458 103.477 189.341C103.932 189.22 104.379 189.159 104.818 189.159C105.098 189.159 105.42 189.193 105.784 189.261C106.152 189.326 106.506 189.46 106.847 189.665C107.191 189.869 107.477 190.178 107.705 190.591C107.932 191.004 108.045 191.557 108.045 192.25V198H106.705V196.818H106.636C106.545 197.008 106.394 197.21 106.182 197.426C105.97 197.642 105.688 197.826 105.335 197.977C104.983 198.129 104.553 198.205 104.045 198.205ZM104.25 197C104.78 197 105.227 196.896 105.591 196.688C105.958 196.479 106.235 196.21 106.42 195.881C106.61 195.551 106.705 195.205 106.705 194.841V193.614C106.648 193.682 106.523 193.744 106.33 193.801C106.14 193.854 105.92 193.902 105.67 193.943C105.424 193.981 105.184 194.015 104.949 194.045C104.718 194.072 104.53 194.095 104.386 194.114C104.038 194.159 103.712 194.233 103.409 194.335C103.11 194.434 102.867 194.583 102.682 194.784C102.5 194.981 102.409 195.25 102.409 195.591C102.409 196.057 102.581 196.409 102.926 196.648C103.275 196.883 103.716 197 104.25 197ZM114.038 198.182C113.22 198.182 112.516 197.989 111.925 197.602C111.334 197.216 110.879 196.684 110.561 196.006C110.243 195.328 110.084 194.553 110.084 193.682C110.084 192.795 110.247 192.013 110.572 191.335C110.902 190.653 111.36 190.121 111.947 189.739C112.538 189.352 113.228 189.159 114.016 189.159C114.629 189.159 115.182 189.273 115.675 189.5C116.167 189.727 116.571 190.045 116.885 190.455C117.199 190.864 117.394 191.341 117.47 191.886H116.129C116.027 191.489 115.8 191.136 115.447 190.83C115.099 190.519 114.629 190.364 114.038 190.364C113.516 190.364 113.057 190.5 112.663 190.773C112.273 191.042 111.968 191.422 111.749 191.915C111.533 192.403 111.425 192.977 111.425 193.636C111.425 194.311 111.531 194.898 111.743 195.398C111.959 195.898 112.262 196.286 112.652 196.562C113.046 196.839 113.508 196.977 114.038 196.977C114.387 196.977 114.703 196.917 114.987 196.795C115.271 196.674 115.512 196.5 115.709 196.273C115.906 196.045 116.046 195.773 116.129 195.455H117.47C117.394 195.97 117.207 196.434 116.908 196.847C116.612 197.256 116.22 197.581 115.732 197.824C115.247 198.062 114.682 198.182 114.038 198.182ZM123.226 189.273V190.409H118.703V189.273H123.226ZM120.021 187.182H121.362V195.5C121.362 195.879 121.417 196.163 121.527 196.352C121.641 196.538 121.785 196.663 121.959 196.727C122.137 196.788 122.324 196.818 122.521 196.818C122.669 196.818 122.79 196.811 122.885 196.795C122.98 196.777 123.055 196.761 123.112 196.75L123.385 197.955C123.294 197.989 123.167 198.023 123.004 198.057C122.841 198.095 122.635 198.114 122.385 198.114C122.006 198.114 121.635 198.032 121.271 197.869C120.911 197.706 120.612 197.458 120.374 197.125C120.139 196.792 120.021 196.371 120.021 195.864V187.182ZM125.243 198V189.273H126.584V198H125.243ZM125.925 187.818C125.663 187.818 125.438 187.729 125.249 187.551C125.063 187.373 124.97 187.159 124.97 186.909C124.97 186.659 125.063 186.445 125.249 186.267C125.438 186.089 125.663 186 125.925 186C126.186 186 126.41 186.089 126.595 186.267C126.785 186.445 126.879 186.659 126.879 186.909C126.879 187.159 126.785 187.373 126.595 187.551C126.41 187.729 126.186 187.818 125.925 187.818ZM136.176 189.273L132.949 198H131.585L128.358 189.273H129.812L132.222 196.227H132.312L134.722 189.273H136.176ZM137.946 198V189.273H139.287V198H137.946ZM138.628 187.818C138.366 187.818 138.141 187.729 137.952 187.551C137.766 187.373 137.673 187.159 137.673 186.909C137.673 186.659 137.766 186.445 137.952 186.267C138.141 186.089 138.366 186 138.628 186C138.889 186 139.113 186.089 139.298 186.267C139.488 186.445 139.582 186.659 139.582 186.909C139.582 187.159 139.488 187.373 139.298 187.551C139.113 187.729 138.889 187.818 138.628 187.818ZM145.538 189.273V190.409H141.016V189.273H145.538ZM142.334 187.182H143.675V195.5C143.675 195.879 143.73 196.163 143.839 196.352C143.953 196.538 144.097 196.663 144.271 196.727C144.449 196.788 144.637 196.818 144.834 196.818C144.982 196.818 145.103 196.811 145.197 196.795C145.292 196.777 145.368 196.761 145.425 196.75L145.697 197.955C145.607 197.989 145.48 198.023 145.317 198.057C145.154 198.095 144.947 198.114 144.697 198.114C144.319 198.114 143.947 198.032 143.584 197.869C143.224 197.706 142.925 197.458 142.686 197.125C142.451 196.792 142.334 196.371 142.334 195.864V187.182ZM148.419 201.273C148.192 201.273 147.989 201.254 147.811 201.216C147.633 201.182 147.51 201.148 147.442 201.114L147.783 199.932C148.108 200.015 148.396 200.045 148.646 200.023C148.896 200 149.118 199.888 149.311 199.688C149.508 199.491 149.688 199.17 149.851 198.727L150.101 198.045L146.874 189.273H148.328L150.737 196.227H150.828L153.237 189.273H154.692L150.987 199.273C150.821 199.723 150.614 200.097 150.368 200.392C150.122 200.691 149.836 200.913 149.51 201.057C149.188 201.201 148.824 201.273 148.419 201.273ZM164.848 189.273V190.409H160.143V189.273H164.848ZM161.553 198V188.068C161.553 187.568 161.67 187.152 161.905 186.818C162.14 186.485 162.445 186.235 162.82 186.068C163.195 185.902 163.59 185.818 164.007 185.818C164.337 185.818 164.606 185.845 164.814 185.898C165.022 185.951 165.178 186 165.28 186.045L164.893 187.205C164.825 187.182 164.731 187.153 164.609 187.119C164.492 187.085 164.337 187.068 164.143 187.068C163.7 187.068 163.38 187.18 163.183 187.403C162.99 187.627 162.893 187.955 162.893 188.386V198H161.553ZM166.727 198V189.273H168.023V190.591H168.114C168.273 190.159 168.561 189.809 168.977 189.54C169.394 189.271 169.864 189.136 170.386 189.136C170.485 189.136 170.608 189.138 170.756 189.142C170.903 189.146 171.015 189.152 171.091 189.159V190.523C171.045 190.511 170.941 190.494 170.778 190.472C170.619 190.445 170.451 190.432 170.273 190.432C169.848 190.432 169.47 190.521 169.136 190.699C168.807 190.873 168.545 191.116 168.352 191.426C168.163 191.733 168.068 192.083 168.068 192.477V198H166.727ZM175.96 198.182C175.172 198.182 174.481 197.994 173.886 197.619C173.295 197.244 172.833 196.72 172.5 196.045C172.17 195.371 172.006 194.583 172.006 193.682C172.006 192.773 172.17 191.979 172.5 191.301C172.833 190.623 173.295 190.097 173.886 189.722C174.481 189.347 175.172 189.159 175.96 189.159C176.748 189.159 177.438 189.347 178.028 189.722C178.623 190.097 179.085 190.623 179.415 191.301C179.748 191.979 179.915 192.773 179.915 193.682C179.915 194.583 179.748 195.371 179.415 196.045C179.085 196.72 178.623 197.244 178.028 197.619C177.438 197.994 176.748 198.182 175.96 198.182ZM175.96 196.977C176.559 196.977 177.051 196.824 177.438 196.517C177.824 196.21 178.11 195.807 178.295 195.307C178.481 194.807 178.574 194.265 178.574 193.682C178.574 193.098 178.481 192.555 178.295 192.051C178.11 191.547 177.824 191.14 177.438 190.83C177.051 190.519 176.559 190.364 175.96 190.364C175.362 190.364 174.869 190.519 174.483 190.83C174.097 191.14 173.811 191.547 173.625 192.051C173.439 192.555 173.347 193.098 173.347 193.682C173.347 194.265 173.439 194.807 173.625 195.307C173.811 195.807 174.097 196.21 174.483 196.517C174.869 196.824 175.362 196.977 175.96 196.977ZM181.962 198V189.273H183.257V190.636H183.371C183.553 190.17 183.846 189.809 184.251 189.551C184.657 189.29 185.143 189.159 185.712 189.159C186.287 189.159 186.767 189.29 187.149 189.551C187.536 189.809 187.837 190.17 188.053 190.636H188.143C188.367 190.186 188.702 189.828 189.149 189.562C189.596 189.294 190.132 189.159 190.757 189.159C191.537 189.159 192.176 189.403 192.672 189.892C193.168 190.377 193.416 191.133 193.416 192.159V198H192.075V192.159C192.075 191.515 191.899 191.055 191.547 190.778C191.195 190.502 190.78 190.364 190.303 190.364C189.689 190.364 189.214 190.549 188.876 190.92C188.539 191.288 188.371 191.754 188.371 192.318V198H187.007V192.023C187.007 191.527 186.846 191.127 186.524 190.824C186.202 190.517 185.787 190.364 185.28 190.364C184.931 190.364 184.606 190.456 184.303 190.642C184.003 190.828 183.761 191.085 183.575 191.415C183.393 191.741 183.303 192.117 183.303 192.545V198H181.962ZM97.4595 217.205C96.9065 217.205 96.4046 217.1 95.9538 216.892C95.5031 216.68 95.1451 216.375 94.88 215.977C94.6148 215.576 94.4822 215.091 94.4822 214.523C94.4822 214.023 94.5807 213.617 94.7777 213.307C94.9747 212.992 95.2379 212.746 95.5675 212.568C95.897 212.39 96.2607 212.258 96.6584 212.17C97.0599 212.08 97.4633 212.008 97.8686 211.955C98.3989 211.886 98.8288 211.835 99.1584 211.801C99.4917 211.763 99.7341 211.701 99.8857 211.614C100.041 211.527 100.119 211.375 100.119 211.159V211.114C100.119 210.553 99.9652 210.117 99.6584 209.807C99.3554 209.496 98.8951 209.341 98.2777 209.341C97.6375 209.341 97.1357 209.481 96.772 209.761C96.4084 210.042 96.1527 210.341 96.005 210.659L94.7322 210.205C94.9595 209.674 95.2625 209.261 95.6413 208.966C96.0239 208.667 96.4406 208.458 96.8913 208.341C97.3459 208.22 97.7929 208.159 98.2322 208.159C98.5125 208.159 98.8345 208.193 99.1982 208.261C99.5656 208.326 99.9197 208.46 100.261 208.665C100.605 208.869 100.891 209.178 101.119 209.591C101.346 210.004 101.46 210.557 101.46 211.25V217H100.119V215.818H100.05C99.9595 216.008 99.808 216.21 99.5959 216.426C99.3838 216.642 99.1016 216.826 98.7493 216.977C98.397 217.129 97.9671 217.205 97.4595 217.205ZM97.6641 216C98.1944 216 98.6413 215.896 99.005 215.688C99.3724 215.479 99.6489 215.21 99.8345 214.881C100.024 214.551 100.119 214.205 100.119 213.841V212.614C100.062 212.682 99.9368 212.744 99.7436 212.801C99.5542 212.854 99.3345 212.902 99.0845 212.943C98.8383 212.981 98.5978 213.015 98.3629 213.045C98.1319 213.072 97.9444 213.095 97.8004 213.114C97.4519 213.159 97.1262 213.233 96.8232 213.335C96.5239 213.434 96.2815 213.583 96.0959 213.784C95.9141 213.981 95.8232 214.25 95.8232 214.591C95.8232 215.057 95.9955 215.409 96.3402 215.648C96.6887 215.883 97.13 216 97.6641 216ZM105.248 205.364V217H103.907V205.364H105.248ZM109.045 205.364V217H107.704V205.364H109.045ZM117.342 205.364V217H116.001V205.364H117.342ZM123.343 217.182C122.555 217.182 121.864 216.994 121.269 216.619C120.678 216.244 120.216 215.72 119.883 215.045C119.553 214.371 119.388 213.583 119.388 212.682C119.388 211.773 119.553 210.979 119.883 210.301C120.216 209.623 120.678 209.097 121.269 208.722C121.864 208.347 122.555 208.159 123.343 208.159C124.131 208.159 124.82 208.347 125.411 208.722C126.006 209.097 126.468 209.623 126.798 210.301C127.131 210.979 127.298 211.773 127.298 212.682C127.298 213.583 127.131 214.371 126.798 215.045C126.468 215.72 126.006 216.244 125.411 216.619C124.82 216.994 124.131 217.182 123.343 217.182ZM123.343 215.977C123.942 215.977 124.434 215.824 124.82 215.517C125.207 215.21 125.493 214.807 125.678 214.307C125.864 213.807 125.957 213.265 125.957 212.682C125.957 212.098 125.864 211.555 125.678 211.051C125.493 210.547 125.207 210.14 124.82 209.83C124.434 209.519 123.942 209.364 123.343 209.364C122.745 209.364 122.252 209.519 121.866 209.83C121.479 210.14 121.193 210.547 121.008 211.051C120.822 211.555 120.729 212.098 120.729 212.682C120.729 213.265 120.822 213.807 121.008 214.307C121.193 214.807 121.479 215.21 121.866 215.517C122.252 215.824 122.745 215.977 123.343 215.977ZM132.867 220.455C132.219 220.455 131.663 220.371 131.197 220.205C130.731 220.042 130.343 219.826 130.032 219.557C129.725 219.292 129.481 219.008 129.299 218.705L130.367 217.955C130.488 218.114 130.642 218.295 130.827 218.5C131.013 218.708 131.267 218.888 131.589 219.04C131.915 219.195 132.341 219.273 132.867 219.273C133.572 219.273 134.153 219.102 134.612 218.761C135.07 218.42 135.299 217.886 135.299 217.159V215.386H135.185C135.087 215.545 134.947 215.742 134.765 215.977C134.587 216.208 134.329 216.415 133.992 216.597C133.659 216.775 133.208 216.864 132.64 216.864C131.935 216.864 131.303 216.697 130.742 216.364C130.185 216.03 129.744 215.545 129.418 214.909C129.096 214.273 128.935 213.5 128.935 212.591C128.935 211.697 129.093 210.919 129.407 210.256C129.721 209.589 130.159 209.074 130.719 208.71C131.28 208.343 131.928 208.159 132.663 208.159C133.231 208.159 133.682 208.254 134.015 208.443C134.352 208.629 134.61 208.841 134.788 209.08C134.969 209.314 135.11 209.508 135.208 209.659H135.344V208.273H136.64V217.25C136.64 218 136.469 218.61 136.129 219.08C135.791 219.553 135.337 219.9 134.765 220.119C134.197 220.343 133.564 220.455 132.867 220.455ZM132.822 215.659C133.36 215.659 133.814 215.536 134.185 215.29C134.557 215.044 134.839 214.689 135.032 214.227C135.225 213.765 135.322 213.212 135.322 212.568C135.322 211.939 135.227 211.384 135.038 210.903C134.848 210.422 134.568 210.045 134.197 209.773C133.826 209.5 133.367 209.364 132.822 209.364C132.254 209.364 131.78 209.508 131.401 209.795C131.026 210.083 130.744 210.47 130.555 210.955C130.369 211.439 130.276 211.977 130.276 212.568C130.276 213.174 130.371 213.71 130.56 214.176C130.754 214.638 131.038 215.002 131.413 215.267C131.791 215.528 132.261 215.659 132.822 215.659ZM145.276 210.227L144.072 210.568C143.996 210.367 143.884 210.172 143.737 209.983C143.593 209.79 143.396 209.631 143.146 209.506C142.896 209.381 142.576 209.318 142.185 209.318C141.651 209.318 141.206 209.441 140.85 209.688C140.498 209.93 140.322 210.239 140.322 210.614C140.322 210.947 140.443 211.21 140.685 211.403C140.928 211.597 141.307 211.758 141.822 211.886L143.117 212.205C143.897 212.394 144.479 212.684 144.862 213.074C145.244 213.46 145.435 213.958 145.435 214.568C145.435 215.068 145.291 215.515 145.004 215.909C144.719 216.303 144.322 216.614 143.81 216.841C143.299 217.068 142.704 217.182 142.026 217.182C141.136 217.182 140.399 216.989 139.816 216.602C139.233 216.216 138.863 215.652 138.708 214.909L139.981 214.591C140.102 215.061 140.331 215.413 140.668 215.648C141.009 215.883 141.454 216 142.004 216C142.629 216 143.125 215.867 143.492 215.602C143.863 215.333 144.049 215.011 144.049 214.636C144.049 214.333 143.943 214.08 143.731 213.875C143.519 213.667 143.193 213.511 142.754 213.409L141.299 213.068C140.5 212.879 139.913 212.585 139.538 212.188C139.166 211.786 138.981 211.284 138.981 210.682C138.981 210.189 139.119 209.754 139.396 209.375C139.676 208.996 140.057 208.699 140.538 208.483C141.022 208.267 141.572 208.159 142.185 208.159C143.049 208.159 143.727 208.348 144.219 208.727C144.716 209.106 145.068 209.606 145.276 210.227ZM149.204 213.727V213.659C149.211 212.936 149.287 212.36 149.431 211.932C149.575 211.504 149.78 211.157 150.045 210.892C150.31 210.627 150.628 210.383 150.999 210.159C151.223 210.023 151.424 209.862 151.602 209.676C151.78 209.487 151.92 209.269 152.022 209.023C152.128 208.777 152.181 208.504 152.181 208.205C152.181 207.833 152.094 207.511 151.92 207.239C151.746 206.966 151.513 206.756 151.221 206.608C150.929 206.46 150.605 206.386 150.249 206.386C149.939 206.386 149.639 206.451 149.352 206.58C149.064 206.708 148.823 206.911 148.63 207.188C148.437 207.464 148.325 207.826 148.295 208.273H146.863C146.893 207.629 147.06 207.078 147.363 206.619C147.67 206.161 148.073 205.811 148.573 205.568C149.077 205.326 149.636 205.205 150.249 205.205C150.916 205.205 151.496 205.337 151.988 205.602C152.484 205.867 152.867 206.231 153.136 206.693C153.408 207.155 153.545 207.682 153.545 208.273C153.545 208.689 153.48 209.066 153.352 209.403C153.227 209.741 153.045 210.042 152.806 210.307C152.571 210.572 152.287 210.807 151.954 211.011C151.621 211.22 151.353 211.439 151.153 211.67C150.952 211.898 150.806 212.169 150.715 212.483C150.624 212.797 150.575 213.189 150.567 213.659V213.727H149.204ZM149.931 217.091C149.651 217.091 149.41 216.991 149.21 216.79C149.009 216.589 148.908 216.348 148.908 216.068C148.908 215.788 149.009 215.547 149.21 215.347C149.41 215.146 149.651 215.045 149.931 215.045C150.211 215.045 150.452 215.146 150.653 215.347C150.853 215.547 150.954 215.788 150.954 216.068C150.954 216.254 150.906 216.424 150.812 216.58C150.721 216.735 150.598 216.86 150.442 216.955C150.291 217.045 150.121 217.091 149.931 217.091Z" fill="black"/>
<circle cx="146.223" cy="130.853" r="11.7331" fill="black" stroke="white"/>
<path d="M137.519 139.557L154.557 122.519" stroke="white"/>
<path d="M154.557 139.557L137.519 122.519" stroke="white"/>
</svg>
