<svg width="247" height="404" viewBox="0 0 247 404" fill="none" xmlns="http://www.w3.org/2000/svg">
<rect x="1" y="1" width="245" height="402" rx="8" fill="white"/>
<rect x="1" y="1" width="245" height="402" rx="8" stroke="black"/>
<rect x="21.5" y="246.5" width="203" height="37" rx="9.5" fill="black" stroke="black"/>
<path d="M112.866 262.273C112.798 261.697 112.522 261.25 112.037 260.932C111.552 260.614 110.957 260.455 110.253 260.455C109.738 260.455 109.287 260.538 108.901 260.705C108.518 260.871 108.219 261.1 108.003 261.392C107.791 261.684 107.685 262.015 107.685 262.386C107.685 262.697 107.759 262.964 107.906 263.188C108.058 263.407 108.251 263.591 108.486 263.739C108.721 263.883 108.967 264.002 109.224 264.097C109.482 264.187 109.719 264.261 109.935 264.318L111.116 264.636C111.42 264.716 111.757 264.826 112.128 264.966C112.503 265.106 112.861 265.297 113.202 265.54C113.546 265.778 113.83 266.085 114.054 266.46C114.277 266.835 114.389 267.295 114.389 267.841C114.389 268.47 114.224 269.038 113.895 269.545C113.569 270.053 113.092 270.456 112.463 270.756C111.838 271.055 111.079 271.205 110.185 271.205C109.351 271.205 108.63 271.07 108.02 270.801C107.414 270.532 106.937 270.157 106.588 269.676C106.243 269.195 106.048 268.636 106.003 268H107.457C107.495 268.439 107.643 268.803 107.901 269.091C108.162 269.375 108.491 269.587 108.889 269.727C109.291 269.864 109.723 269.932 110.185 269.932C110.723 269.932 111.205 269.845 111.634 269.67C112.062 269.492 112.401 269.246 112.651 268.932C112.901 268.614 113.026 268.242 113.026 267.818C113.026 267.432 112.918 267.117 112.702 266.875C112.486 266.633 112.202 266.436 111.849 266.284C111.497 266.133 111.116 266 110.707 265.886L109.276 265.477C108.366 265.216 107.647 264.843 107.116 264.358C106.586 263.873 106.321 263.239 106.321 262.455C106.321 261.803 106.497 261.235 106.849 260.75C107.205 260.261 107.683 259.883 108.281 259.614C108.884 259.341 109.556 259.205 110.298 259.205C111.048 259.205 111.715 259.339 112.298 259.608C112.882 259.873 113.344 260.237 113.685 260.699C114.029 261.161 114.211 261.686 114.23 262.273H112.866ZM119.092 271.205C118.539 271.205 118.037 271.1 117.587 270.892C117.136 270.68 116.778 270.375 116.513 269.977C116.248 269.576 116.115 269.091 116.115 268.523C116.115 268.023 116.214 267.617 116.411 267.307C116.607 266.992 116.871 266.746 117.2 266.568C117.53 266.39 117.893 266.258 118.291 266.17C118.693 266.08 119.096 266.008 119.501 265.955C120.032 265.886 120.462 265.835 120.791 265.801C121.125 265.763 121.367 265.701 121.518 265.614C121.674 265.527 121.751 265.375 121.751 265.159V265.114C121.751 264.553 121.598 264.117 121.291 263.807C120.988 263.496 120.528 263.341 119.911 263.341C119.27 263.341 118.768 263.481 118.405 263.761C118.041 264.042 117.786 264.341 117.638 264.659L116.365 264.205C116.592 263.674 116.895 263.261 117.274 262.966C117.657 262.667 118.073 262.458 118.524 262.341C118.979 262.22 119.426 262.159 119.865 262.159C120.145 262.159 120.467 262.193 120.831 262.261C121.198 262.326 121.553 262.46 121.893 262.665C122.238 262.869 122.524 263.178 122.751 263.591C122.979 264.004 123.092 264.557 123.092 265.25V271H121.751V269.818H121.683C121.592 270.008 121.441 270.21 121.229 270.426C121.017 270.642 120.734 270.826 120.382 270.977C120.03 271.129 119.6 271.205 119.092 271.205ZM119.297 270C119.827 270 120.274 269.896 120.638 269.688C121.005 269.479 121.282 269.21 121.467 268.881C121.657 268.551 121.751 268.205 121.751 267.841V266.614C121.695 266.682 121.57 266.744 121.376 266.801C121.187 266.854 120.967 266.902 120.717 266.943C120.471 266.981 120.231 267.015 119.996 267.045C119.765 267.072 119.577 267.095 119.433 267.114C119.085 267.159 118.759 267.233 118.456 267.335C118.157 267.434 117.914 267.583 117.729 267.784C117.547 267.981 117.456 268.25 117.456 268.591C117.456 269.057 117.628 269.409 117.973 269.648C118.321 269.883 118.763 270 119.297 270ZM132.364 262.273L129.136 271H127.773L124.545 262.273H126L128.409 269.227H128.5L130.909 262.273H132.364ZM137.48 271.182C136.639 271.182 135.914 270.996 135.304 270.625C134.698 270.25 134.23 269.727 133.901 269.057C133.575 268.383 133.412 267.598 133.412 266.705C133.412 265.811 133.575 265.023 133.901 264.341C134.23 263.655 134.688 263.121 135.276 262.739C135.866 262.352 136.556 262.159 137.344 262.159C137.798 262.159 138.247 262.235 138.69 262.386C139.134 262.538 139.537 262.784 139.901 263.125C140.264 263.462 140.554 263.909 140.77 264.466C140.986 265.023 141.094 265.708 141.094 266.523V267.091H134.366V265.932H139.73C139.73 265.439 139.632 265 139.435 264.614C139.241 264.227 138.965 263.922 138.605 263.699C138.249 263.475 137.829 263.364 137.344 263.364C136.81 263.364 136.348 263.496 135.957 263.761C135.571 264.023 135.274 264.364 135.065 264.784C134.857 265.205 134.753 265.655 134.753 266.136V266.909C134.753 267.568 134.866 268.127 135.094 268.585C135.325 269.04 135.645 269.386 136.054 269.625C136.463 269.86 136.938 269.977 137.48 269.977C137.832 269.977 138.151 269.928 138.435 269.83C138.723 269.727 138.971 269.576 139.179 269.375C139.387 269.17 139.548 268.917 139.662 268.614L140.957 268.977C140.821 269.417 140.592 269.803 140.27 270.136C139.948 270.466 139.55 270.723 139.077 270.909C138.603 271.091 138.071 271.182 137.48 271.182Z" fill="white"/>
<path d="M108.241 361H106.832C106.749 360.595 106.603 360.239 106.395 359.932C106.19 359.625 105.94 359.367 105.645 359.159C105.353 358.947 105.029 358.788 104.673 358.682C104.317 358.576 103.946 358.523 103.56 358.523C102.855 358.523 102.217 358.701 101.645 359.057C101.077 359.413 100.624 359.938 100.287 360.631C99.9536 361.324 99.7869 362.174 99.7869 363.182C99.7869 364.189 99.9536 365.04 100.287 365.733C100.624 366.426 101.077 366.951 101.645 367.307C102.217 367.663 102.855 367.841 103.56 367.841C103.946 367.841 104.317 367.788 104.673 367.682C105.029 367.576 105.353 367.419 105.645 367.21C105.94 366.998 106.19 366.739 106.395 366.432C106.603 366.121 106.749 365.765 106.832 365.364H108.241C108.135 365.958 107.942 366.491 107.662 366.96C107.382 367.43 107.033 367.83 106.616 368.159C106.2 368.485 105.732 368.733 105.213 368.903C104.698 369.074 104.147 369.159 103.56 369.159C102.567 369.159 101.685 368.917 100.912 368.432C100.139 367.947 99.5313 367.258 99.0881 366.364C98.6449 365.47 98.4233 364.409 98.4233 363.182C98.4233 361.955 98.6449 360.894 99.0881 360C99.5313 359.106 100.139 358.417 100.912 357.932C101.685 357.447 102.567 357.205 103.56 357.205C104.147 357.205 104.698 357.29 105.213 357.46C105.732 357.631 106.2 357.881 106.616 358.21C107.033 358.536 107.382 358.934 107.662 359.403C107.942 359.869 108.135 360.402 108.241 361ZM112.905 369.205C112.352 369.205 111.85 369.1 111.399 368.892C110.948 368.68 110.59 368.375 110.325 367.977C110.06 367.576 109.928 367.091 109.928 366.523C109.928 366.023 110.026 365.617 110.223 365.307C110.42 364.992 110.683 364.746 111.013 364.568C111.342 364.39 111.706 364.258 112.104 364.17C112.505 364.08 112.909 364.008 113.314 363.955C113.844 363.886 114.274 363.835 114.604 363.801C114.937 363.763 115.179 363.701 115.331 363.614C115.486 363.527 115.564 363.375 115.564 363.159V363.114C115.564 362.553 115.411 362.117 115.104 361.807C114.801 361.496 114.34 361.341 113.723 361.341C113.083 361.341 112.581 361.481 112.217 361.761C111.854 362.042 111.598 362.341 111.45 362.659L110.178 362.205C110.405 361.674 110.708 361.261 111.087 360.966C111.469 360.667 111.886 360.458 112.337 360.341C112.791 360.22 113.238 360.159 113.678 360.159C113.958 360.159 114.28 360.193 114.643 360.261C115.011 360.326 115.365 360.46 115.706 360.665C116.051 360.869 116.337 361.178 116.564 361.591C116.791 362.004 116.905 362.557 116.905 363.25V369H115.564V367.818H115.496C115.405 368.008 115.253 368.21 115.041 368.426C114.829 368.642 114.547 368.826 114.195 368.977C113.842 369.129 113.412 369.205 112.905 369.205ZM113.109 368C113.64 368 114.087 367.896 114.45 367.688C114.818 367.479 115.094 367.21 115.28 366.881C115.469 366.551 115.564 366.205 115.564 365.841V364.614C115.507 364.682 115.382 364.744 115.189 364.801C115 364.854 114.78 364.902 114.53 364.943C114.284 364.981 114.043 365.015 113.808 365.045C113.577 365.072 113.39 365.095 113.246 365.114C112.897 365.159 112.571 365.233 112.268 365.335C111.969 365.434 111.727 365.583 111.541 365.784C111.359 365.981 111.268 366.25 111.268 366.591C111.268 367.057 111.441 367.409 111.786 367.648C112.134 367.883 112.575 368 113.109 368ZM120.693 363.75V369H119.352V360.273H120.648V361.636H120.761C120.966 361.193 121.277 360.837 121.693 360.568C122.11 360.295 122.648 360.159 123.307 360.159C123.898 360.159 124.415 360.28 124.858 360.523C125.301 360.761 125.646 361.125 125.892 361.614C126.138 362.098 126.261 362.712 126.261 363.455V369H124.92V363.545C124.92 362.86 124.742 362.326 124.386 361.943C124.03 361.557 123.542 361.364 122.92 361.364C122.492 361.364 122.11 361.456 121.773 361.642C121.439 361.828 121.176 362.098 120.983 362.455C120.79 362.811 120.693 363.242 120.693 363.75ZM132.257 369.182C131.439 369.182 130.734 368.989 130.143 368.602C129.553 368.216 129.098 367.684 128.78 367.006C128.462 366.328 128.303 365.553 128.303 364.682C128.303 363.795 128.465 363.013 128.791 362.335C129.121 361.653 129.579 361.121 130.166 360.739C130.757 360.352 131.446 360.159 132.234 360.159C132.848 360.159 133.401 360.273 133.893 360.5C134.386 360.727 134.789 361.045 135.104 361.455C135.418 361.864 135.613 362.341 135.689 362.886H134.348C134.246 362.489 134.018 362.136 133.666 361.83C133.318 361.519 132.848 361.364 132.257 361.364C131.734 361.364 131.276 361.5 130.882 361.773C130.492 362.042 130.187 362.422 129.967 362.915C129.751 363.403 129.643 363.977 129.643 364.636C129.643 365.311 129.75 365.898 129.962 366.398C130.178 366.898 130.481 367.286 130.871 367.562C131.265 367.839 131.727 367.977 132.257 367.977C132.606 367.977 132.922 367.917 133.206 367.795C133.49 367.674 133.731 367.5 133.928 367.273C134.125 367.045 134.265 366.773 134.348 366.455H135.689C135.613 366.97 135.426 367.434 135.126 367.847C134.831 368.256 134.439 368.581 133.95 368.824C133.465 369.062 132.901 369.182 132.257 369.182ZM141.308 369.182C140.467 369.182 139.742 368.996 139.132 368.625C138.526 368.25 138.058 367.727 137.729 367.057C137.403 366.383 137.24 365.598 137.24 364.705C137.24 363.811 137.403 363.023 137.729 362.341C138.058 361.655 138.517 361.121 139.104 360.739C139.695 360.352 140.384 360.159 141.172 360.159C141.626 360.159 142.075 360.235 142.518 360.386C142.962 360.538 143.365 360.784 143.729 361.125C144.092 361.462 144.382 361.909 144.598 362.466C144.814 363.023 144.922 363.708 144.922 364.523V365.091H138.195V363.932H143.558C143.558 363.439 143.46 363 143.263 362.614C143.07 362.227 142.793 361.922 142.433 361.699C142.077 361.475 141.657 361.364 141.172 361.364C140.638 361.364 140.176 361.496 139.786 361.761C139.399 362.023 139.102 362.364 138.893 362.784C138.685 363.205 138.581 363.655 138.581 364.136V364.909C138.581 365.568 138.695 366.127 138.922 366.585C139.153 367.04 139.473 367.386 139.882 367.625C140.291 367.86 140.767 367.977 141.308 367.977C141.661 367.977 141.979 367.928 142.263 367.83C142.551 367.727 142.799 367.576 143.007 367.375C143.215 367.17 143.376 366.917 143.49 366.614L144.786 366.977C144.649 367.417 144.42 367.803 144.098 368.136C143.776 368.466 143.378 368.723 142.905 368.909C142.431 369.091 141.899 369.182 141.308 369.182ZM148.303 357.364V369H146.962V357.364H148.303Z" fill="black"/>
<rect x="21.5" y="344.5" width="203" height="37" rx="9.5" stroke="black"/>
<path d="M104.023 320H100.433V308.364H104.183C105.311 308.364 106.277 308.597 107.08 309.062C107.883 309.525 108.499 310.189 108.927 311.057C109.355 311.92 109.569 312.955 109.569 314.159C109.569 315.371 109.353 316.415 108.921 317.29C108.489 318.161 107.861 318.831 107.035 319.301C106.209 319.767 105.205 320 104.023 320ZM101.842 318.75H103.933C104.895 318.75 105.692 318.564 106.325 318.193C106.957 317.822 107.429 317.294 107.739 316.608C108.05 315.922 108.205 315.106 108.205 314.159C108.205 313.22 108.052 312.411 107.745 311.733C107.438 311.051 106.98 310.528 106.37 310.165C105.76 309.797 105.001 309.614 104.092 309.614H101.842V318.75ZM115.41 320.182C114.569 320.182 113.844 319.996 113.234 319.625C112.628 319.25 112.16 318.727 111.83 318.057C111.504 317.383 111.342 316.598 111.342 315.705C111.342 314.811 111.504 314.023 111.83 313.341C112.16 312.655 112.618 312.121 113.205 311.739C113.796 311.352 114.486 311.159 115.273 311.159C115.728 311.159 116.177 311.235 116.62 311.386C117.063 311.538 117.467 311.784 117.83 312.125C118.194 312.462 118.484 312.909 118.7 313.466C118.915 314.023 119.023 314.708 119.023 315.523V316.091H112.296V314.932H117.66C117.66 314.439 117.561 314 117.364 313.614C117.171 313.227 116.895 312.922 116.535 312.699C116.179 312.475 115.758 312.364 115.273 312.364C114.739 312.364 114.277 312.496 113.887 312.761C113.501 313.023 113.203 313.364 112.995 313.784C112.787 314.205 112.683 314.655 112.683 315.136V315.909C112.683 316.568 112.796 317.127 113.023 317.585C113.254 318.04 113.575 318.386 113.984 318.625C114.393 318.86 114.868 318.977 115.41 318.977C115.762 318.977 116.08 318.928 116.364 318.83C116.652 318.727 116.9 318.576 117.109 318.375C117.317 318.17 117.478 317.917 117.592 317.614L118.887 317.977C118.751 318.417 118.522 318.803 118.2 319.136C117.878 319.466 117.48 319.723 117.006 319.909C116.533 320.091 116.001 320.182 115.41 320.182ZM122.404 308.364V320H121.063V308.364H122.404ZM128.519 320.182C127.678 320.182 126.953 319.996 126.343 319.625C125.737 319.25 125.269 318.727 124.94 318.057C124.614 317.383 124.451 316.598 124.451 315.705C124.451 314.811 124.614 314.023 124.94 313.341C125.269 312.655 125.728 312.121 126.315 311.739C126.906 311.352 127.595 311.159 128.383 311.159C128.837 311.159 129.286 311.235 129.729 311.386C130.173 311.538 130.576 311.784 130.94 312.125C131.303 312.462 131.593 312.909 131.809 313.466C132.025 314.023 132.133 314.708 132.133 315.523V316.091H125.406V314.932H130.769C130.769 314.439 130.671 314 130.474 313.614C130.281 313.227 130.004 312.922 129.644 312.699C129.288 312.475 128.868 312.364 128.383 312.364C127.849 312.364 127.387 312.496 126.996 312.761C126.61 313.023 126.313 313.364 126.104 313.784C125.896 314.205 125.792 314.655 125.792 315.136V315.909C125.792 316.568 125.906 317.127 126.133 317.585C126.364 318.04 126.684 318.386 127.093 318.625C127.502 318.86 127.978 318.977 128.519 318.977C128.871 318.977 129.19 318.928 129.474 318.83C129.762 318.727 130.01 318.576 130.218 318.375C130.426 318.17 130.587 317.917 130.701 317.614L131.996 317.977C131.86 318.417 131.631 318.803 131.309 319.136C130.987 319.466 130.589 319.723 130.116 319.909C129.642 320.091 129.11 320.182 128.519 320.182ZM137.968 311.273V312.409H133.445V311.273H137.968ZM134.763 309.182H136.104V317.5C136.104 317.879 136.159 318.163 136.269 318.352C136.383 318.538 136.527 318.663 136.701 318.727C136.879 318.788 137.067 318.818 137.263 318.818C137.411 318.818 137.532 318.811 137.627 318.795C137.722 318.777 137.798 318.761 137.854 318.75L138.127 319.955C138.036 319.989 137.909 320.023 137.746 320.057C137.584 320.095 137.377 320.114 137.127 320.114C136.748 320.114 136.377 320.032 136.013 319.869C135.654 319.706 135.354 319.458 135.116 319.125C134.881 318.792 134.763 318.371 134.763 317.864V309.182ZM143.55 320.182C142.71 320.182 141.984 319.996 141.374 319.625C140.768 319.25 140.3 318.727 139.971 318.057C139.645 317.383 139.482 316.598 139.482 315.705C139.482 314.811 139.645 314.023 139.971 313.341C140.3 312.655 140.759 312.121 141.346 311.739C141.937 311.352 142.626 311.159 143.414 311.159C143.869 311.159 144.317 311.235 144.761 311.386C145.204 311.538 145.607 311.784 145.971 312.125C146.335 312.462 146.624 312.909 146.84 313.466C147.056 314.023 147.164 314.708 147.164 315.523V316.091H140.437V314.932H145.8C145.8 314.439 145.702 314 145.505 313.614C145.312 313.227 145.035 312.922 144.675 312.699C144.319 312.475 143.899 312.364 143.414 312.364C142.88 312.364 142.418 312.496 142.028 312.761C141.641 313.023 141.344 313.364 141.136 313.784C140.927 314.205 140.823 314.655 140.823 315.136V315.909C140.823 316.568 140.937 317.127 141.164 317.585C141.395 318.04 141.715 318.386 142.124 318.625C142.533 318.86 143.009 318.977 143.55 318.977C143.903 318.977 144.221 318.928 144.505 318.83C144.793 318.727 145.041 318.576 145.249 318.375C145.458 318.17 145.619 317.917 145.732 317.614L147.028 317.977C146.891 318.417 146.662 318.803 146.34 319.136C146.018 319.466 145.621 319.723 145.147 319.909C144.674 320.091 144.141 320.182 143.55 320.182Z" fill="#6F6F6F"/>
<rect x="21.5" y="295.5" width="203" height="37" rx="9.5" stroke="black"/>
<circle cx="123.462" cy="107.462" r="32.5" stroke="black"/>
<path d="M99.981 130.943L145.943 84.981" stroke="black"/>
<path d="M145.943 130.943L99.981 84.981" stroke="black"/>
<circle cx="146.147" cy="130.777" r="11.7331" fill="black" stroke="white"/>
<path d="M137.443 139.481L154.481 122.443" stroke="white"/>
<path d="M154.481 139.481L137.443 122.443" stroke="white"/>
<path d="M79.2138 37V25.3636H86.2365V26.6136H80.6229V30.5455H85.8729V31.7955H80.6229V35.75H86.3274V37H79.2138ZM91.8899 37.1818C91.1626 37.1818 90.5206 36.9981 89.9638 36.6307C89.407 36.2595 88.9714 35.7367 88.657 35.0625C88.3426 34.3845 88.1854 33.5833 88.1854 32.6591C88.1854 31.7424 88.3426 30.947 88.657 30.2727C88.9714 29.5985 89.4089 29.0777 89.9695 28.7102C90.5301 28.3428 91.1778 28.1591 91.9126 28.1591C92.4808 28.1591 92.9297 28.2538 93.2592 28.4432C93.5926 28.6288 93.8464 28.8409 94.0206 29.0795C94.1986 29.3144 94.3369 29.5076 94.4354 29.6591H94.549V25.3636H95.8899V37H94.5945V35.6591H94.4354C94.3369 35.8182 94.1967 36.0189 94.0149 36.2614C93.8331 36.5 93.5736 36.714 93.2365 36.9034C92.8994 37.089 92.4505 37.1818 91.8899 37.1818ZM92.0717 35.9773C92.6096 35.9773 93.0642 35.8371 93.4354 35.5568C93.8066 35.2727 94.0888 34.8807 94.282 34.3807C94.4751 33.8769 94.5717 33.2955 94.5717 32.6364C94.5717 31.9848 94.477 31.4148 94.2876 30.9261C94.0982 30.4337 93.8179 30.0511 93.4467 29.7784C93.0755 29.5019 92.6172 29.3636 92.0717 29.3636C91.5036 29.3636 91.0301 29.5095 90.6513 29.8011C90.2763 30.089 89.9941 30.4811 89.8047 30.9773C89.6191 31.4697 89.5263 32.0227 89.5263 32.6364C89.5263 33.2576 89.621 33.822 89.8104 34.3295C90.0036 34.8333 90.2876 35.2348 90.6626 35.5341C91.0414 35.8295 91.5111 35.9773 92.0717 35.9773ZM98.532 37V28.2727H99.8729V37H98.532ZM99.2138 26.8182C98.9524 26.8182 98.727 26.7292 98.5376 26.5511C98.352 26.3731 98.2592 26.1591 98.2592 25.9091C98.2592 25.6591 98.352 25.4451 98.5376 25.267C98.727 25.089 98.9524 25 99.2138 25C99.4751 25 99.6986 25.089 99.8842 25.267C100.074 25.4451 100.168 25.6591 100.168 25.9091C100.168 26.1591 100.074 26.3731 99.8842 26.5511C99.6986 26.7292 99.4751 26.8182 99.2138 26.8182ZM106.124 28.2727V29.4091H101.602V28.2727H106.124ZM102.92 26.1818H104.261V34.5C104.261 34.8788 104.316 35.1629 104.425 35.3523C104.539 35.5379 104.683 35.6629 104.857 35.7273C105.035 35.7879 105.223 35.8182 105.42 35.8182C105.567 35.8182 105.689 35.8106 105.783 35.7955C105.878 35.7765 105.954 35.7614 106.011 35.75L106.283 36.9545C106.192 36.9886 106.066 37.0227 105.903 37.0568C105.74 37.0947 105.533 37.1136 105.283 37.1136C104.905 37.1136 104.533 37.0322 104.17 36.8693C103.81 36.7064 103.511 36.4583 103.272 36.125C103.037 35.7917 102.92 35.3712 102.92 34.8636V26.1818ZM113.3 37H111.823L116.096 25.3636H117.55L121.823 37H120.346L116.869 27.2045H116.778L113.3 37ZM113.846 32.4545H119.8V33.7045H113.846V32.4545ZM126.999 37.1818C126.181 37.1818 125.477 36.9886 124.886 36.6023C124.295 36.2159 123.84 35.6837 123.522 35.0057C123.204 34.3277 123.045 33.553 123.045 32.6818C123.045 31.7955 123.208 31.0133 123.533 30.3352C123.863 29.6534 124.321 29.1212 124.908 28.7386C125.499 28.3523 126.189 28.1591 126.977 28.1591C127.59 28.1591 128.143 28.2727 128.636 28.5C129.128 28.7273 129.531 29.0455 129.846 29.4545C130.16 29.8636 130.355 30.3409 130.431 30.8864H129.09C128.988 30.4886 128.761 30.1364 128.408 29.8295C128.06 29.5189 127.59 29.3636 126.999 29.3636C126.477 29.3636 126.018 29.5 125.624 29.7727C125.234 30.0417 124.929 30.4223 124.71 30.9148C124.494 31.4034 124.386 31.9773 124.386 32.6364C124.386 33.3106 124.492 33.8977 124.704 34.3977C124.92 34.8977 125.223 35.286 125.613 35.5625C126.007 35.839 126.469 35.9773 126.999 35.9773C127.348 35.9773 127.664 35.9167 127.948 35.7955C128.232 35.6742 128.473 35.5 128.67 35.2727C128.867 35.0455 129.007 34.7727 129.09 34.4545H130.431C130.355 34.9697 130.168 35.4337 129.869 35.8466C129.573 36.2557 129.181 36.5814 128.692 36.8239C128.208 37.0625 127.643 37.1818 126.999 37.1818ZM136.187 28.2727V29.4091H131.664V28.2727H136.187ZM132.982 26.1818H134.323V34.5C134.323 34.8788 134.378 35.1629 134.488 35.3523C134.602 35.5379 134.746 35.6629 134.92 35.7273C135.098 35.7879 135.285 35.8182 135.482 35.8182C135.63 35.8182 135.751 35.8106 135.846 35.7955C135.941 35.7765 136.016 35.7614 136.073 35.75L136.346 36.9545C136.255 36.9886 136.128 37.0227 135.965 37.0568C135.802 37.0947 135.596 37.1136 135.346 37.1136C134.967 37.1136 134.596 37.0322 134.232 36.8693C133.872 36.7064 133.573 36.4583 133.335 36.125C133.1 35.7917 132.982 35.3712 132.982 34.8636V26.1818ZM138.204 37V28.2727H139.545V37H138.204ZM138.886 26.8182C138.624 26.8182 138.399 26.7292 138.21 26.5511C138.024 26.3731 137.931 26.1591 137.931 25.9091C137.931 25.6591 138.024 25.4451 138.21 25.267C138.399 25.089 138.624 25 138.886 25C139.147 25 139.371 25.089 139.556 25.267C139.746 25.4451 139.84 25.6591 139.84 25.9091C139.84 26.1591 139.746 26.3731 139.556 26.5511C139.371 26.7292 139.147 26.8182 138.886 26.8182ZM149.137 28.2727L145.91 37H144.546L141.319 28.2727H142.773L145.183 35.2273H145.273L147.683 28.2727H149.137ZM150.907 37V28.2727H152.248V37H150.907ZM151.589 26.8182C151.327 26.8182 151.102 26.7292 150.913 26.5511C150.727 26.3731 150.634 26.1591 150.634 25.9091C150.634 25.6591 150.727 25.4451 150.913 25.267C151.102 25.089 151.327 25 151.589 25C151.85 25 152.074 25.089 152.259 25.267C152.449 25.4451 152.543 25.6591 152.543 25.9091C152.543 26.1591 152.449 26.3731 152.259 26.5511C152.074 26.7292 151.85 26.8182 151.589 26.8182ZM158.499 28.2727V29.4091H153.977V28.2727H158.499ZM155.295 26.1818H156.636V34.5C156.636 34.8788 156.691 35.1629 156.8 35.3523C156.914 35.5379 157.058 35.6629 157.232 35.7273C157.41 35.7879 157.598 35.8182 157.795 35.8182C157.942 35.8182 158.064 35.8106 158.158 35.7955C158.253 35.7765 158.329 35.7614 158.386 35.75L158.658 36.9545C158.567 36.9886 158.441 37.0227 158.278 37.0568C158.115 37.0947 157.908 37.1136 157.658 37.1136C157.28 37.1136 156.908 37.0322 156.545 36.8693C156.185 36.7064 155.886 36.4583 155.647 36.125C155.412 35.7917 155.295 35.3712 155.295 34.8636V26.1818ZM161.38 40.2727C161.153 40.2727 160.95 40.2538 160.772 40.2159C160.594 40.1818 160.471 40.1477 160.403 40.1136L160.744 38.9318C161.069 39.0152 161.357 39.0455 161.607 39.0227C161.857 39 162.079 38.8883 162.272 38.6875C162.469 38.4905 162.649 38.1705 162.812 37.7273L163.062 37.0455L159.835 28.2727H161.289L163.698 35.2273H163.789L166.198 28.2727H167.653L163.948 38.2727C163.781 38.7235 163.575 39.0966 163.329 39.392C163.083 39.6913 162.797 39.9129 162.471 40.0568C162.149 40.2008 161.785 40.2727 161.38 40.2727Z" fill="black"/>
<rect x="21.5" y="188.5" width="203" height="37" rx="9.5" stroke="black"/>
<path d="M31.6364 167.364V179H30.2727L23.9318 169.864H23.8182V179H22.4091V167.364H23.7727L30.1364 176.523H30.25V167.364H31.6364ZM36.8423 179.205C36.2893 179.205 35.7874 179.1 35.3366 178.892C34.8859 178.68 34.5279 178.375 34.2628 177.977C33.9976 177.576 33.8651 177.091 33.8651 176.523C33.8651 176.023 33.9635 175.617 34.1605 175.307C34.3575 174.992 34.6207 174.746 34.9503 174.568C35.2798 174.39 35.6435 174.258 36.0412 174.17C36.4427 174.08 36.8461 174.008 37.2514 173.955C37.7817 173.886 38.2116 173.835 38.5412 173.801C38.8745 173.763 39.117 173.701 39.2685 173.614C39.4238 173.527 39.5014 173.375 39.5014 173.159V173.114C39.5014 172.553 39.348 172.117 39.0412 171.807C38.7382 171.496 38.2779 171.341 37.6605 171.341C37.0204 171.341 36.5185 171.481 36.1548 171.761C35.7912 172.042 35.5355 172.341 35.3878 172.659L34.1151 172.205C34.3423 171.674 34.6454 171.261 35.0241 170.966C35.4067 170.667 35.8234 170.458 36.2741 170.341C36.7287 170.22 37.1757 170.159 37.6151 170.159C37.8954 170.159 38.2173 170.193 38.581 170.261C38.9484 170.326 39.3026 170.46 39.6435 170.665C39.9882 170.869 40.2741 171.178 40.5014 171.591C40.7287 172.004 40.8423 172.557 40.8423 173.25V179H39.5014V177.818H39.4332C39.3423 178.008 39.1908 178.21 38.9787 178.426C38.7666 178.642 38.4844 178.826 38.1321 178.977C37.7798 179.129 37.3499 179.205 36.8423 179.205ZM37.0469 178C37.5772 178 38.0241 177.896 38.3878 177.688C38.7552 177.479 39.0317 177.21 39.2173 176.881C39.4067 176.551 39.5014 176.205 39.5014 175.841V174.614C39.4446 174.682 39.3196 174.744 39.1264 174.801C38.937 174.854 38.7173 174.902 38.4673 174.943C38.2211 174.981 37.9806 175.015 37.7457 175.045C37.5147 175.072 37.3272 175.095 37.1832 175.114C36.8348 175.159 36.509 175.233 36.206 175.335C35.9067 175.434 35.6643 175.583 35.4787 175.784C35.2969 175.981 35.206 176.25 35.206 176.591C35.206 177.057 35.3783 177.409 35.723 177.648C36.0715 177.883 36.5128 178 37.0469 178ZM43.2898 179V170.273H44.5852V171.636H44.6989C44.8807 171.17 45.1742 170.809 45.5795 170.551C45.9848 170.29 46.4716 170.159 47.0398 170.159C47.6155 170.159 48.0947 170.29 48.4773 170.551C48.8636 170.809 49.1648 171.17 49.3807 171.636H49.4716C49.6951 171.186 50.0303 170.828 50.4773 170.562C50.9242 170.294 51.4602 170.159 52.0852 170.159C52.8655 170.159 53.5038 170.403 54 170.892C54.4962 171.377 54.7443 172.133 54.7443 173.159V179H53.4034V173.159C53.4034 172.515 53.2273 172.055 52.875 171.778C52.5227 171.502 52.108 171.364 51.6307 171.364C51.017 171.364 50.5417 171.549 50.2045 171.92C49.8674 172.288 49.6989 172.754 49.6989 173.318V179H48.3352V173.023C48.3352 172.527 48.1742 172.127 47.8523 171.824C47.5303 171.517 47.1155 171.364 46.608 171.364C46.2595 171.364 45.9337 171.456 45.6307 171.642C45.3314 171.828 45.089 172.085 44.9034 172.415C44.7216 172.741 44.6307 173.117 44.6307 173.545V179H43.2898ZM60.8551 179.182C60.0142 179.182 59.2888 178.996 58.679 178.625C58.0729 178.25 57.6051 177.727 57.2756 177.057C56.9498 176.383 56.7869 175.598 56.7869 174.705C56.7869 173.811 56.9498 173.023 57.2756 172.341C57.6051 171.655 58.0634 171.121 58.6506 170.739C59.2415 170.352 59.9309 170.159 60.7188 170.159C61.1733 170.159 61.6222 170.235 62.0653 170.386C62.5085 170.538 62.9119 170.784 63.2756 171.125C63.6392 171.462 63.929 171.909 64.1449 172.466C64.3608 173.023 64.4688 173.708 64.4688 174.523V175.091H57.7415V173.932H63.1051C63.1051 173.439 63.0066 173 62.8097 172.614C62.6165 172.227 62.34 171.922 61.9801 171.699C61.6241 171.475 61.2036 171.364 60.7188 171.364C60.1847 171.364 59.7225 171.496 59.3324 171.761C58.946 172.023 58.6487 172.364 58.4403 172.784C58.232 173.205 58.1278 173.655 58.1278 174.136V174.909C58.1278 175.568 58.2415 176.127 58.4688 176.585C58.6998 177.04 59.0199 177.386 59.429 177.625C59.8381 177.86 60.3134 177.977 60.8551 177.977C61.2074 177.977 61.5256 177.928 61.8097 177.83C62.0975 177.727 62.3456 177.576 62.554 177.375C62.7623 177.17 62.9233 176.917 63.0369 176.614L64.3324 176.977C64.196 177.417 63.9669 177.803 63.6449 178.136C63.3229 178.466 62.9252 178.723 62.4517 178.909C61.9782 179.091 61.446 179.182 60.8551 179.182Z" fill="black"/>
<path d="M39.3636 205C39.2386 204.617 39.0739 204.275 38.8693 203.972C38.6686 203.665 38.428 203.403 38.1477 203.188C37.8712 202.972 37.5568 202.807 37.2045 202.693C36.8523 202.58 36.4659 202.523 36.0455 202.523C35.3561 202.523 34.7292 202.701 34.1648 203.057C33.6004 203.413 33.1515 203.938 32.8182 204.631C32.4848 205.324 32.3182 206.174 32.3182 207.182C32.3182 208.189 32.4867 209.04 32.8239 209.733C33.161 210.426 33.6174 210.951 34.1932 211.307C34.7689 211.663 35.4167 211.841 36.1364 211.841C36.803 211.841 37.3902 211.699 37.8977 211.415C38.4091 211.127 38.8068 210.722 39.0909 210.199C39.3788 209.672 39.5227 209.053 39.5227 208.341L39.9545 208.432H36.4545V207.182H40.8864V208.432C40.8864 209.39 40.6818 210.223 40.2727 210.932C39.8674 211.64 39.3068 212.189 38.5909 212.58C37.8788 212.966 37.0606 213.159 36.1364 213.159C35.1061 213.159 34.2008 212.917 33.4205 212.432C32.6439 211.947 32.0379 211.258 31.6023 210.364C31.1705 209.47 30.9545 208.409 30.9545 207.182C30.9545 206.261 31.0777 205.434 31.3239 204.699C31.5739 203.96 31.9261 203.331 32.3807 202.812C32.8352 202.294 33.3731 201.896 33.9943 201.619C34.6155 201.343 35.2992 201.205 36.0455 201.205C36.6591 201.205 37.2311 201.297 37.7614 201.483C38.2955 201.665 38.7708 201.924 39.1875 202.261C39.608 202.595 39.9583 202.994 40.2386 203.46C40.5189 203.922 40.7121 204.436 40.8182 205H39.3636ZM43.9815 216.273C43.7543 216.273 43.5516 216.254 43.3736 216.216C43.1955 216.182 43.0724 216.148 43.0043 216.114L43.3452 214.932C43.6709 215.015 43.9588 215.045 44.2088 215.023C44.4588 215 44.6804 214.888 44.8736 214.688C45.0705 214.491 45.2505 214.17 45.4134 213.727L45.6634 213.045L42.4361 204.273H43.8906L46.2997 211.227H46.3906L48.7997 204.273H50.2543L46.5497 214.273C46.383 214.723 46.1766 215.097 45.9304 215.392C45.6842 215.691 45.3982 215.913 45.0724 216.057C44.7505 216.201 44.3868 216.273 43.9815 216.273ZM52.0241 213V204.273H53.3196V205.636H53.4332C53.6151 205.17 53.9086 204.809 54.3139 204.551C54.7192 204.29 55.206 204.159 55.7741 204.159C56.3499 204.159 56.8291 204.29 57.2116 204.551C57.598 204.809 57.8991 205.17 58.1151 205.636H58.206C58.4295 205.186 58.7647 204.828 59.2116 204.562C59.6586 204.294 60.1946 204.159 60.8196 204.159C61.5999 204.159 62.2382 204.403 62.7344 204.892C63.2306 205.377 63.4787 206.133 63.4787 207.159V213H62.1378V207.159C62.1378 206.515 61.9616 206.055 61.6094 205.778C61.2571 205.502 60.8423 205.364 60.3651 205.364C59.7514 205.364 59.276 205.549 58.9389 205.92C58.6018 206.288 58.4332 206.754 58.4332 207.318V213H57.0696V207.023C57.0696 206.527 56.9086 206.127 56.5866 205.824C56.2647 205.517 55.8499 205.364 55.3423 205.364C54.9938 205.364 54.6681 205.456 54.3651 205.642C54.0658 205.828 53.8234 206.085 53.6378 206.415C53.456 206.741 53.3651 207.117 53.3651 207.545V213H52.0241Z" fill="black"/>
</svg>
