<svg width="247" height="356" viewBox="0 0 247 356" fill="none" xmlns="http://www.w3.org/2000/svg">
<rect x="1" y="1" width="245" height="354" rx="8" fill="white"/>
<rect x="1" y="1" width="245" height="354" rx="8" stroke="black"/>
<rect x="21.5" y="247.5" width="203" height="37" rx="9.5" fill="black" stroke="black"/>
<path d="M108.929 264H107.52C107.437 263.595 107.291 263.239 107.082 262.932C106.878 262.625 106.628 262.367 106.332 262.159C106.041 261.947 105.717 261.788 105.361 261.682C105.005 261.576 104.634 261.523 104.247 261.523C103.543 261.523 102.904 261.701 102.332 262.057C101.764 262.413 101.312 262.938 100.974 263.631C100.641 264.324 100.474 265.174 100.474 266.182C100.474 267.189 100.641 268.04 100.974 268.733C101.312 269.426 101.764 269.951 102.332 270.307C102.904 270.663 103.543 270.841 104.247 270.841C104.634 270.841 105.005 270.788 105.361 270.682C105.717 270.576 106.041 270.419 106.332 270.21C106.628 269.998 106.878 269.739 107.082 269.432C107.291 269.121 107.437 268.765 107.52 268.364H108.929C108.823 268.958 108.63 269.491 108.349 269.96C108.069 270.43 107.721 270.83 107.304 271.159C106.887 271.485 106.42 271.733 105.901 271.903C105.385 272.074 104.834 272.159 104.247 272.159C103.255 272.159 102.372 271.917 101.599 271.432C100.827 270.947 100.219 270.258 99.7756 269.364C99.3324 268.47 99.1108 267.409 99.1108 266.182C99.1108 264.955 99.3324 263.894 99.7756 263C100.219 262.106 100.827 261.417 101.599 260.932C102.372 260.447 103.255 260.205 104.247 260.205C104.834 260.205 105.385 260.29 105.901 260.46C106.42 260.631 106.887 260.881 107.304 261.21C107.721 261.536 108.069 261.934 108.349 262.403C108.63 262.869 108.823 263.402 108.929 264ZM111.024 272V263.273H112.32V264.591H112.411C112.57 264.159 112.857 263.809 113.274 263.54C113.691 263.271 114.161 263.136 114.683 263.136C114.782 263.136 114.905 263.138 115.053 263.142C115.2 263.146 115.312 263.152 115.388 263.159V264.523C115.342 264.511 115.238 264.494 115.075 264.472C114.916 264.445 114.748 264.432 114.57 264.432C114.145 264.432 113.767 264.521 113.433 264.699C113.104 264.873 112.842 265.116 112.649 265.426C112.46 265.733 112.365 266.083 112.365 266.477V272H111.024ZM120.371 272.182C119.53 272.182 118.804 271.996 118.195 271.625C117.589 271.25 117.121 270.727 116.791 270.057C116.465 269.383 116.303 268.598 116.303 267.705C116.303 266.811 116.465 266.023 116.791 265.341C117.121 264.655 117.579 264.121 118.166 263.739C118.757 263.352 119.446 263.159 120.234 263.159C120.689 263.159 121.138 263.235 121.581 263.386C122.024 263.538 122.428 263.784 122.791 264.125C123.155 264.462 123.445 264.909 123.661 265.466C123.876 266.023 123.984 266.708 123.984 267.523V268.091H117.257V266.932H122.621C122.621 266.439 122.522 266 122.325 265.614C122.132 265.227 121.856 264.922 121.496 264.699C121.14 264.475 120.719 264.364 120.234 264.364C119.7 264.364 119.238 264.496 118.848 264.761C118.462 265.023 118.164 265.364 117.956 265.784C117.748 266.205 117.643 266.655 117.643 267.136V267.909C117.643 268.568 117.757 269.127 117.984 269.585C118.215 270.04 118.536 270.386 118.945 270.625C119.354 270.86 119.829 270.977 120.371 270.977C120.723 270.977 121.041 270.928 121.325 270.83C121.613 270.727 121.861 270.576 122.07 270.375C122.278 270.17 122.439 269.917 122.553 269.614L123.848 269.977C123.712 270.417 123.482 270.803 123.161 271.136C122.839 271.466 122.441 271.723 121.967 271.909C121.494 272.091 120.962 272.182 120.371 272.182ZM128.592 272.205C128.039 272.205 127.537 272.1 127.087 271.892C126.636 271.68 126.278 271.375 126.013 270.977C125.748 270.576 125.615 270.091 125.615 269.523C125.615 269.023 125.714 268.617 125.911 268.307C126.107 267.992 126.371 267.746 126.7 267.568C127.03 267.39 127.393 267.258 127.791 267.17C128.193 267.08 128.596 267.008 129.001 266.955C129.532 266.886 129.962 266.835 130.291 266.801C130.625 266.763 130.867 266.701 131.018 266.614C131.174 266.527 131.251 266.375 131.251 266.159V266.114C131.251 265.553 131.098 265.117 130.791 264.807C130.488 264.496 130.028 264.341 129.411 264.341C128.77 264.341 128.268 264.481 127.905 264.761C127.541 265.042 127.286 265.341 127.138 265.659L125.865 265.205C126.092 264.674 126.395 264.261 126.774 263.966C127.157 263.667 127.573 263.458 128.024 263.341C128.479 263.22 128.926 263.159 129.365 263.159C129.645 263.159 129.967 263.193 130.331 263.261C130.698 263.326 131.053 263.46 131.393 263.665C131.738 263.869 132.024 264.178 132.251 264.591C132.479 265.004 132.592 265.557 132.592 266.25V272H131.251V270.818H131.183C131.092 271.008 130.941 271.21 130.729 271.426C130.517 271.642 130.234 271.826 129.882 271.977C129.53 272.129 129.1 272.205 128.592 272.205ZM128.797 271C129.327 271 129.774 270.896 130.138 270.688C130.505 270.479 130.782 270.21 130.967 269.881C131.157 269.551 131.251 269.205 131.251 268.841V267.614C131.195 267.682 131.07 267.744 130.876 267.801C130.687 267.854 130.467 267.902 130.217 267.943C129.971 267.981 129.731 268.015 129.496 268.045C129.265 268.072 129.077 268.095 128.933 268.114C128.585 268.159 128.259 268.233 127.956 268.335C127.657 268.434 127.414 268.583 127.229 268.784C127.047 268.981 126.956 269.25 126.956 269.591C126.956 270.057 127.128 270.409 127.473 270.648C127.821 270.883 128.263 271 128.797 271ZM138.835 263.273V264.409H134.312V263.273H138.835ZM135.631 261.182H136.972V269.5C136.972 269.879 137.027 270.163 137.136 270.352C137.25 270.538 137.394 270.663 137.568 270.727C137.746 270.788 137.934 270.818 138.131 270.818C138.278 270.818 138.4 270.811 138.494 270.795C138.589 270.777 138.665 270.761 138.722 270.75L138.994 271.955C138.903 271.989 138.777 272.023 138.614 272.057C138.451 272.095 138.244 272.114 137.994 272.114C137.616 272.114 137.244 272.032 136.881 271.869C136.521 271.706 136.222 271.458 135.983 271.125C135.748 270.792 135.631 270.371 135.631 269.864V261.182ZM144.418 272.182C143.577 272.182 142.851 271.996 142.241 271.625C141.635 271.25 141.168 270.727 140.838 270.057C140.512 269.383 140.349 268.598 140.349 267.705C140.349 266.811 140.512 266.023 140.838 265.341C141.168 264.655 141.626 264.121 142.213 263.739C142.804 263.352 143.493 263.159 144.281 263.159C144.736 263.159 145.185 263.235 145.628 263.386C146.071 263.538 146.474 263.784 146.838 264.125C147.202 264.462 147.491 264.909 147.707 265.466C147.923 266.023 148.031 266.708 148.031 267.523V268.091H141.304V266.932H146.668C146.668 266.439 146.569 266 146.372 265.614C146.179 265.227 145.902 264.922 145.543 264.699C145.187 264.475 144.766 264.364 144.281 264.364C143.747 264.364 143.285 264.496 142.895 264.761C142.509 265.023 142.211 265.364 142.003 265.784C141.795 266.205 141.69 266.655 141.69 267.136V267.909C141.69 268.568 141.804 269.127 142.031 269.585C142.262 270.04 142.582 270.386 142.991 270.625C143.401 270.86 143.876 270.977 144.418 270.977C144.77 270.977 145.088 270.928 145.372 270.83C145.66 270.727 145.908 270.576 146.116 270.375C146.325 270.17 146.486 269.917 146.599 269.614L147.895 269.977C147.759 270.417 147.529 270.803 147.207 271.136C146.885 271.466 146.488 271.723 146.014 271.909C145.541 272.091 145.009 272.182 144.418 272.182Z" fill="white"/>
<path d="M108.241 313H106.832C106.749 312.595 106.603 312.239 106.395 311.932C106.19 311.625 105.94 311.367 105.645 311.159C105.353 310.947 105.029 310.788 104.673 310.682C104.317 310.576 103.946 310.523 103.56 310.523C102.855 310.523 102.217 310.701 101.645 311.057C101.077 311.413 100.624 311.938 100.287 312.631C99.9536 313.324 99.7869 314.174 99.7869 315.182C99.7869 316.189 99.9536 317.04 100.287 317.733C100.624 318.426 101.077 318.951 101.645 319.307C102.217 319.663 102.855 319.841 103.56 319.841C103.946 319.841 104.317 319.788 104.673 319.682C105.029 319.576 105.353 319.419 105.645 319.21C105.94 318.998 106.19 318.739 106.395 318.432C106.603 318.121 106.749 317.765 106.832 317.364H108.241C108.135 317.958 107.942 318.491 107.662 318.96C107.382 319.43 107.033 319.83 106.616 320.159C106.2 320.485 105.732 320.733 105.213 320.903C104.698 321.074 104.147 321.159 103.56 321.159C102.567 321.159 101.685 320.917 100.912 320.432C100.139 319.947 99.5313 319.258 99.0881 318.364C98.6449 317.47 98.4233 316.409 98.4233 315.182C98.4233 313.955 98.6449 312.894 99.0881 312C99.5313 311.106 100.139 310.417 100.912 309.932C101.685 309.447 102.567 309.205 103.56 309.205C104.147 309.205 104.698 309.29 105.213 309.46C105.732 309.631 106.2 309.881 106.616 310.21C107.033 310.536 107.382 310.934 107.662 311.403C107.942 311.869 108.135 312.402 108.241 313ZM112.905 321.205C112.352 321.205 111.85 321.1 111.399 320.892C110.948 320.68 110.59 320.375 110.325 319.977C110.06 319.576 109.928 319.091 109.928 318.523C109.928 318.023 110.026 317.617 110.223 317.307C110.42 316.992 110.683 316.746 111.013 316.568C111.342 316.39 111.706 316.258 112.104 316.17C112.505 316.08 112.909 316.008 113.314 315.955C113.844 315.886 114.274 315.835 114.604 315.801C114.937 315.763 115.179 315.701 115.331 315.614C115.486 315.527 115.564 315.375 115.564 315.159V315.114C115.564 314.553 115.411 314.117 115.104 313.807C114.801 313.496 114.34 313.341 113.723 313.341C113.083 313.341 112.581 313.481 112.217 313.761C111.854 314.042 111.598 314.341 111.45 314.659L110.178 314.205C110.405 313.674 110.708 313.261 111.087 312.966C111.469 312.667 111.886 312.458 112.337 312.341C112.791 312.22 113.238 312.159 113.678 312.159C113.958 312.159 114.28 312.193 114.643 312.261C115.011 312.326 115.365 312.46 115.706 312.665C116.051 312.869 116.337 313.178 116.564 313.591C116.791 314.004 116.905 314.557 116.905 315.25V321H115.564V319.818H115.496C115.405 320.008 115.253 320.21 115.041 320.426C114.829 320.642 114.547 320.826 114.195 320.977C113.842 321.129 113.412 321.205 112.905 321.205ZM113.109 320C113.64 320 114.087 319.896 114.45 319.688C114.818 319.479 115.094 319.21 115.28 318.881C115.469 318.551 115.564 318.205 115.564 317.841V316.614C115.507 316.682 115.382 316.744 115.189 316.801C115 316.854 114.78 316.902 114.53 316.943C114.284 316.981 114.043 317.015 113.808 317.045C113.577 317.072 113.39 317.095 113.246 317.114C112.897 317.159 112.571 317.233 112.268 317.335C111.969 317.434 111.727 317.583 111.541 317.784C111.359 317.981 111.268 318.25 111.268 318.591C111.268 319.057 111.441 319.409 111.786 319.648C112.134 319.883 112.575 320 113.109 320ZM120.693 315.75V321H119.352V312.273H120.648V313.636H120.761C120.966 313.193 121.277 312.837 121.693 312.568C122.11 312.295 122.648 312.159 123.307 312.159C123.898 312.159 124.415 312.28 124.858 312.523C125.301 312.761 125.646 313.125 125.892 313.614C126.138 314.098 126.261 314.712 126.261 315.455V321H124.92V315.545C124.92 314.86 124.742 314.326 124.386 313.943C124.03 313.557 123.542 313.364 122.92 313.364C122.492 313.364 122.11 313.456 121.773 313.642C121.439 313.828 121.176 314.098 120.983 314.455C120.79 314.811 120.693 315.242 120.693 315.75ZM132.257 321.182C131.439 321.182 130.734 320.989 130.143 320.602C129.553 320.216 129.098 319.684 128.78 319.006C128.462 318.328 128.303 317.553 128.303 316.682C128.303 315.795 128.465 315.013 128.791 314.335C129.121 313.653 129.579 313.121 130.166 312.739C130.757 312.352 131.446 312.159 132.234 312.159C132.848 312.159 133.401 312.273 133.893 312.5C134.386 312.727 134.789 313.045 135.104 313.455C135.418 313.864 135.613 314.341 135.689 314.886H134.348C134.246 314.489 134.018 314.136 133.666 313.83C133.318 313.519 132.848 313.364 132.257 313.364C131.734 313.364 131.276 313.5 130.882 313.773C130.492 314.042 130.187 314.422 129.967 314.915C129.751 315.403 129.643 315.977 129.643 316.636C129.643 317.311 129.75 317.898 129.962 318.398C130.178 318.898 130.481 319.286 130.871 319.562C131.265 319.839 131.727 319.977 132.257 319.977C132.606 319.977 132.922 319.917 133.206 319.795C133.49 319.674 133.731 319.5 133.928 319.273C134.125 319.045 134.265 318.773 134.348 318.455H135.689C135.613 318.97 135.426 319.434 135.126 319.847C134.831 320.256 134.439 320.581 133.95 320.824C133.465 321.062 132.901 321.182 132.257 321.182ZM141.308 321.182C140.467 321.182 139.742 320.996 139.132 320.625C138.526 320.25 138.058 319.727 137.729 319.057C137.403 318.383 137.24 317.598 137.24 316.705C137.24 315.811 137.403 315.023 137.729 314.341C138.058 313.655 138.517 313.121 139.104 312.739C139.695 312.352 140.384 312.159 141.172 312.159C141.626 312.159 142.075 312.235 142.518 312.386C142.962 312.538 143.365 312.784 143.729 313.125C144.092 313.462 144.382 313.909 144.598 314.466C144.814 315.023 144.922 315.708 144.922 316.523V317.091H138.195V315.932H143.558C143.558 315.439 143.46 315 143.263 314.614C143.07 314.227 142.793 313.922 142.433 313.699C142.077 313.475 141.657 313.364 141.172 313.364C140.638 313.364 140.176 313.496 139.786 313.761C139.399 314.023 139.102 314.364 138.893 314.784C138.685 315.205 138.581 315.655 138.581 316.136V316.909C138.581 317.568 138.695 318.127 138.922 318.585C139.153 319.04 139.473 319.386 139.882 319.625C140.291 319.86 140.767 319.977 141.308 319.977C141.661 319.977 141.979 319.928 142.263 319.83C142.551 319.727 142.799 319.576 143.007 319.375C143.215 319.17 143.376 318.917 143.49 318.614L144.786 318.977C144.649 319.417 144.42 319.803 144.098 320.136C143.776 320.466 143.378 320.723 142.905 320.909C142.431 321.091 141.899 321.182 141.308 321.182ZM148.303 309.364V321H146.962V309.364H148.303Z" fill="black"/>
<rect x="21.5" y="296.5" width="203" height="37" rx="9.5" stroke="black"/>
<circle cx="123.462" cy="106.462" r="32.5" stroke="black" stroke-dasharray="4 4"/>
<circle cx="146.147" cy="130.777" r="11.7331" fill="black" stroke="white"/>
<path d="M137.443 139.481L154.481 122.443" stroke="white"/>
<path d="M154.481 139.481L137.443 122.443" stroke="white"/>
<rect x="21.5" y="187.5" width="203" height="37" rx="9.5" stroke="black"/>
<path d="M31.6364 166.364V178H30.2727L23.9318 168.864H23.8182V178H22.4091V166.364H23.7727L30.1364 175.523H30.25V166.364H31.6364ZM36.8423 178.205C36.2893 178.205 35.7874 178.1 35.3366 177.892C34.8859 177.68 34.5279 177.375 34.2628 176.977C33.9976 176.576 33.8651 176.091 33.8651 175.523C33.8651 175.023 33.9635 174.617 34.1605 174.307C34.3575 173.992 34.6207 173.746 34.9503 173.568C35.2798 173.39 35.6435 173.258 36.0412 173.17C36.4427 173.08 36.8461 173.008 37.2514 172.955C37.7817 172.886 38.2116 172.835 38.5412 172.801C38.8745 172.763 39.117 172.701 39.2685 172.614C39.4238 172.527 39.5014 172.375 39.5014 172.159V172.114C39.5014 171.553 39.348 171.117 39.0412 170.807C38.7382 170.496 38.2779 170.341 37.6605 170.341C37.0204 170.341 36.5185 170.481 36.1548 170.761C35.7912 171.042 35.5355 171.341 35.3878 171.659L34.1151 171.205C34.3423 170.674 34.6454 170.261 35.0241 169.966C35.4067 169.667 35.8234 169.458 36.2741 169.341C36.7287 169.22 37.1757 169.159 37.6151 169.159C37.8954 169.159 38.2173 169.193 38.581 169.261C38.9484 169.326 39.3026 169.46 39.6435 169.665C39.9882 169.869 40.2741 170.178 40.5014 170.591C40.7287 171.004 40.8423 171.557 40.8423 172.25V178H39.5014V176.818H39.4332C39.3423 177.008 39.1908 177.21 38.9787 177.426C38.7666 177.642 38.4844 177.826 38.1321 177.977C37.7798 178.129 37.3499 178.205 36.8423 178.205ZM37.0469 177C37.5772 177 38.0241 176.896 38.3878 176.688C38.7552 176.479 39.0317 176.21 39.2173 175.881C39.4067 175.551 39.5014 175.205 39.5014 174.841V173.614C39.4446 173.682 39.3196 173.744 39.1264 173.801C38.937 173.854 38.7173 173.902 38.4673 173.943C38.2211 173.981 37.9806 174.015 37.7457 174.045C37.5147 174.072 37.3272 174.095 37.1832 174.114C36.8348 174.159 36.509 174.233 36.206 174.335C35.9067 174.434 35.6643 174.583 35.4787 174.784C35.2969 174.981 35.206 175.25 35.206 175.591C35.206 176.057 35.3783 176.409 35.723 176.648C36.0715 176.883 36.5128 177 37.0469 177ZM43.2898 178V169.273H44.5852V170.636H44.6989C44.8807 170.17 45.1742 169.809 45.5795 169.551C45.9848 169.29 46.4716 169.159 47.0398 169.159C47.6155 169.159 48.0947 169.29 48.4773 169.551C48.8636 169.809 49.1648 170.17 49.3807 170.636H49.4716C49.6951 170.186 50.0303 169.828 50.4773 169.562C50.9242 169.294 51.4602 169.159 52.0852 169.159C52.8655 169.159 53.5038 169.403 54 169.892C54.4962 170.377 54.7443 171.133 54.7443 172.159V178H53.4034V172.159C53.4034 171.515 53.2273 171.055 52.875 170.778C52.5227 170.502 52.108 170.364 51.6307 170.364C51.017 170.364 50.5417 170.549 50.2045 170.92C49.8674 171.288 49.6989 171.754 49.6989 172.318V178H48.3352V172.023C48.3352 171.527 48.1742 171.127 47.8523 170.824C47.5303 170.517 47.1155 170.364 46.608 170.364C46.2595 170.364 45.9337 170.456 45.6307 170.642C45.3314 170.828 45.089 171.085 44.9034 171.415C44.7216 171.741 44.6307 172.117 44.6307 172.545V178H43.2898ZM60.8551 178.182C60.0142 178.182 59.2888 177.996 58.679 177.625C58.0729 177.25 57.6051 176.727 57.2756 176.057C56.9498 175.383 56.7869 174.598 56.7869 173.705C56.7869 172.811 56.9498 172.023 57.2756 171.341C57.6051 170.655 58.0634 170.121 58.6506 169.739C59.2415 169.352 59.9309 169.159 60.7188 169.159C61.1733 169.159 61.6222 169.235 62.0653 169.386C62.5085 169.538 62.9119 169.784 63.2756 170.125C63.6392 170.462 63.929 170.909 64.1449 171.466C64.3608 172.023 64.4688 172.708 64.4688 173.523V174.091H57.7415V172.932H63.1051C63.1051 172.439 63.0066 172 62.8097 171.614C62.6165 171.227 62.34 170.922 61.9801 170.699C61.6241 170.475 61.2036 170.364 60.7188 170.364C60.1847 170.364 59.7225 170.496 59.3324 170.761C58.946 171.023 58.6487 171.364 58.4403 171.784C58.232 172.205 58.1278 172.655 58.1278 173.136V173.909C58.1278 174.568 58.2415 175.127 58.4688 175.585C58.6998 176.04 59.0199 176.386 59.429 176.625C59.8381 176.86 60.3134 176.977 60.8551 176.977C61.2074 176.977 61.5256 176.928 61.8097 176.83C62.0975 176.727 62.3456 176.576 62.554 176.375C62.7623 176.17 62.9233 175.917 63.0369 175.614L64.3324 175.977C64.196 176.417 63.9669 176.803 63.6449 177.136C63.3229 177.466 62.9252 177.723 62.4517 177.909C61.9782 178.091 61.446 178.182 60.8551 178.182Z" fill="black"/>
<path d="M85.8161 24.3636V36H84.4524L78.1115 26.8636H77.9979V36H76.5888V24.3636H77.9524L84.3161 33.5227H84.4297V24.3636H85.8161ZM92.1129 36.1818C91.272 36.1818 90.5466 35.9962 89.9368 35.625C89.3307 35.25 88.8629 34.7273 88.5334 34.0568C88.2076 33.3826 88.0447 32.5985 88.0447 31.7045C88.0447 30.8106 88.2076 30.0227 88.5334 29.3409C88.8629 28.6553 89.3213 28.1212 89.9084 27.7386C90.4993 27.3523 91.1887 27.1591 91.9766 27.1591C92.4311 27.1591 92.88 27.2348 93.3232 27.3864C93.7663 27.5379 94.1697 27.7841 94.5334 28.125C94.897 28.4621 95.1868 28.9091 95.4027 29.4659C95.6186 30.0227 95.7266 30.7083 95.7266 31.5227V32.0909H88.9993V30.9318H94.3629C94.3629 30.4394 94.2644 30 94.0675 29.6136C93.8743 29.2273 93.5978 28.9223 93.2379 28.6989C92.8819 28.4754 92.4614 28.3636 91.9766 28.3636C91.4425 28.3636 90.9804 28.4962 90.5902 28.7614C90.2038 29.0227 89.9065 29.3636 89.6982 29.7841C89.4898 30.2045 89.3857 30.6553 89.3857 31.1364V31.9091C89.3857 32.5682 89.4993 33.1269 89.7266 33.5852C89.9576 34.0398 90.2777 34.3864 90.6868 34.625C91.0959 34.8598 91.5713 34.9773 92.1129 34.9773C92.4652 34.9773 92.7834 34.928 93.0675 34.8295C93.3554 34.7273 93.6035 34.5758 93.8118 34.375C94.0201 34.1705 94.1811 33.9167 94.2947 33.6136L95.5902 33.9773C95.4538 34.4167 95.2247 34.803 94.9027 35.1364C94.5807 35.4659 94.183 35.7235 93.7095 35.9091C93.236 36.0909 92.7038 36.1818 92.1129 36.1818ZM99.7436 36L97.0845 27.2727H98.4936L100.38 33.9545H100.471L102.335 27.2727H103.766L105.607 33.9318H105.698L107.585 27.2727H108.994L106.335 36H105.016L103.107 29.2955H102.971L101.062 36H99.7436ZM115.925 36H114.448L118.721 24.3636H120.175L124.448 36H122.971L119.494 26.2045H119.403L115.925 36ZM116.471 31.4545H122.425V32.7045H116.471V31.4545ZM129.624 36.1818C128.806 36.1818 128.102 35.9886 127.511 35.6023C126.92 35.2159 126.465 34.6837 126.147 34.0057C125.829 33.3277 125.67 32.553 125.67 31.6818C125.67 30.7955 125.833 30.0133 126.158 29.3352C126.488 28.6534 126.946 28.1212 127.533 27.7386C128.124 27.3523 128.814 27.1591 129.602 27.1591C130.215 27.1591 130.768 27.2727 131.261 27.5C131.753 27.7273 132.156 28.0455 132.471 28.4545C132.785 28.8636 132.98 29.3409 133.056 29.8864H131.715C131.613 29.4886 131.386 29.1364 131.033 28.8295C130.685 28.5189 130.215 28.3636 129.624 28.3636C129.102 28.3636 128.643 28.5 128.249 28.7727C127.859 29.0417 127.554 29.4223 127.335 29.9148C127.119 30.4034 127.011 30.9773 127.011 31.6364C127.011 32.3106 127.117 32.8977 127.329 33.3977C127.545 33.8977 127.848 34.286 128.238 34.5625C128.632 34.839 129.094 34.9773 129.624 34.9773C129.973 34.9773 130.289 34.9167 130.573 34.7955C130.857 34.6742 131.098 34.5 131.295 34.2727C131.492 34.0455 131.632 33.7727 131.715 33.4545H133.056C132.98 33.9697 132.793 34.4337 132.494 34.8466C132.198 35.2557 131.806 35.5814 131.317 35.8239C130.833 36.0625 130.268 36.1818 129.624 36.1818ZM138.812 27.2727V28.4091H134.289V27.2727H138.812ZM135.607 25.1818H136.948V33.5C136.948 33.8788 137.003 34.1629 137.113 34.3523C137.227 34.5379 137.371 34.6629 137.545 34.7273C137.723 34.7879 137.91 34.8182 138.107 34.8182C138.255 34.8182 138.376 34.8106 138.471 34.7955C138.566 34.7765 138.641 34.7614 138.698 34.75L138.971 35.9545C138.88 35.9886 138.753 36.0227 138.59 36.0568C138.427 36.0947 138.221 36.1136 137.971 36.1136C137.592 36.1136 137.221 36.0322 136.857 35.8693C136.497 35.7064 136.198 35.4583 135.96 35.125C135.725 34.7917 135.607 34.3712 135.607 33.8636V25.1818ZM140.829 36V27.2727H142.17V36H140.829ZM141.511 25.8182C141.249 25.8182 141.024 25.7292 140.835 25.5511C140.649 25.3731 140.556 25.1591 140.556 24.9091C140.556 24.6591 140.649 24.4451 140.835 24.267C141.024 24.089 141.249 24 141.511 24C141.772 24 141.996 24.089 142.181 24.267C142.371 24.4451 142.465 24.6591 142.465 24.9091C142.465 25.1591 142.371 25.3731 142.181 25.5511C141.996 25.7292 141.772 25.8182 141.511 25.8182ZM151.762 27.2727L148.535 36H147.171L143.944 27.2727H145.398L147.808 34.2273H147.898L150.308 27.2727H151.762ZM153.532 36V27.2727H154.873V36H153.532ZM154.214 25.8182C153.952 25.8182 153.727 25.7292 153.538 25.5511C153.352 25.3731 153.259 25.1591 153.259 24.9091C153.259 24.6591 153.352 24.4451 153.538 24.267C153.727 24.089 153.952 24 154.214 24C154.475 24 154.699 24.089 154.884 24.267C155.074 24.4451 155.168 24.6591 155.168 24.9091C155.168 25.1591 155.074 25.3731 154.884 25.5511C154.699 25.7292 154.475 25.8182 154.214 25.8182ZM161.124 27.2727V28.4091H156.602V27.2727H161.124ZM157.92 25.1818H159.261V33.5C159.261 33.8788 159.316 34.1629 159.425 34.3523C159.539 34.5379 159.683 34.6629 159.857 34.7273C160.035 34.7879 160.223 34.8182 160.42 34.8182C160.567 34.8182 160.689 34.8106 160.783 34.7955C160.878 34.7765 160.954 34.7614 161.011 34.75L161.283 35.9545C161.192 35.9886 161.066 36.0227 160.903 36.0568C160.74 36.0947 160.533 36.1136 160.283 36.1136C159.905 36.1136 159.533 36.0322 159.17 35.8693C158.81 35.7064 158.511 35.4583 158.272 35.125C158.037 34.7917 157.92 34.3712 157.92 33.8636V25.1818ZM164.005 39.2727C163.778 39.2727 163.575 39.2538 163.397 39.2159C163.219 39.1818 163.096 39.1477 163.028 39.1136L163.369 37.9318C163.694 38.0152 163.982 38.0455 164.232 38.0227C164.482 38 164.704 37.8883 164.897 37.6875C165.094 37.4905 165.274 37.1705 165.437 36.7273L165.687 36.0455L162.46 27.2727H163.914L166.323 34.2273H166.414L168.823 27.2727H170.278L166.573 37.2727C166.406 37.7235 166.2 38.0966 165.954 38.392C165.708 38.6913 165.422 38.9129 165.096 39.0568C164.774 39.2008 164.41 39.2727 164.005 39.2727Z" fill="black"/>
</svg>
