<svg width="247" height="326" viewBox="0 0 247 326" fill="none" xmlns="http://www.w3.org/2000/svg">
<rect x="1" y="1" width="245" height="324" rx="8" fill="white"/>
<rect x="1" y="1" width="245" height="324" rx="8" stroke="black"/>
<rect x="21.5" y="217.5" width="203" height="37" rx="9.5" fill="black" stroke="black"/>
<path d="M104.288 234H102.879C102.796 233.595 102.65 233.239 102.442 232.932C102.237 232.625 101.987 232.367 101.692 232.159C101.4 231.947 101.076 231.788 100.72 231.682C100.364 231.576 99.9929 231.523 99.6065 231.523C98.902 231.523 98.2637 231.701 97.6918 232.057C97.1236 232.413 96.6709 232.938 96.3338 233.631C96.0005 234.324 95.8338 235.174 95.8338 236.182C95.8338 237.189 96.0005 238.04 96.3338 238.733C96.6709 239.426 97.1236 239.951 97.6918 240.307C98.2637 240.663 98.902 240.841 99.6065 240.841C99.9929 240.841 100.364 240.788 100.72 240.682C101.076 240.576 101.4 240.419 101.692 240.21C101.987 239.998 102.237 239.739 102.442 239.432C102.65 239.121 102.796 238.765 102.879 238.364H104.288C104.182 238.958 103.989 239.491 103.709 239.96C103.429 240.43 103.08 240.83 102.663 241.159C102.247 241.485 101.779 241.733 101.26 241.903C100.745 242.074 100.194 242.159 99.6065 242.159C98.6141 242.159 97.7315 241.917 96.9588 241.432C96.1861 240.947 95.5781 240.258 95.1349 239.364C94.6918 238.47 94.4702 237.409 94.4702 236.182C94.4702 234.955 94.6918 233.894 95.1349 233C95.5781 232.106 96.1861 231.417 96.9588 230.932C97.7315 230.447 98.6141 230.205 99.6065 230.205C100.194 230.205 100.745 230.29 101.26 230.46C101.779 230.631 102.247 230.881 102.663 231.21C103.08 231.536 103.429 231.934 103.709 232.403C103.989 232.869 104.182 233.402 104.288 234ZM109.929 242.182C109.141 242.182 108.45 241.994 107.855 241.619C107.264 241.244 106.802 240.72 106.469 240.045C106.139 239.371 105.974 238.583 105.974 237.682C105.974 236.773 106.139 235.979 106.469 235.301C106.802 234.623 107.264 234.097 107.855 233.722C108.45 233.347 109.141 233.159 109.929 233.159C110.717 233.159 111.406 233.347 111.997 233.722C112.592 234.097 113.054 234.623 113.384 235.301C113.717 235.979 113.884 236.773 113.884 237.682C113.884 238.583 113.717 239.371 113.384 240.045C113.054 240.72 112.592 241.244 111.997 241.619C111.406 241.994 110.717 242.182 109.929 242.182ZM109.929 240.977C110.527 240.977 111.02 240.824 111.406 240.517C111.793 240.21 112.079 239.807 112.264 239.307C112.45 238.807 112.543 238.265 112.543 237.682C112.543 237.098 112.45 236.555 112.264 236.051C112.079 235.547 111.793 235.14 111.406 234.83C111.02 234.519 110.527 234.364 109.929 234.364C109.33 234.364 108.838 234.519 108.452 234.83C108.065 235.14 107.779 235.547 107.594 236.051C107.408 236.555 107.315 237.098 107.315 237.682C107.315 238.265 107.408 238.807 107.594 239.307C107.779 239.807 108.065 240.21 108.452 240.517C108.838 240.824 109.33 240.977 109.929 240.977ZM117.271 236.75V242H115.93V233.273H117.226V234.636H117.339C117.544 234.193 117.855 233.837 118.271 233.568C118.688 233.295 119.226 233.159 119.885 233.159C120.476 233.159 120.993 233.28 121.436 233.523C121.879 233.761 122.224 234.125 122.47 234.614C122.716 235.098 122.839 235.712 122.839 236.455V242H121.499V236.545C121.499 235.86 121.321 235.326 120.964 234.943C120.608 234.557 120.12 234.364 119.499 234.364C119.071 234.364 118.688 234.456 118.351 234.642C118.018 234.828 117.754 235.098 117.561 235.455C117.368 235.811 117.271 236.242 117.271 236.75ZM129.176 233.273V234.409H124.472V233.273H129.176ZM125.881 242V232.068C125.881 231.568 125.998 231.152 126.233 230.818C126.468 230.485 126.773 230.235 127.148 230.068C127.523 229.902 127.919 229.818 128.335 229.818C128.665 229.818 128.934 229.845 129.142 229.898C129.35 229.951 129.506 230 129.608 230.045L129.222 231.205C129.153 231.182 129.059 231.153 128.938 231.119C128.82 231.085 128.665 231.068 128.472 231.068C128.028 231.068 127.708 231.18 127.511 231.403C127.318 231.627 127.222 231.955 127.222 232.386V242H125.881ZM131.055 242V233.273H132.396V242H131.055ZM131.737 231.818C131.476 231.818 131.25 231.729 131.061 231.551C130.875 231.373 130.783 231.159 130.783 230.909C130.783 230.659 130.875 230.445 131.061 230.267C131.25 230.089 131.476 230 131.737 230C131.999 230 132.222 230.089 132.408 230.267C132.597 230.445 132.692 230.659 132.692 230.909C132.692 231.159 132.597 231.373 132.408 231.551C132.222 231.729 131.999 231.818 131.737 231.818ZM134.852 242V233.273H136.148V234.591H136.239C136.398 234.159 136.686 233.809 137.102 233.54C137.519 233.271 137.989 233.136 138.511 233.136C138.61 233.136 138.733 233.138 138.881 233.142C139.028 233.146 139.14 233.152 139.216 233.159V234.523C139.17 234.511 139.066 234.494 138.903 234.472C138.744 234.445 138.576 234.432 138.398 234.432C137.973 234.432 137.595 234.521 137.261 234.699C136.932 234.873 136.67 235.116 136.477 235.426C136.288 235.733 136.193 236.083 136.193 236.477V242H134.852ZM140.805 242V233.273H142.101V234.636H142.214C142.396 234.17 142.69 233.809 143.095 233.551C143.5 233.29 143.987 233.159 144.555 233.159C145.131 233.159 145.61 233.29 145.993 233.551C146.379 233.809 146.68 234.17 146.896 234.636H146.987C147.211 234.186 147.546 233.828 147.993 233.562C148.44 233.294 148.976 233.159 149.601 233.159C150.381 233.159 151.019 233.403 151.516 233.892C152.012 234.377 152.26 235.133 152.26 236.159V242H150.919V236.159C150.919 235.515 150.743 235.055 150.391 234.778C150.038 234.502 149.624 234.364 149.146 234.364C148.533 234.364 148.057 234.549 147.72 234.92C147.383 235.288 147.214 235.754 147.214 236.318V242H145.851V236.023C145.851 235.527 145.69 235.127 145.368 234.824C145.046 234.517 144.631 234.364 144.124 234.364C143.775 234.364 143.449 234.456 143.146 234.642C142.847 234.828 142.605 235.085 142.419 235.415C142.237 235.741 142.146 236.117 142.146 236.545V242H140.805Z" fill="white"/>
<path d="M108.241 284H106.832C106.749 283.595 106.603 283.239 106.395 282.932C106.19 282.625 105.94 282.367 105.645 282.159C105.353 281.947 105.029 281.788 104.673 281.682C104.317 281.576 103.946 281.523 103.56 281.523C102.855 281.523 102.217 281.701 101.645 282.057C101.077 282.413 100.624 282.938 100.287 283.631C99.9536 284.324 99.7869 285.174 99.7869 286.182C99.7869 287.189 99.9536 288.04 100.287 288.733C100.624 289.426 101.077 289.951 101.645 290.307C102.217 290.663 102.855 290.841 103.56 290.841C103.946 290.841 104.317 290.788 104.673 290.682C105.029 290.576 105.353 290.419 105.645 290.21C105.94 289.998 106.19 289.739 106.395 289.432C106.603 289.121 106.749 288.765 106.832 288.364H108.241C108.135 288.958 107.942 289.491 107.662 289.96C107.382 290.43 107.033 290.83 106.616 291.159C106.2 291.485 105.732 291.733 105.213 291.903C104.698 292.074 104.147 292.159 103.56 292.159C102.567 292.159 101.685 291.917 100.912 291.432C100.139 290.947 99.5313 290.258 99.0881 289.364C98.6449 288.47 98.4233 287.409 98.4233 286.182C98.4233 284.955 98.6449 283.894 99.0881 283C99.5313 282.106 100.139 281.417 100.912 280.932C101.685 280.447 102.567 280.205 103.56 280.205C104.147 280.205 104.698 280.29 105.213 280.46C105.732 280.631 106.2 280.881 106.616 281.21C107.033 281.536 107.382 281.934 107.662 282.403C107.942 282.869 108.135 283.402 108.241 284ZM112.905 292.205C112.352 292.205 111.85 292.1 111.399 291.892C110.948 291.68 110.59 291.375 110.325 290.977C110.06 290.576 109.928 290.091 109.928 289.523C109.928 289.023 110.026 288.617 110.223 288.307C110.42 287.992 110.683 287.746 111.013 287.568C111.342 287.39 111.706 287.258 112.104 287.17C112.505 287.08 112.909 287.008 113.314 286.955C113.844 286.886 114.274 286.835 114.604 286.801C114.937 286.763 115.179 286.701 115.331 286.614C115.486 286.527 115.564 286.375 115.564 286.159V286.114C115.564 285.553 115.411 285.117 115.104 284.807C114.801 284.496 114.34 284.341 113.723 284.341C113.083 284.341 112.581 284.481 112.217 284.761C111.854 285.042 111.598 285.341 111.45 285.659L110.178 285.205C110.405 284.674 110.708 284.261 111.087 283.966C111.469 283.667 111.886 283.458 112.337 283.341C112.791 283.22 113.238 283.159 113.678 283.159C113.958 283.159 114.28 283.193 114.643 283.261C115.011 283.326 115.365 283.46 115.706 283.665C116.051 283.869 116.337 284.178 116.564 284.591C116.791 285.004 116.905 285.557 116.905 286.25V292H115.564V290.818H115.496C115.405 291.008 115.253 291.21 115.041 291.426C114.829 291.642 114.547 291.826 114.195 291.977C113.842 292.129 113.412 292.205 112.905 292.205ZM113.109 291C113.64 291 114.087 290.896 114.45 290.688C114.818 290.479 115.094 290.21 115.28 289.881C115.469 289.551 115.564 289.205 115.564 288.841V287.614C115.507 287.682 115.382 287.744 115.189 287.801C115 287.854 114.78 287.902 114.53 287.943C114.284 287.981 114.043 288.015 113.808 288.045C113.577 288.072 113.39 288.095 113.246 288.114C112.897 288.159 112.571 288.233 112.268 288.335C111.969 288.434 111.727 288.583 111.541 288.784C111.359 288.981 111.268 289.25 111.268 289.591C111.268 290.057 111.441 290.409 111.786 290.648C112.134 290.883 112.575 291 113.109 291ZM120.693 286.75V292H119.352V283.273H120.648V284.636H120.761C120.966 284.193 121.277 283.837 121.693 283.568C122.11 283.295 122.648 283.159 123.307 283.159C123.898 283.159 124.415 283.28 124.858 283.523C125.301 283.761 125.646 284.125 125.892 284.614C126.138 285.098 126.261 285.712 126.261 286.455V292H124.92V286.545C124.92 285.86 124.742 285.326 124.386 284.943C124.03 284.557 123.542 284.364 122.92 284.364C122.492 284.364 122.11 284.456 121.773 284.642C121.439 284.828 121.176 285.098 120.983 285.455C120.79 285.811 120.693 286.242 120.693 286.75ZM132.257 292.182C131.439 292.182 130.734 291.989 130.143 291.602C129.553 291.216 129.098 290.684 128.78 290.006C128.462 289.328 128.303 288.553 128.303 287.682C128.303 286.795 128.465 286.013 128.791 285.335C129.121 284.653 129.579 284.121 130.166 283.739C130.757 283.352 131.446 283.159 132.234 283.159C132.848 283.159 133.401 283.273 133.893 283.5C134.386 283.727 134.789 284.045 135.104 284.455C135.418 284.864 135.613 285.341 135.689 285.886H134.348C134.246 285.489 134.018 285.136 133.666 284.83C133.318 284.519 132.848 284.364 132.257 284.364C131.734 284.364 131.276 284.5 130.882 284.773C130.492 285.042 130.187 285.422 129.967 285.915C129.751 286.403 129.643 286.977 129.643 287.636C129.643 288.311 129.75 288.898 129.962 289.398C130.178 289.898 130.481 290.286 130.871 290.562C131.265 290.839 131.727 290.977 132.257 290.977C132.606 290.977 132.922 290.917 133.206 290.795C133.49 290.674 133.731 290.5 133.928 290.273C134.125 290.045 134.265 289.773 134.348 289.455H135.689C135.613 289.97 135.426 290.434 135.126 290.847C134.831 291.256 134.439 291.581 133.95 291.824C133.465 292.062 132.901 292.182 132.257 292.182ZM141.308 292.182C140.467 292.182 139.742 291.996 139.132 291.625C138.526 291.25 138.058 290.727 137.729 290.057C137.403 289.383 137.24 288.598 137.24 287.705C137.24 286.811 137.403 286.023 137.729 285.341C138.058 284.655 138.517 284.121 139.104 283.739C139.695 283.352 140.384 283.159 141.172 283.159C141.626 283.159 142.075 283.235 142.518 283.386C142.962 283.538 143.365 283.784 143.729 284.125C144.092 284.462 144.382 284.909 144.598 285.466C144.814 286.023 144.922 286.708 144.922 287.523V288.091H138.195V286.932H143.558C143.558 286.439 143.46 286 143.263 285.614C143.07 285.227 142.793 284.922 142.433 284.699C142.077 284.475 141.657 284.364 141.172 284.364C140.638 284.364 140.176 284.496 139.786 284.761C139.399 285.023 139.102 285.364 138.893 285.784C138.685 286.205 138.581 286.655 138.581 287.136V287.909C138.581 288.568 138.695 289.127 138.922 289.585C139.153 290.04 139.473 290.386 139.882 290.625C140.291 290.86 140.767 290.977 141.308 290.977C141.661 290.977 141.979 290.928 142.263 290.83C142.551 290.727 142.799 290.576 143.007 290.375C143.215 290.17 143.376 289.917 143.49 289.614L144.786 289.977C144.649 290.417 144.42 290.803 144.098 291.136C143.776 291.466 143.378 291.723 142.905 291.909C142.431 292.091 141.899 292.182 141.308 292.182ZM148.303 280.364V292H146.962V280.364H148.303Z" fill="black"/>
<rect x="21.5" y="267.5" width="203" height="37" rx="9.5" stroke="black"/>
<rect x="20.5" y="163.5" width="203" height="37" rx="9.5" stroke="black"/>
<path d="M30.7727 146H29.3636C29.2803 145.595 29.1345 145.239 28.9261 144.932C28.7216 144.625 28.4716 144.367 28.1761 144.159C27.8845 143.947 27.5606 143.788 27.2045 143.682C26.8485 143.576 26.4773 143.523 26.0909 143.523C25.3864 143.523 24.7481 143.701 24.1761 144.057C23.608 144.413 23.1553 144.938 22.8182 145.631C22.4848 146.324 22.3182 147.174 22.3182 148.182C22.3182 149.189 22.4848 150.04 22.8182 150.733C23.1553 151.426 23.608 151.951 24.1761 152.307C24.7481 152.663 25.3864 152.841 26.0909 152.841C26.4773 152.841 26.8485 152.788 27.2045 152.682C27.5606 152.576 27.8845 152.419 28.1761 152.21C28.4716 151.998 28.7216 151.739 28.9261 151.432C29.1345 151.121 29.2803 150.765 29.3636 150.364H30.7727C30.6667 150.958 30.4735 151.491 30.1932 151.96C29.9129 152.43 29.5644 152.83 29.1477 153.159C28.7311 153.485 28.2633 153.733 27.7443 153.903C27.2292 154.074 26.678 154.159 26.0909 154.159C25.0985 154.159 24.2159 153.917 23.4432 153.432C22.6705 152.947 22.0625 152.258 21.6193 151.364C21.1761 150.47 20.9545 149.409 20.9545 148.182C20.9545 146.955 21.1761 145.894 21.6193 145C22.0625 144.106 22.6705 143.417 23.4432 142.932C24.2159 142.447 25.0985 142.205 26.0909 142.205C26.678 142.205 27.2292 142.29 27.7443 142.46C28.2633 142.631 28.7311 142.881 29.1477 143.21C29.5644 143.536 29.9129 143.934 30.1932 144.403C30.4735 144.869 30.6667 145.402 30.7727 146ZM36.4134 154.182C35.6255 154.182 34.9342 153.994 34.3395 153.619C33.7486 153.244 33.2865 152.72 32.9531 152.045C32.6236 151.371 32.4588 150.583 32.4588 149.682C32.4588 148.773 32.6236 147.979 32.9531 147.301C33.2865 146.623 33.7486 146.097 34.3395 145.722C34.9342 145.347 35.6255 145.159 36.4134 145.159C37.2012 145.159 37.8906 145.347 38.4815 145.722C39.0762 146.097 39.5384 146.623 39.8679 147.301C40.2012 147.979 40.3679 148.773 40.3679 149.682C40.3679 150.583 40.2012 151.371 39.8679 152.045C39.5384 152.72 39.0762 153.244 38.4815 153.619C37.8906 153.994 37.2012 154.182 36.4134 154.182ZM36.4134 152.977C37.0118 152.977 37.5043 152.824 37.8906 152.517C38.277 152.21 38.563 151.807 38.7486 151.307C38.9342 150.807 39.027 150.265 39.027 149.682C39.027 149.098 38.9342 148.555 38.7486 148.051C38.563 147.547 38.277 147.14 37.8906 146.83C37.5043 146.519 37.0118 146.364 36.4134 146.364C35.8149 146.364 35.3224 146.519 34.9361 146.83C34.5497 147.14 34.2637 147.547 34.0781 148.051C33.8925 148.555 33.7997 149.098 33.7997 149.682C33.7997 150.265 33.8925 150.807 34.0781 151.307C34.2637 151.807 34.5497 152.21 34.9361 152.517C35.3224 152.824 35.8149 152.977 36.4134 152.977ZM43.7557 148.75V154H42.4148V145.273H43.7102V146.636H43.8239C44.0284 146.193 44.339 145.837 44.7557 145.568C45.1723 145.295 45.7102 145.159 46.3693 145.159C46.9602 145.159 47.4773 145.28 47.9205 145.523C48.3636 145.761 48.7083 146.125 48.9545 146.614C49.2008 147.098 49.3239 147.712 49.3239 148.455V154H47.983V148.545C47.983 147.86 47.8049 147.326 47.4489 146.943C47.0928 146.557 46.6042 146.364 45.983 146.364C45.5549 146.364 45.1723 146.456 44.8352 146.642C44.5019 146.828 44.2386 147.098 44.0455 147.455C43.8523 147.811 43.7557 148.242 43.7557 148.75ZM55.6605 145.273V146.409H50.956V145.273H55.6605ZM52.3651 154V144.068C52.3651 143.568 52.4825 143.152 52.7173 142.818C52.9522 142.485 53.2571 142.235 53.6321 142.068C54.0071 141.902 54.4029 141.818 54.8196 141.818C55.1491 141.818 55.4181 141.845 55.6264 141.898C55.8348 141.951 55.9901 142 56.0923 142.045L55.706 143.205C55.6378 143.182 55.5431 143.153 55.4219 143.119C55.3045 143.085 55.1491 143.068 54.956 143.068C54.5128 143.068 54.1927 143.18 53.9957 143.403C53.8026 143.627 53.706 143.955 53.706 144.386V154H52.3651ZM57.5398 154V145.273H58.8807V154H57.5398ZM58.2216 143.818C57.9602 143.818 57.7348 143.729 57.5455 143.551C57.3598 143.373 57.267 143.159 57.267 142.909C57.267 142.659 57.3598 142.445 57.5455 142.267C57.7348 142.089 57.9602 142 58.2216 142C58.483 142 58.7064 142.089 58.892 142.267C59.0814 142.445 59.1761 142.659 59.1761 142.909C59.1761 143.159 59.0814 143.373 58.892 143.551C58.7064 143.729 58.483 143.818 58.2216 143.818ZM61.3366 154V145.273H62.6321V146.591H62.723C62.8821 146.159 63.17 145.809 63.5866 145.54C64.0033 145.271 64.473 145.136 64.9957 145.136C65.0942 145.136 65.2173 145.138 65.3651 145.142C65.5128 145.146 65.6245 145.152 65.7003 145.159V146.523C65.6548 146.511 65.5507 146.494 65.3878 146.472C65.2287 146.445 65.0601 146.432 64.8821 146.432C64.4579 146.432 64.0791 146.521 63.7457 146.699C63.4162 146.873 63.1548 147.116 62.9616 147.426C62.7723 147.733 62.6776 148.083 62.6776 148.477V154H61.3366ZM67.2898 154V145.273H68.5852V146.636H68.6989C68.8807 146.17 69.1742 145.809 69.5795 145.551C69.9848 145.29 70.4716 145.159 71.0398 145.159C71.6155 145.159 72.0947 145.29 72.4773 145.551C72.8636 145.809 73.1648 146.17 73.3807 146.636H73.4716C73.6951 146.186 74.0303 145.828 74.4773 145.562C74.9242 145.294 75.4602 145.159 76.0852 145.159C76.8655 145.159 77.5038 145.403 78 145.892C78.4962 146.377 78.7443 147.133 78.7443 148.159V154H77.4034V148.159C77.4034 147.515 77.2273 147.055 76.875 146.778C76.5227 146.502 76.108 146.364 75.6307 146.364C75.017 146.364 74.5417 146.549 74.2045 146.92C73.8674 147.288 73.6989 147.754 73.6989 148.318V154H72.3352V148.023C72.3352 147.527 72.1742 147.127 71.8523 146.824C71.5303 146.517 71.1155 146.364 70.608 146.364C70.2595 146.364 69.9337 146.456 69.6307 146.642C69.3314 146.828 69.089 147.085 68.9034 147.415C68.7216 147.741 68.6307 148.117 68.6307 148.545V154H67.2898ZM85.8778 154V142.364H89.8097C90.7225 142.364 91.4688 142.528 92.0483 142.858C92.6316 143.184 93.0634 143.625 93.3438 144.182C93.6241 144.739 93.7642 145.36 93.7642 146.045C93.7642 146.731 93.6241 147.354 93.3438 147.915C93.0672 148.475 92.6392 148.922 92.0597 149.256C91.4801 149.585 90.7377 149.75 89.8324 149.75H87.0142V148.5H89.7869C90.4119 148.5 90.9138 148.392 91.2926 148.176C91.6714 147.96 91.946 147.669 92.1165 147.301C92.2907 146.93 92.3778 146.511 92.3778 146.045C92.3778 145.58 92.2907 145.163 92.1165 144.795C91.946 144.428 91.6695 144.14 91.2869 143.932C90.9044 143.72 90.3968 143.614 89.7642 143.614H87.2869V154H85.8778ZM98.4205 154.205C97.8674 154.205 97.3655 154.1 96.9148 153.892C96.464 153.68 96.1061 153.375 95.8409 152.977C95.5758 152.576 95.4432 152.091 95.4432 151.523C95.4432 151.023 95.5417 150.617 95.7386 150.307C95.9356 149.992 96.1989 149.746 96.5284 149.568C96.858 149.39 97.2216 149.258 97.6193 149.17C98.0208 149.08 98.4242 149.008 98.8295 148.955C99.3598 148.886 99.7898 148.835 100.119 148.801C100.453 148.763 100.695 148.701 100.847 148.614C101.002 148.527 101.08 148.375 101.08 148.159V148.114C101.08 147.553 100.926 147.117 100.619 146.807C100.316 146.496 99.8561 146.341 99.2386 146.341C98.5985 146.341 98.0966 146.481 97.733 146.761C97.3693 147.042 97.1136 147.341 96.9659 147.659L95.6932 147.205C95.9205 146.674 96.2235 146.261 96.6023 145.966C96.9848 145.667 97.4015 145.458 97.8523 145.341C98.3068 145.22 98.7538 145.159 99.1932 145.159C99.4735 145.159 99.7955 145.193 100.159 145.261C100.527 145.326 100.881 145.46 101.222 145.665C101.566 145.869 101.852 146.178 102.08 146.591C102.307 147.004 102.42 147.557 102.42 148.25V154H101.08V152.818H101.011C100.92 153.008 100.769 153.21 100.557 153.426C100.345 153.642 100.063 153.826 99.7102 153.977C99.358 154.129 98.928 154.205 98.4205 154.205ZM98.625 153C99.1553 153 99.6023 152.896 99.9659 152.688C100.333 152.479 100.61 152.21 100.795 151.881C100.985 151.551 101.08 151.205 101.08 150.841V149.614C101.023 149.682 100.898 149.744 100.705 149.801C100.515 149.854 100.295 149.902 100.045 149.943C99.7992 149.981 99.5587 150.015 99.3239 150.045C99.0928 150.072 98.9053 150.095 98.7614 150.114C98.4129 150.159 98.0871 150.233 97.7841 150.335C97.4848 150.434 97.2424 150.583 97.0568 150.784C96.875 150.981 96.7841 151.25 96.7841 151.591C96.7841 152.057 96.9564 152.409 97.3011 152.648C97.6496 152.883 98.0909 153 98.625 153ZM111.05 147.227L109.845 147.568C109.769 147.367 109.658 147.172 109.51 146.983C109.366 146.79 109.169 146.631 108.919 146.506C108.669 146.381 108.349 146.318 107.959 146.318C107.425 146.318 106.98 146.441 106.624 146.688C106.271 146.93 106.095 147.239 106.095 147.614C106.095 147.947 106.216 148.21 106.459 148.403C106.701 148.597 107.08 148.758 107.595 148.886L108.891 149.205C109.671 149.394 110.252 149.684 110.635 150.074C111.018 150.46 111.209 150.958 111.209 151.568C111.209 152.068 111.065 152.515 110.777 152.909C110.493 153.303 110.095 153.614 109.584 153.841C109.072 154.068 108.478 154.182 107.8 154.182C106.91 154.182 106.173 153.989 105.589 153.602C105.006 153.216 104.637 152.652 104.482 151.909L105.754 151.591C105.875 152.061 106.105 152.413 106.442 152.648C106.783 152.883 107.228 153 107.777 153C108.402 153 108.898 152.867 109.266 152.602C109.637 152.333 109.822 152.011 109.822 151.636C109.822 151.333 109.716 151.08 109.504 150.875C109.292 150.667 108.966 150.511 108.527 150.409L107.072 150.068C106.273 149.879 105.686 149.585 105.311 149.188C104.94 148.786 104.754 148.284 104.754 147.682C104.754 147.189 104.893 146.754 105.169 146.375C105.449 145.996 105.83 145.699 106.311 145.483C106.796 145.267 107.345 145.159 107.959 145.159C108.822 145.159 109.5 145.348 109.993 145.727C110.489 146.106 110.841 146.606 111.05 147.227ZM119.409 147.227L118.205 147.568C118.129 147.367 118.017 147.172 117.869 146.983C117.725 146.79 117.528 146.631 117.278 146.506C117.028 146.381 116.708 146.318 116.318 146.318C115.784 146.318 115.339 146.441 114.983 146.688C114.631 146.93 114.455 147.239 114.455 147.614C114.455 147.947 114.576 148.21 114.818 148.403C115.061 148.597 115.439 148.758 115.955 148.886L117.25 149.205C118.03 149.394 118.612 149.684 118.994 150.074C119.377 150.46 119.568 150.958 119.568 151.568C119.568 152.068 119.424 152.515 119.136 152.909C118.852 153.303 118.455 153.614 117.943 153.841C117.432 154.068 116.837 154.182 116.159 154.182C115.269 154.182 114.532 153.989 113.949 153.602C113.366 153.216 112.996 152.652 112.841 151.909L114.114 151.591C114.235 152.061 114.464 152.413 114.801 152.648C115.142 152.883 115.587 153 116.136 153C116.761 153 117.258 152.867 117.625 152.602C117.996 152.333 118.182 152.011 118.182 151.636C118.182 151.333 118.076 151.08 117.864 150.875C117.652 150.667 117.326 150.511 116.886 150.409L115.432 150.068C114.633 149.879 114.045 149.585 113.67 149.188C113.299 148.786 113.114 148.284 113.114 147.682C113.114 147.189 113.252 146.754 113.528 146.375C113.809 145.996 114.189 145.699 114.67 145.483C115.155 145.267 115.705 145.159 116.318 145.159C117.182 145.159 117.86 145.348 118.352 145.727C118.848 146.106 119.201 146.606 119.409 147.227ZM123.564 154L120.905 145.273H122.314L124.2 151.955H124.291L126.155 145.273H127.587L129.428 151.932H129.518L131.405 145.273H132.814L130.155 154H128.837L126.928 147.295H126.791L124.882 154H123.564ZM137.835 154.182C137.047 154.182 136.356 153.994 135.761 153.619C135.17 153.244 134.708 152.72 134.375 152.045C134.045 151.371 133.881 150.583 133.881 149.682C133.881 148.773 134.045 147.979 134.375 147.301C134.708 146.623 135.17 146.097 135.761 145.722C136.356 145.347 137.047 145.159 137.835 145.159C138.623 145.159 139.313 145.347 139.903 145.722C140.498 146.097 140.96 146.623 141.29 147.301C141.623 147.979 141.79 148.773 141.79 149.682C141.79 150.583 141.623 151.371 141.29 152.045C140.96 152.72 140.498 153.244 139.903 153.619C139.313 153.994 138.623 154.182 137.835 154.182ZM137.835 152.977C138.434 152.977 138.926 152.824 139.312 152.517C139.699 152.21 139.985 151.807 140.17 151.307C140.356 150.807 140.449 150.265 140.449 149.682C140.449 149.098 140.356 148.555 140.17 148.051C139.985 147.547 139.699 147.14 139.312 146.83C138.926 146.519 138.434 146.364 137.835 146.364C137.237 146.364 136.744 146.519 136.358 146.83C135.972 147.14 135.686 147.547 135.5 148.051C135.314 148.555 135.222 149.098 135.222 149.682C135.222 150.265 135.314 150.807 135.5 151.307C135.686 151.807 135.972 152.21 136.358 152.517C136.744 152.824 137.237 152.977 137.835 152.977ZM143.837 154V145.273H145.132V146.591H145.223C145.382 146.159 145.67 145.809 146.087 145.54C146.503 145.271 146.973 145.136 147.496 145.136C147.594 145.136 147.717 145.138 147.865 145.142C148.013 145.146 148.125 145.152 148.2 145.159V146.523C148.155 146.511 148.051 146.494 147.888 146.472C147.729 146.445 147.56 146.432 147.382 146.432C146.958 146.432 146.579 146.521 146.246 146.699C145.916 146.873 145.655 147.116 145.462 147.426C145.272 147.733 145.178 148.083 145.178 148.477V154H143.837ZM152.82 154.182C152.092 154.182 151.45 153.998 150.893 153.631C150.337 153.259 149.901 152.737 149.587 152.062C149.272 151.384 149.115 150.583 149.115 149.659C149.115 148.742 149.272 147.947 149.587 147.273C149.901 146.598 150.339 146.078 150.899 145.71C151.46 145.343 152.107 145.159 152.842 145.159C153.411 145.159 153.859 145.254 154.189 145.443C154.522 145.629 154.776 145.841 154.95 146.08C155.128 146.314 155.267 146.508 155.365 146.659H155.479V142.364H156.82V154H155.524V152.659H155.365C155.267 152.818 155.126 153.019 154.945 153.261C154.763 153.5 154.503 153.714 154.166 153.903C153.829 154.089 153.38 154.182 152.82 154.182ZM153.001 152.977C153.539 152.977 153.994 152.837 154.365 152.557C154.736 152.273 155.018 151.881 155.212 151.381C155.405 150.877 155.501 150.295 155.501 149.636C155.501 148.985 155.407 148.415 155.217 147.926C155.028 147.434 154.748 147.051 154.376 146.778C154.005 146.502 153.547 146.364 153.001 146.364C152.433 146.364 151.96 146.509 151.581 146.801C151.206 147.089 150.924 147.481 150.734 147.977C150.549 148.47 150.456 149.023 150.456 149.636C150.456 150.258 150.551 150.822 150.74 151.33C150.933 151.833 151.217 152.235 151.592 152.534C151.971 152.83 152.441 152.977 153.001 152.977Z" fill="black"/>
<path d="M78.9759 27.2727C78.9077 26.697 78.6312 26.25 78.1463 25.9318C77.6615 25.6136 77.0668 25.4545 76.3622 25.4545C75.8471 25.4545 75.3963 25.5379 75.0099 25.7045C74.6274 25.8712 74.3281 26.1004 74.1122 26.392C73.9001 26.6837 73.794 27.0152 73.794 27.3864C73.794 27.697 73.8679 27.964 74.0156 28.1875C74.1671 28.4072 74.3603 28.5909 74.5952 28.7386C74.83 28.8826 75.0762 29.0019 75.3338 29.0966C75.5914 29.1875 75.8281 29.2614 76.044 29.3182L77.2259 29.6364C77.5289 29.7159 77.866 29.8258 78.2372 29.9659C78.6122 30.1061 78.9702 30.2973 79.3111 30.5398C79.6558 30.7784 79.9399 31.0852 80.1634 31.4602C80.3868 31.8352 80.4986 32.2955 80.4986 32.8409C80.4986 33.4697 80.3338 34.0379 80.0043 34.5455C79.6785 35.053 79.2012 35.4564 78.5724 35.7557C77.9474 36.0549 77.188 36.2045 76.294 36.2045C75.4607 36.2045 74.7391 36.0701 74.1293 35.8011C73.5232 35.5322 73.0459 35.1572 72.6974 34.6761C72.3527 34.1951 72.1577 33.6364 72.1122 33H73.5668C73.6046 33.4394 73.7524 33.803 74.0099 34.0909C74.2713 34.375 74.6009 34.5871 74.9986 34.7273C75.4001 34.8636 75.8319 34.9318 76.294 34.9318C76.8319 34.9318 77.3149 34.8447 77.7429 34.6705C78.1709 34.4924 78.5099 34.2462 78.7599 33.9318C79.0099 33.6136 79.1349 33.2424 79.1349 32.8182C79.1349 32.4318 79.027 32.1174 78.8111 31.875C78.5952 31.6326 78.3111 31.4356 77.9588 31.2841C77.6065 31.1326 77.2259 31 76.8168 30.8864L75.3849 30.4773C74.4759 30.2159 73.7562 29.8428 73.2259 29.358C72.6955 28.8731 72.4304 28.2386 72.4304 27.4545C72.4304 26.803 72.6065 26.2348 72.9588 25.75C73.3149 25.2614 73.7921 24.8826 74.3906 24.6136C74.9929 24.3409 75.6652 24.2045 76.4077 24.2045C77.1577 24.2045 77.8243 24.339 78.4077 24.608C78.991 24.8731 79.4531 25.2367 79.794 25.6989C80.1387 26.161 80.3205 26.6856 80.3395 27.2727H78.9759ZM86.2926 36.1818C85.4517 36.1818 84.7263 35.9962 84.1165 35.625C83.5104 35.25 83.0426 34.7273 82.7131 34.0568C82.3873 33.3826 82.2244 32.5985 82.2244 31.7045C82.2244 30.8106 82.3873 30.0227 82.7131 29.3409C83.0426 28.6553 83.5009 28.1212 84.0881 27.7386C84.679 27.3523 85.3684 27.1591 86.1562 27.1591C86.6108 27.1591 87.0597 27.2348 87.5028 27.3864C87.946 27.5379 88.3494 27.7841 88.7131 28.125C89.0767 28.4621 89.3665 28.9091 89.5824 29.4659C89.7983 30.0227 89.9062 30.7083 89.9062 31.5227V32.0909H83.179V30.9318H88.5426C88.5426 30.4394 88.4441 30 88.2472 29.6136C88.054 29.2273 87.7775 28.9223 87.4176 28.6989C87.0616 28.4754 86.6411 28.3636 86.1562 28.3636C85.6222 28.3636 85.16 28.4962 84.7699 28.7614C84.3835 29.0227 84.0862 29.3636 83.8778 29.7841C83.6695 30.2045 83.5653 30.6553 83.5653 31.1364V31.9091C83.5653 32.5682 83.679 33.1269 83.9062 33.5852C84.1373 34.0398 84.4574 34.3864 84.8665 34.625C85.2756 34.8598 85.7509 34.9773 86.2926 34.9773C86.6449 34.9773 86.9631 34.928 87.2472 34.8295C87.535 34.7273 87.7831 34.5758 87.9915 34.375C88.1998 34.1705 88.3608 33.9167 88.4744 33.6136L89.7699 33.9773C89.6335 34.4167 89.4044 34.803 89.0824 35.1364C88.7604 35.4659 88.3627 35.7235 87.8892 35.9091C87.4157 36.0909 86.8835 36.1818 86.2926 36.1818ZM95.7415 27.2727V28.4091H91.2188V27.2727H95.7415ZM92.5369 25.1818H93.8778V33.5C93.8778 33.8788 93.9328 34.1629 94.0426 34.3523C94.1563 34.5379 94.3002 34.6629 94.4744 34.7273C94.6525 34.7879 94.84 34.8182 95.0369 34.8182C95.1847 34.8182 95.3059 34.8106 95.4006 34.7955C95.4953 34.7765 95.571 34.7614 95.6278 34.75L95.9006 35.9545C95.8097 35.9886 95.6828 36.0227 95.5199 36.0568C95.357 36.0947 95.1506 36.1136 94.9006 36.1136C94.5218 36.1136 94.1506 36.0322 93.7869 35.8693C93.4271 35.7064 93.1278 35.4583 92.8892 35.125C92.6544 34.7917 92.5369 34.3712 92.5369 33.8636V25.1818ZM102.44 36V24.3636H106.372C107.285 24.3636 108.031 24.5284 108.611 24.858C109.194 25.1837 109.626 25.625 109.906 26.1818C110.187 26.7386 110.327 27.3598 110.327 28.0455C110.327 28.7311 110.187 29.3542 109.906 29.9148C109.63 30.4754 109.202 30.9223 108.622 31.2557C108.043 31.5852 107.3 31.75 106.395 31.75H103.577V30.5H106.349C106.974 30.5 107.476 30.392 107.855 30.1761C108.234 29.9602 108.509 29.6686 108.679 29.3011C108.853 28.9299 108.94 28.5114 108.94 28.0455C108.94 27.5795 108.853 27.1629 108.679 26.7955C108.509 26.428 108.232 26.1402 107.849 25.9318C107.467 25.7197 106.959 25.6136 106.327 25.6136H103.849V36H102.44ZM114.983 36.2045C114.43 36.2045 113.928 36.1004 113.477 35.892C113.027 35.6799 112.669 35.375 112.403 34.9773C112.138 34.5758 112.006 34.0909 112.006 33.5227C112.006 33.0227 112.104 32.6174 112.301 32.3068C112.498 31.9924 112.761 31.7462 113.091 31.5682C113.42 31.3902 113.784 31.2576 114.182 31.1705C114.583 31.0795 114.987 31.0076 115.392 30.9545C115.922 30.8864 116.352 30.8352 116.682 30.8011C117.015 30.7633 117.258 30.7008 117.409 30.6136C117.564 30.5265 117.642 30.375 117.642 30.1591V30.1136C117.642 29.553 117.489 29.1174 117.182 28.8068C116.879 28.4962 116.419 28.3409 115.801 28.3409C115.161 28.3409 114.659 28.4811 114.295 28.7614C113.932 29.0417 113.676 29.3409 113.528 29.6591L112.256 29.2045C112.483 28.6742 112.786 28.2614 113.165 27.9659C113.547 27.6667 113.964 27.4583 114.415 27.3409C114.869 27.2197 115.316 27.1591 115.756 27.1591C116.036 27.1591 116.358 27.1932 116.722 27.2614C117.089 27.3258 117.443 27.4602 117.784 27.6648C118.129 27.8693 118.415 28.178 118.642 28.5909C118.869 29.0038 118.983 29.5568 118.983 30.25V36H117.642V34.8182H117.574C117.483 35.0076 117.331 35.2102 117.119 35.4261C116.907 35.642 116.625 35.8258 116.273 35.9773C115.92 36.1288 115.491 36.2045 114.983 36.2045ZM115.188 35C115.718 35 116.165 34.8958 116.528 34.6875C116.896 34.4792 117.172 34.2102 117.358 33.8807C117.547 33.5511 117.642 33.2045 117.642 32.8409V31.6136C117.585 31.6818 117.46 31.7443 117.267 31.8011C117.078 31.8542 116.858 31.9015 116.608 31.9432C116.362 31.9811 116.121 32.0152 115.886 32.0455C115.655 32.072 115.468 32.0947 115.324 32.1136C114.975 32.1591 114.65 32.233 114.347 32.3352C114.047 32.4337 113.805 32.5833 113.619 32.7841C113.438 32.9811 113.347 33.25 113.347 33.5909C113.347 34.0568 113.519 34.4091 113.864 34.6477C114.212 34.8826 114.653 35 115.188 35ZM127.612 29.2273L126.408 29.5682C126.332 29.3674 126.22 29.1723 126.072 28.983C125.929 28.7898 125.732 28.6307 125.482 28.5057C125.232 28.3807 124.911 28.3182 124.521 28.3182C123.987 28.3182 123.542 28.4413 123.186 28.6875C122.834 28.9299 122.658 29.2386 122.658 29.6136C122.658 29.947 122.779 30.2102 123.021 30.4034C123.264 30.5966 123.643 30.7576 124.158 30.8864L125.453 31.2045C126.233 31.3939 126.815 31.6837 127.197 32.0739C127.58 32.4602 127.771 32.9583 127.771 33.5682C127.771 34.0682 127.627 34.5152 127.339 34.9091C127.055 35.303 126.658 35.6136 126.146 35.8409C125.635 36.0682 125.04 36.1818 124.362 36.1818C123.472 36.1818 122.735 35.9886 122.152 35.6023C121.569 35.2159 121.199 34.6515 121.044 33.9091L122.317 33.5909C122.438 34.0606 122.667 34.4129 123.004 34.6477C123.345 34.8826 123.79 35 124.339 35C124.964 35 125.461 34.8674 125.828 34.6023C126.199 34.3333 126.385 34.0114 126.385 33.6364C126.385 33.3333 126.279 33.0795 126.067 32.875C125.855 32.6667 125.529 32.5114 125.089 32.4091L123.635 32.0682C122.836 31.8788 122.249 31.5852 121.874 31.1875C121.502 30.786 121.317 30.2841 121.317 29.6818C121.317 29.1894 121.455 28.7538 121.732 28.375C122.012 27.9962 122.393 27.6989 122.874 27.483C123.358 27.267 123.908 27.1591 124.521 27.1591C125.385 27.1591 126.063 27.3485 126.555 27.7273C127.052 28.1061 127.404 28.6061 127.612 29.2273ZM135.972 29.2273L134.767 29.5682C134.691 29.3674 134.58 29.1723 134.432 28.983C134.288 28.7898 134.091 28.6307 133.841 28.5057C133.591 28.3807 133.271 28.3182 132.881 28.3182C132.347 28.3182 131.902 28.4413 131.545 28.6875C131.193 28.9299 131.017 29.2386 131.017 29.6136C131.017 29.947 131.138 30.2102 131.381 30.4034C131.623 30.5966 132.002 30.7576 132.517 30.8864L133.812 31.2045C134.593 31.3939 135.174 31.6837 135.557 32.0739C135.939 32.4602 136.131 32.9583 136.131 33.5682C136.131 34.0682 135.987 34.5152 135.699 34.9091C135.415 35.303 135.017 35.6136 134.506 35.8409C133.994 36.0682 133.4 36.1818 132.722 36.1818C131.831 36.1818 131.095 35.9886 130.511 35.6023C129.928 35.2159 129.559 34.6515 129.403 33.9091L130.676 33.5909C130.797 34.0606 131.027 34.4129 131.364 34.6477C131.705 34.8826 132.15 35 132.699 35C133.324 35 133.82 34.8674 134.188 34.6023C134.559 34.3333 134.744 34.0114 134.744 33.6364C134.744 33.3333 134.638 33.0795 134.426 32.875C134.214 32.6667 133.888 32.5114 133.449 32.4091L131.994 32.0682C131.195 31.8788 130.608 31.5852 130.233 31.1875C129.862 30.786 129.676 30.2841 129.676 29.6818C129.676 29.1894 129.814 28.7538 130.091 28.375C130.371 27.9962 130.752 27.6989 131.233 27.483C131.718 27.267 132.267 27.1591 132.881 27.1591C133.744 27.1591 134.422 27.3485 134.915 27.7273C135.411 28.1061 135.763 28.6061 135.972 29.2273ZM140.126 36L137.467 27.2727H138.876L140.763 33.9545H140.854L142.717 27.2727H144.149L145.99 33.9318H146.081L147.967 27.2727H149.376L146.717 36H145.399L143.49 29.2955H143.354L141.445 36H140.126ZM154.398 36.1818C153.61 36.1818 152.919 35.9943 152.324 35.6193C151.733 35.2443 151.271 34.7197 150.938 34.0455C150.608 33.3712 150.443 32.5833 150.443 31.6818C150.443 30.7727 150.608 29.9792 150.938 29.3011C151.271 28.6231 151.733 28.0966 152.324 27.7216C152.919 27.3466 153.61 27.1591 154.398 27.1591C155.186 27.1591 155.875 27.3466 156.466 27.7216C157.061 28.0966 157.523 28.6231 157.852 29.3011C158.186 29.9792 158.352 30.7727 158.352 31.6818C158.352 32.5833 158.186 33.3712 157.852 34.0455C157.523 34.7197 157.061 35.2443 156.466 35.6193C155.875 35.9943 155.186 36.1818 154.398 36.1818ZM154.398 34.9773C154.996 34.9773 155.489 34.8239 155.875 34.517C156.261 34.2102 156.547 33.8068 156.733 33.3068C156.919 32.8068 157.011 32.2652 157.011 31.6818C157.011 31.0985 156.919 30.5549 156.733 30.0511C156.547 29.5473 156.261 29.1402 155.875 28.8295C155.489 28.5189 154.996 28.3636 154.398 28.3636C153.799 28.3636 153.307 28.5189 152.92 28.8295C152.534 29.1402 152.248 29.5473 152.062 30.0511C151.877 30.5549 151.784 31.0985 151.784 31.6818C151.784 32.2652 151.877 32.8068 152.062 33.3068C152.248 33.8068 152.534 34.2102 152.92 34.517C153.307 34.8239 153.799 34.9773 154.398 34.9773ZM160.399 36V27.2727H161.695V28.5909H161.786C161.945 28.1591 162.232 27.8087 162.649 27.5398C163.066 27.2708 163.536 27.1364 164.058 27.1364C164.157 27.1364 164.28 27.1383 164.428 27.142C164.575 27.1458 164.687 27.1515 164.763 27.1591V28.5227C164.717 28.5114 164.613 28.4943 164.45 28.4716C164.291 28.4451 164.123 28.4318 163.945 28.4318C163.52 28.4318 163.142 28.5208 162.808 28.6989C162.479 28.8731 162.217 29.1155 162.024 29.4261C161.835 29.733 161.74 30.0833 161.74 30.4773V36H160.399ZM169.382 36.1818C168.655 36.1818 168.013 35.9981 167.456 35.6307C166.899 35.2595 166.464 34.7367 166.149 34.0625C165.835 33.3845 165.678 32.5833 165.678 31.6591C165.678 30.7424 165.835 29.947 166.149 29.2727C166.464 28.5985 166.901 28.0777 167.462 27.7102C168.022 27.3428 168.67 27.1591 169.405 27.1591C169.973 27.1591 170.422 27.2538 170.751 27.4432C171.085 27.6288 171.339 27.8409 171.513 28.0795C171.691 28.3144 171.829 28.5076 171.928 28.6591H172.041V24.3636H173.382V36H172.087V34.6591H171.928C171.829 34.8182 171.689 35.0189 171.507 35.2614C171.325 35.5 171.066 35.714 170.729 35.9034C170.392 36.089 169.943 36.1818 169.382 36.1818ZM169.564 34.9773C170.102 34.9773 170.556 34.8371 170.928 34.5568C171.299 34.2727 171.581 33.8807 171.774 33.3807C171.967 32.8769 172.064 32.2955 172.064 31.6364C172.064 30.9848 171.969 30.4148 171.78 29.9261C171.59 29.4337 171.31 29.0511 170.939 28.7784C170.568 28.5019 170.109 28.3636 169.564 28.3636C168.996 28.3636 168.522 28.5095 168.143 28.8011C167.768 29.089 167.486 29.4811 167.297 29.9773C167.111 30.4697 167.018 31.0227 167.018 31.6364C167.018 32.2576 167.113 32.822 167.303 33.3295C167.496 33.8333 167.78 34.2348 168.155 34.5341C168.534 34.8295 169.003 34.9773 169.564 34.9773Z" fill="black"/>
<rect x="21.5" y="85.5" width="203" height="37" rx="9.5" stroke="black"/>
<path d="M22.4091 76V64.3636H26.3409C27.2538 64.3636 28 64.5284 28.5795 64.858C29.1629 65.1837 29.5947 65.625 29.875 66.1818C30.1553 66.7386 30.2955 67.3598 30.2955 68.0455C30.2955 68.7311 30.1553 69.3542 29.875 69.9148C29.5985 70.4754 29.1705 70.9223 28.5909 71.2557C28.0114 71.5852 27.2689 71.75 26.3636 71.75H23.5455V70.5H26.3182C26.9432 70.5 27.4451 70.392 27.8239 70.1761C28.2027 69.9602 28.4773 69.6686 28.6477 69.3011C28.822 68.9299 28.9091 68.5114 28.9091 68.0455C28.9091 67.5795 28.822 67.1629 28.6477 66.7955C28.4773 66.428 28.2008 66.1402 27.8182 65.9318C27.4356 65.7197 26.928 65.6136 26.2955 65.6136H23.8182V76H22.4091ZM34.9517 76.2045C34.3987 76.2045 33.8968 76.1004 33.446 75.892C32.9953 75.6799 32.6373 75.375 32.3722 74.9773C32.107 74.5758 31.9744 74.0909 31.9744 73.5227C31.9744 73.0227 32.0729 72.6174 32.2699 72.3068C32.4669 71.9924 32.7301 71.7462 33.0597 71.5682C33.3892 71.3902 33.7528 71.2576 34.1506 71.1705C34.5521 71.0795 34.9555 71.0076 35.3608 70.9545C35.8911 70.8864 36.321 70.8352 36.6506 70.8011C36.9839 70.7633 37.2263 70.7008 37.3778 70.6136C37.5331 70.5265 37.6108 70.375 37.6108 70.1591V70.1136C37.6108 69.553 37.4574 69.1174 37.1506 68.8068C36.8475 68.4962 36.3873 68.3409 35.7699 68.3409C35.1297 68.3409 34.6278 68.4811 34.2642 68.7614C33.9006 69.0417 33.6449 69.3409 33.4972 69.6591L32.2244 69.2045C32.4517 68.6742 32.7547 68.2614 33.1335 67.9659C33.5161 67.6667 33.9328 67.4583 34.3835 67.3409C34.8381 67.2197 35.285 67.1591 35.7244 67.1591C36.0047 67.1591 36.3267 67.1932 36.6903 67.2614C37.0578 67.3258 37.4119 67.4602 37.7528 67.6648C38.0975 67.8693 38.3835 68.178 38.6108 68.5909C38.8381 69.0038 38.9517 69.5568 38.9517 70.25V76H37.6108V74.8182H37.5426C37.4517 75.0076 37.3002 75.2102 37.0881 75.4261C36.8759 75.642 36.5938 75.8258 36.2415 75.9773C35.8892 76.1288 35.4593 76.2045 34.9517 76.2045ZM35.1562 75C35.6866 75 36.1335 74.8958 36.4972 74.6875C36.8646 74.4792 37.1411 74.2102 37.3267 73.8807C37.5161 73.5511 37.6108 73.2045 37.6108 72.8409V71.6136C37.554 71.6818 37.429 71.7443 37.2358 71.8011C37.0464 71.8542 36.8267 71.9015 36.5767 71.9432C36.3305 71.9811 36.09 72.0152 35.8551 72.0455C35.6241 72.072 35.4366 72.0947 35.2926 72.1136C34.9441 72.1591 34.6184 72.233 34.3153 72.3352C34.0161 72.4337 33.7737 72.5833 33.5881 72.7841C33.4063 72.9811 33.3153 73.25 33.3153 73.5909C33.3153 74.0568 33.4877 74.4091 33.8324 74.6477C34.1809 74.8826 34.6222 75 35.1562 75ZM47.581 69.2273L46.3764 69.5682C46.3007 69.3674 46.1889 69.1723 46.0412 68.983C45.8973 68.7898 45.7003 68.6307 45.4503 68.5057C45.2003 68.3807 44.8802 68.3182 44.4901 68.3182C43.956 68.3182 43.5109 68.4413 43.1548 68.6875C42.8026 68.9299 42.6264 69.2386 42.6264 69.6136C42.6264 69.947 42.7476 70.2102 42.9901 70.4034C43.2325 70.5966 43.6113 70.7576 44.1264 70.8864L45.4219 71.2045C46.2022 71.3939 46.7836 71.6837 47.1662 72.0739C47.5488 72.4602 47.7401 72.9583 47.7401 73.5682C47.7401 74.0682 47.5961 74.5152 47.3082 74.9091C47.0241 75.303 46.6264 75.6136 46.1151 75.8409C45.6037 76.0682 45.009 76.1818 44.331 76.1818C43.4408 76.1818 42.7041 75.9886 42.1207 75.6023C41.5374 75.2159 41.1681 74.6515 41.0128 73.9091L42.2855 73.5909C42.4067 74.0606 42.6359 74.4129 42.973 74.6477C43.3139 74.8826 43.759 75 44.3082 75C44.9332 75 45.4295 74.8674 45.7969 74.6023C46.1681 74.3333 46.3537 74.0114 46.3537 73.6364C46.3537 73.3333 46.2476 73.0795 46.0355 72.875C45.8234 72.6667 45.4976 72.5114 45.0582 72.4091L43.6037 72.0682C42.8045 71.8788 42.2173 71.5852 41.8423 71.1875C41.4711 70.786 41.2855 70.2841 41.2855 69.6818C41.2855 69.1894 41.4238 68.7538 41.7003 68.375C41.9806 67.9962 42.3613 67.6989 42.8423 67.483C43.3272 67.267 43.8764 67.1591 44.4901 67.1591C45.3537 67.1591 46.0317 67.3485 46.5241 67.7273C47.0204 68.1061 47.3726 68.6061 47.581 69.2273ZM55.9403 69.2273L54.7358 69.5682C54.66 69.3674 54.5483 69.1723 54.4006 68.983C54.2566 68.7898 54.0597 68.6307 53.8097 68.5057C53.5597 68.3807 53.2396 68.3182 52.8494 68.3182C52.3153 68.3182 51.8703 68.4413 51.5142 68.6875C51.1619 68.9299 50.9858 69.2386 50.9858 69.6136C50.9858 69.947 51.107 70.2102 51.3494 70.4034C51.5919 70.5966 51.9706 70.7576 52.4858 70.8864L53.7812 71.2045C54.5616 71.3939 55.143 71.6837 55.5256 72.0739C55.9081 72.4602 56.0994 72.9583 56.0994 73.5682C56.0994 74.0682 55.9555 74.5152 55.6676 74.9091C55.3835 75.303 54.9858 75.6136 54.4744 75.8409C53.9631 76.0682 53.3684 76.1818 52.6903 76.1818C51.8002 76.1818 51.0634 75.9886 50.4801 75.6023C49.8968 75.2159 49.5275 74.6515 49.3722 73.9091L50.6449 73.5909C50.7661 74.0606 50.9953 74.4129 51.3324 74.6477C51.6733 74.8826 52.1184 75 52.6676 75C53.2926 75 53.7888 74.8674 54.1562 74.6023C54.5275 74.3333 54.7131 74.0114 54.7131 73.6364C54.7131 73.3333 54.607 73.0795 54.3949 72.875C54.1828 72.6667 53.857 72.5114 53.4176 72.4091L51.9631 72.0682C51.1638 71.8788 50.5767 71.5852 50.2017 71.1875C49.8305 70.786 49.6449 70.2841 49.6449 69.6818C49.6449 69.1894 49.7831 68.7538 50.0597 68.375C50.34 67.9962 50.7206 67.6989 51.2017 67.483C51.6866 67.267 52.2358 67.1591 52.8494 67.1591C53.7131 67.1591 54.3911 67.3485 54.8835 67.7273C55.3797 68.1061 55.732 68.6061 55.9403 69.2273ZM60.0952 76L57.4361 67.2727H58.8452L60.7315 73.9545H60.8224L62.6861 67.2727H64.1179L65.9588 73.9318H66.0497L67.9361 67.2727H69.3452L66.6861 76H65.3679L63.4588 69.2955H63.3224L61.4134 76H60.0952ZM74.3665 76.1818C73.5786 76.1818 72.8873 75.9943 72.2926 75.6193C71.7017 75.2443 71.2396 74.7197 70.9062 74.0455C70.5767 73.3712 70.4119 72.5833 70.4119 71.6818C70.4119 70.7727 70.5767 69.9792 70.9062 69.3011C71.2396 68.6231 71.7017 68.0966 72.2926 67.7216C72.8873 67.3466 73.5786 67.1591 74.3665 67.1591C75.1544 67.1591 75.8438 67.3466 76.4347 67.7216C77.0294 68.0966 77.4915 68.6231 77.821 69.3011C78.1544 69.9792 78.321 70.7727 78.321 71.6818C78.321 72.5833 78.1544 73.3712 77.821 74.0455C77.4915 74.7197 77.0294 75.2443 76.4347 75.6193C75.8438 75.9943 75.1544 76.1818 74.3665 76.1818ZM74.3665 74.9773C74.965 74.9773 75.4574 74.8239 75.8438 74.517C76.2301 74.2102 76.5161 73.8068 76.7017 73.3068C76.8873 72.8068 76.9801 72.2652 76.9801 71.6818C76.9801 71.0985 76.8873 70.5549 76.7017 70.0511C76.5161 69.5473 76.2301 69.1402 75.8438 68.8295C75.4574 68.5189 74.965 68.3636 74.3665 68.3636C73.768 68.3636 73.2756 68.5189 72.8892 68.8295C72.5028 69.1402 72.2169 69.5473 72.0312 70.0511C71.8456 70.5549 71.7528 71.0985 71.7528 71.6818C71.7528 72.2652 71.8456 72.8068 72.0312 73.3068C72.2169 73.8068 72.5028 74.2102 72.8892 74.517C73.2756 74.8239 73.768 74.9773 74.3665 74.9773ZM80.3679 76V67.2727H81.6634V68.5909H81.7543C81.9134 68.1591 82.2012 67.8087 82.6179 67.5398C83.0346 67.2708 83.5043 67.1364 84.027 67.1364C84.1255 67.1364 84.2486 67.1383 84.3963 67.142C84.544 67.1458 84.6558 67.1515 84.7315 67.1591V68.5227C84.6861 68.5114 84.5819 68.4943 84.419 68.4716C84.2599 68.4451 84.0914 68.4318 83.9134 68.4318C83.4891 68.4318 83.1103 68.5208 82.777 68.6989C82.4474 68.8731 82.1861 69.1155 81.9929 69.4261C81.8035 69.733 81.7088 70.0833 81.7088 70.4773V76H80.3679ZM89.3509 76.1818C88.6236 76.1818 87.9815 75.9981 87.4247 75.6307C86.8679 75.2595 86.4323 74.7367 86.1179 74.0625C85.8035 73.3845 85.6463 72.5833 85.6463 71.6591C85.6463 70.7424 85.8035 69.947 86.1179 69.2727C86.4323 68.5985 86.8698 68.0777 87.4304 67.7102C87.991 67.3428 88.6387 67.1591 89.3736 67.1591C89.9418 67.1591 90.3906 67.2538 90.7202 67.4432C91.0535 67.6288 91.3073 67.8409 91.4815 68.0795C91.6596 68.3144 91.7978 68.5076 91.8963 68.6591H92.0099V64.3636H93.3509V76H92.0554V74.6591H91.8963C91.7978 74.8182 91.6577 75.0189 91.4759 75.2614C91.294 75.5 91.0346 75.714 90.6974 75.9034C90.3603 76.089 89.9115 76.1818 89.3509 76.1818ZM89.5327 74.9773C90.0705 74.9773 90.5251 74.8371 90.8963 74.5568C91.2675 74.2727 91.5497 73.8807 91.7429 73.3807C91.9361 72.8769 92.0327 72.2955 92.0327 71.6364C92.0327 70.9848 91.938 70.4148 91.7486 69.9261C91.5592 69.4337 91.2789 69.0511 90.9077 68.7784C90.5365 68.5019 90.0781 68.3636 89.5327 68.3636C88.9645 68.3636 88.491 68.5095 88.1122 68.8011C87.7372 69.089 87.455 69.4811 87.2656 69.9773C87.08 70.4697 86.9872 71.0227 86.9872 71.6364C86.9872 72.2576 87.0819 72.822 87.2713 73.3295C87.4645 73.8333 87.7486 74.2348 88.1236 74.5341C88.5024 74.8295 88.9721 74.9773 89.5327 74.9773Z" fill="black"/>
</svg>
