<svg width="1024" height="700" viewBox="0 0 1024 700" fill="none" xmlns="http://www.w3.org/2000/svg">
<rect x="0.5" y="0.5" width="1023" height="699" rx="7.5" fill="white"/>
<rect x="0.5" y="0.5" width="1023" height="699" rx="7.5" stroke="black"/>
<rect x="31" y="21.9829" width="12" height="12" rx="6" fill="black"/>
<rect x="31.25" y="22.2329" width="11.5" height="11.5" rx="5.75" stroke="black" stroke-opacity="0.2" stroke-width="0.5"/>
<rect x="51" y="21.9829" width="12" height="12" rx="6" fill="#C9C9C9"/>
<rect x="51.25" y="22.2329" width="11.5" height="11.5" rx="5.75" stroke="black" stroke-opacity="0.2" stroke-width="0.5"/>
<rect x="71" y="21.9829" width="12" height="12" rx="6" fill="#898989"/>
<rect x="71.25" y="22.2329" width="11.5" height="11.5" rx="5.75" stroke="black" stroke-opacity="0.2" stroke-width="0.5"/>
<circle cx="432" cy="450" r="6" fill="black"/>
<path d="M412 436C412 432.686 414.686 430 418 430H452V470H418C414.686 470 412 467.314 412 464V436Z" stroke="black"/>
<circle cx="472" cy="450" r="6" fill="black"/>
<rect x="452" y="430" width="40" height="40" stroke="black"/>
<circle cx="512" cy="450" r="6" fill="black"/>
<rect x="492" y="430" width="40" height="40" stroke="black"/>
<circle cx="552" cy="450" r="6" fill="black"/>
<rect x="532" y="430" width="40" height="40" stroke="black"/>
<path d="M572 430H606C609.314 430 612 432.686 612 436V464C612 467.314 609.314 470 606 470H572V430Z" stroke="black"/>
<circle cx="512.691" cy="289.385" r="42.6064" stroke="black"/>
<path d="M482.019 320.057L542.057 260.019" stroke="black"/>
<path d="M542.057 320.057L482.019 260.019" stroke="black"/>
<path d="M436.647 134.412C436.486 133.815 436.249 133.29 435.936 132.835C435.624 132.371 435.24 131.978 434.786 131.656C434.331 131.334 433.81 131.093 433.223 130.932C432.636 130.761 431.992 130.676 431.291 130.676C429.88 130.676 428.659 131.017 427.627 131.699C426.604 132.381 425.813 133.375 425.254 134.682C424.696 135.979 424.416 137.556 424.416 139.412C424.416 141.277 424.686 142.868 425.226 144.185C425.766 145.501 426.547 146.505 427.57 147.196C428.593 147.887 429.833 148.233 431.291 148.233C432.579 148.233 433.668 148.025 434.558 147.608C435.458 147.182 436.14 146.58 436.604 145.804C437.068 145.027 437.3 144.114 437.3 143.062L438.607 143.219H431.533V138.091H444.075V141.94C444.075 144.545 443.522 146.775 442.414 148.631C441.315 150.487 439.8 151.912 437.868 152.906C435.946 153.901 433.735 154.398 431.235 154.398C428.46 154.398 426.022 153.796 423.919 152.594C421.817 151.391 420.179 149.677 419.004 147.452C417.83 145.217 417.243 142.565 417.243 139.497C417.243 137.111 417.598 134.994 418.308 133.148C419.019 131.292 420.008 129.72 421.277 128.432C422.556 127.144 424.033 126.169 425.709 125.506C427.395 124.843 429.208 124.511 431.149 124.511C432.835 124.511 434.402 124.753 435.851 125.236C437.309 125.719 438.597 126.401 439.715 127.281C440.842 128.162 441.755 129.208 442.456 130.42C443.157 131.633 443.593 132.963 443.763 134.412H436.647ZM456.804 154.412C454.513 154.412 452.543 153.943 450.895 153.006C449.257 152.059 447.993 150.742 447.103 149.057C446.222 147.362 445.782 145.397 445.782 143.162C445.782 140.918 446.222 138.953 447.103 137.267C447.993 135.572 449.257 134.256 450.895 133.318C452.543 132.371 454.513 131.898 456.804 131.898C459.096 131.898 461.061 132.371 462.699 133.318C464.347 134.256 465.611 135.572 466.492 137.267C467.382 138.953 467.827 140.918 467.827 143.162C467.827 145.397 467.382 147.362 466.492 149.057C465.611 150.742 464.347 152.059 462.699 153.006C461.061 153.943 459.096 154.412 456.804 154.412ZM456.847 149.17C457.68 149.17 458.386 148.915 458.963 148.403C459.541 147.892 459.981 147.182 460.284 146.273C460.597 145.364 460.753 144.312 460.753 143.119C460.753 141.907 460.597 140.847 460.284 139.938C459.981 139.028 459.541 138.318 458.963 137.807C458.386 137.295 457.68 137.04 456.847 137.04C455.985 137.04 455.256 137.295 454.659 137.807C454.072 138.318 453.623 139.028 453.31 139.938C453.007 140.847 452.855 141.907 452.855 143.119C452.855 144.312 453.007 145.364 453.31 146.273C453.623 147.182 454.072 147.892 454.659 148.403C455.256 148.915 455.985 149.17 456.847 149.17ZM479.97 154.412C477.678 154.412 475.709 153.943 474.061 153.006C472.423 152.059 471.158 150.742 470.268 149.057C469.388 147.362 468.947 145.397 468.947 143.162C468.947 140.918 469.388 138.953 470.268 137.267C471.158 135.572 472.423 134.256 474.061 133.318C475.709 132.371 477.678 131.898 479.97 131.898C482.262 131.898 484.227 132.371 485.865 133.318C487.513 134.256 488.777 135.572 489.657 137.267C490.548 138.953 490.993 140.918 490.993 143.162C490.993 145.397 490.548 147.362 489.657 149.057C488.777 150.742 487.513 152.059 485.865 153.006C484.227 153.943 482.262 154.412 479.97 154.412ZM480.013 149.17C480.846 149.17 481.551 148.915 482.129 148.403C482.707 147.892 483.147 147.182 483.45 146.273C483.763 145.364 483.919 144.312 483.919 143.119C483.919 141.907 483.763 140.847 483.45 139.938C483.147 139.028 482.707 138.318 482.129 137.807C481.551 137.295 480.846 137.04 480.013 137.04C479.151 137.04 478.422 137.295 477.825 137.807C477.238 138.318 476.788 139.028 476.476 139.938C476.173 140.847 476.021 141.907 476.021 143.119C476.021 144.312 476.173 145.364 476.476 146.273C476.788 147.182 477.238 147.892 477.825 148.403C478.422 148.915 479.151 149.17 480.013 149.17ZM500.92 154.312C499.31 154.312 497.847 153.896 496.53 153.062C495.214 152.229 494.163 150.979 493.377 149.312C492.591 147.646 492.198 145.577 492.198 143.105C492.198 140.539 492.605 138.427 493.42 136.77C494.234 135.113 495.299 133.886 496.616 133.091C497.941 132.295 499.367 131.898 500.891 131.898C502.037 131.898 503.017 132.097 503.832 132.494C504.646 132.883 505.318 133.384 505.849 134C506.379 134.616 506.781 135.255 507.056 135.918H507.198V124.909H514.144V154H507.269V150.463H507.056C506.762 151.135 506.346 151.765 505.806 152.352C505.266 152.939 504.589 153.413 503.775 153.773C502.97 154.133 502.018 154.312 500.92 154.312ZM503.334 148.901C504.177 148.901 504.897 148.664 505.494 148.19C506.09 147.707 506.549 147.03 506.871 146.159C507.193 145.288 507.354 144.265 507.354 143.091C507.354 141.898 507.193 140.87 506.871 140.009C506.559 139.147 506.1 138.484 505.494 138.02C504.897 137.556 504.177 137.324 503.334 137.324C502.473 137.324 501.744 137.561 501.147 138.034C500.55 138.508 500.096 139.175 499.783 140.037C499.48 140.899 499.329 141.917 499.329 143.091C499.329 144.265 499.485 145.288 499.798 146.159C500.11 147.03 500.56 147.707 501.147 148.19C501.744 148.664 502.473 148.901 503.334 148.901Z" fill="#373737"/>
<path d="M527.69 154H516.937V124.909H527.675C530.64 124.909 533.192 125.491 535.332 126.656C537.481 127.812 539.139 129.478 540.303 131.656C541.468 133.825 542.05 136.42 542.05 139.44C542.05 142.471 541.468 145.075 540.303 147.253C539.148 149.431 537.496 151.102 535.346 152.267C533.196 153.422 530.644 154 527.69 154ZM523.968 148.006H527.42C529.049 148.006 530.426 147.731 531.553 147.182C532.69 146.623 533.547 145.719 534.124 144.469C534.711 143.209 535.005 141.533 535.005 139.44C535.005 137.348 534.711 135.681 534.124 134.44C533.537 133.19 532.671 132.291 531.525 131.741C530.389 131.183 528.987 130.903 527.32 130.903H523.968V148.006ZM550.706 154.369C549.314 154.369 548.078 154.137 546.999 153.673C545.929 153.2 545.081 152.49 544.456 151.543C543.841 150.586 543.533 149.388 543.533 147.949C543.533 146.737 543.746 145.714 544.172 144.881C544.598 144.047 545.185 143.37 545.933 142.849C546.682 142.329 547.543 141.936 548.519 141.67C549.494 141.396 550.536 141.211 551.644 141.116C552.884 141.003 553.883 140.884 554.641 140.761C555.398 140.629 555.948 140.444 556.289 140.207C556.639 139.961 556.814 139.616 556.814 139.17V139.099C556.814 138.37 556.563 137.807 556.061 137.409C555.559 137.011 554.882 136.812 554.03 136.812C553.111 136.812 552.373 137.011 551.814 137.409C551.255 137.807 550.9 138.356 550.749 139.057L544.343 138.83C544.532 137.504 545.02 136.32 545.806 135.278C546.601 134.227 547.69 133.403 549.073 132.807C550.465 132.201 552.136 131.898 554.087 131.898C555.479 131.898 556.762 132.063 557.936 132.395C559.111 132.717 560.133 133.19 561.004 133.815C561.876 134.431 562.548 135.188 563.022 136.088C563.504 136.988 563.746 138.015 563.746 139.17V154H557.212V150.96H557.041C556.653 151.699 556.156 152.324 555.55 152.835C554.953 153.347 554.248 153.73 553.433 153.986C552.629 154.241 551.719 154.369 550.706 154.369ZM552.851 149.824C553.599 149.824 554.272 149.672 554.868 149.369C555.474 149.066 555.957 148.65 556.317 148.119C556.677 147.58 556.857 146.955 556.857 146.244V144.17C556.658 144.275 556.416 144.369 556.132 144.455C555.858 144.54 555.555 144.62 555.223 144.696C554.892 144.772 554.551 144.838 554.201 144.895C553.85 144.952 553.514 145.004 553.192 145.051C552.539 145.155 551.98 145.316 551.516 145.534C551.061 145.752 550.711 146.036 550.465 146.386C550.228 146.727 550.11 147.134 550.11 147.608C550.11 148.328 550.365 148.877 550.877 149.256C551.397 149.634 552.056 149.824 552.851 149.824ZM569.859 162.182C569.026 162.182 568.24 162.116 567.501 161.983C566.762 161.86 566.128 161.694 565.598 161.486L567.132 156.443C567.814 156.67 568.429 156.803 568.978 156.841C569.537 156.879 570.015 156.789 570.413 156.571C570.82 156.363 571.133 155.989 571.35 155.449L571.62 154.795L563.865 132.182H571.137L575.157 147.75H575.385L579.461 132.182H586.777L578.552 156.088C578.154 157.281 577.591 158.332 576.862 159.241C576.142 160.16 575.209 160.88 574.064 161.401C572.927 161.921 571.526 162.182 569.859 162.182ZM606.888 138.844L600.51 139.014C600.444 138.56 600.264 138.157 599.971 137.807C599.677 137.447 599.294 137.168 598.82 136.969C598.356 136.76 597.816 136.656 597.201 136.656C596.396 136.656 595.709 136.817 595.141 137.139C594.582 137.461 594.308 137.897 594.317 138.446C594.308 138.872 594.478 139.241 594.829 139.554C595.188 139.866 595.828 140.117 596.746 140.307L600.951 141.102C603.129 141.519 604.748 142.21 605.809 143.176C606.879 144.142 607.419 145.42 607.428 147.011C607.419 148.508 606.974 149.81 606.093 150.918C605.222 152.026 604.028 152.887 602.513 153.503C600.998 154.109 599.265 154.412 597.314 154.412C594.199 154.412 591.741 153.773 589.942 152.494C588.152 151.206 587.13 149.483 586.874 147.324L593.735 147.153C593.886 147.949 594.279 148.555 594.914 148.972C595.548 149.388 596.358 149.597 597.343 149.597C598.233 149.597 598.957 149.431 599.516 149.099C600.075 148.768 600.359 148.328 600.368 147.778C600.359 147.286 600.141 146.893 599.715 146.599C599.289 146.296 598.621 146.06 597.712 145.889L593.905 145.165C591.718 144.767 590.089 144.033 589.019 142.963C587.949 141.884 587.419 140.51 587.428 138.844C587.419 137.385 587.807 136.14 588.593 135.108C589.379 134.066 590.496 133.271 591.945 132.722C593.394 132.172 595.103 131.898 597.073 131.898C600.027 131.898 602.357 132.518 604.062 133.759C605.766 134.99 606.708 136.685 606.888 138.844Z" fill="#898989"/>
<path d="M426.55 364.364H428.163L431.391 369.795H431.527L434.754 364.364H436.368L432.163 371.205V376H430.754V371.205L426.55 364.364ZM440.32 376.182C439.532 376.182 438.84 375.994 438.246 375.619C437.655 375.244 437.193 374.72 436.859 374.045C436.53 373.371 436.365 372.583 436.365 371.682C436.365 370.773 436.53 369.979 436.859 369.301C437.193 368.623 437.655 368.097 438.246 367.722C438.84 367.347 439.532 367.159 440.32 367.159C441.107 367.159 441.797 367.347 442.388 367.722C442.982 368.097 443.445 368.623 443.774 369.301C444.107 369.979 444.274 370.773 444.274 371.682C444.274 372.583 444.107 373.371 443.774 374.045C443.445 374.72 442.982 375.244 442.388 375.619C441.797 375.994 441.107 376.182 440.32 376.182ZM440.32 374.977C440.918 374.977 441.411 374.824 441.797 374.517C442.183 374.21 442.469 373.807 442.655 373.307C442.84 372.807 442.933 372.265 442.933 371.682C442.933 371.098 442.84 370.555 442.655 370.051C442.469 369.547 442.183 369.14 441.797 368.83C441.411 368.519 440.918 368.364 440.32 368.364C439.721 368.364 439.229 368.519 438.842 368.83C438.456 369.14 438.17 369.547 437.984 370.051C437.799 370.555 437.706 371.098 437.706 371.682C437.706 372.265 437.799 372.807 437.984 373.307C438.17 373.807 438.456 374.21 438.842 374.517C439.229 374.824 439.721 374.977 440.32 374.977ZM451.821 372.432V367.273H453.162V376H451.821V374.523H451.73C451.526 374.966 451.207 375.343 450.776 375.653C450.344 375.96 449.798 376.114 449.139 376.114C448.594 376.114 448.109 375.994 447.685 375.756C447.26 375.513 446.927 375.15 446.685 374.665C446.442 374.176 446.321 373.561 446.321 372.818V367.273H447.662V372.727C447.662 373.364 447.84 373.871 448.196 374.25C448.556 374.629 449.014 374.818 449.571 374.818C449.904 374.818 450.243 374.733 450.588 374.562C450.937 374.392 451.228 374.131 451.463 373.778C451.702 373.426 451.821 372.977 451.821 372.432ZM455.618 376V367.273H456.913V368.591H457.004C457.163 368.159 457.451 367.809 457.868 367.54C458.285 367.271 458.754 367.136 459.277 367.136C459.375 367.136 459.499 367.138 459.646 367.142C459.794 367.146 459.906 367.152 459.982 367.159V368.523C459.936 368.511 459.832 368.494 459.669 368.472C459.51 368.445 459.341 368.432 459.163 368.432C458.739 368.432 458.36 368.521 458.027 368.699C457.697 368.873 457.436 369.116 457.243 369.426C457.054 369.733 456.959 370.083 456.959 370.477V376H455.618ZM466.071 367.273H467.412V376.636C467.412 377.174 467.319 377.64 467.134 378.034C466.952 378.428 466.675 378.733 466.304 378.949C465.937 379.165 465.473 379.273 464.912 379.273C464.866 379.273 464.821 379.273 464.776 379.273C464.73 379.273 464.685 379.273 464.639 379.273V378.023C464.685 378.023 464.726 378.023 464.764 378.023C464.802 378.023 464.844 378.023 464.889 378.023C465.298 378.023 465.598 377.902 465.787 377.659C465.976 377.42 466.071 377.08 466.071 376.636V367.273ZM466.73 365.818C466.469 365.818 466.243 365.729 466.054 365.551C465.868 365.373 465.776 365.159 465.776 364.909C465.776 364.659 465.868 364.445 466.054 364.267C466.243 364.089 466.469 364 466.73 364C466.991 364 467.215 364.089 467.401 364.267C467.59 364.445 467.685 364.659 467.685 364.909C467.685 365.159 467.59 365.373 467.401 365.551C467.215 365.729 466.991 365.818 466.73 365.818ZM473.413 376.182C472.625 376.182 471.934 375.994 471.339 375.619C470.749 375.244 470.286 374.72 469.953 374.045C469.624 373.371 469.459 372.583 469.459 371.682C469.459 370.773 469.624 369.979 469.953 369.301C470.286 368.623 470.749 368.097 471.339 367.722C471.934 367.347 472.625 367.159 473.413 367.159C474.201 367.159 474.891 367.347 475.482 367.722C476.076 368.097 476.538 368.623 476.868 369.301C477.201 369.979 477.368 370.773 477.368 371.682C477.368 372.583 477.201 373.371 476.868 374.045C476.538 374.72 476.076 375.244 475.482 375.619C474.891 375.994 474.201 376.182 473.413 376.182ZM473.413 374.977C474.012 374.977 474.504 374.824 474.891 374.517C475.277 374.21 475.563 373.807 475.749 373.307C475.934 372.807 476.027 372.265 476.027 371.682C476.027 371.098 475.934 370.555 475.749 370.051C475.563 369.547 475.277 369.14 474.891 368.83C474.504 368.519 474.012 368.364 473.413 368.364C472.815 368.364 472.322 368.519 471.936 368.83C471.55 369.14 471.264 369.547 471.078 370.051C470.893 370.555 470.8 371.098 470.8 371.682C470.8 372.265 470.893 372.807 471.078 373.307C471.264 373.807 471.55 374.21 471.936 374.517C472.322 374.824 472.815 374.977 473.413 374.977ZM484.915 372.432V367.273H486.256V376H484.915V374.523H484.824C484.619 374.966 484.301 375.343 483.869 375.653C483.438 375.96 482.892 376.114 482.233 376.114C481.688 376.114 481.203 375.994 480.778 375.756C480.354 375.513 480.021 375.15 479.778 374.665C479.536 374.176 479.415 373.561 479.415 372.818V367.273H480.756V372.727C480.756 373.364 480.934 373.871 481.29 374.25C481.65 374.629 482.108 374.818 482.665 374.818C482.998 374.818 483.337 374.733 483.682 374.562C484.03 374.392 484.322 374.131 484.557 373.778C484.795 373.426 484.915 372.977 484.915 372.432ZM488.712 376V367.273H490.007V368.591H490.098C490.257 368.159 490.545 367.809 490.962 367.54C491.378 367.271 491.848 367.136 492.371 367.136C492.469 367.136 492.592 367.138 492.74 367.142C492.888 367.146 493 367.152 493.075 367.159V368.523C493.03 368.511 492.926 368.494 492.763 368.472C492.604 368.445 492.435 368.432 492.257 368.432C491.833 368.432 491.454 368.521 491.121 368.699C490.791 368.873 490.53 369.116 490.337 369.426C490.147 369.733 490.053 370.083 490.053 370.477V376H488.712ZM496.006 370.75V376H494.665V367.273H495.96V368.636H496.074C496.278 368.193 496.589 367.837 497.006 367.568C497.422 367.295 497.96 367.159 498.619 367.159C499.21 367.159 499.727 367.28 500.17 367.523C500.614 367.761 500.958 368.125 501.205 368.614C501.451 369.098 501.574 369.712 501.574 370.455V376H500.233V370.545C500.233 369.86 500.055 369.326 499.699 368.943C499.343 368.557 498.854 368.364 498.233 368.364C497.805 368.364 497.422 368.456 497.085 368.642C496.752 368.828 496.489 369.098 496.295 369.455C496.102 369.811 496.006 370.242 496.006 370.75ZM506.592 376.205C506.039 376.205 505.537 376.1 505.087 375.892C504.636 375.68 504.278 375.375 504.013 374.977C503.748 374.576 503.615 374.091 503.615 373.523C503.615 373.023 503.714 372.617 503.911 372.307C504.107 371.992 504.371 371.746 504.7 371.568C505.03 371.39 505.393 371.258 505.791 371.17C506.193 371.08 506.596 371.008 507.001 370.955C507.532 370.886 507.962 370.835 508.291 370.801C508.625 370.763 508.867 370.701 509.018 370.614C509.174 370.527 509.251 370.375 509.251 370.159V370.114C509.251 369.553 509.098 369.117 508.791 368.807C508.488 368.496 508.028 368.341 507.411 368.341C506.77 368.341 506.268 368.481 505.905 368.761C505.541 369.042 505.286 369.341 505.138 369.659L503.865 369.205C504.092 368.674 504.395 368.261 504.774 367.966C505.157 367.667 505.573 367.458 506.024 367.341C506.479 367.22 506.926 367.159 507.365 367.159C507.645 367.159 507.967 367.193 508.331 367.261C508.698 367.326 509.053 367.46 509.393 367.665C509.738 367.869 510.024 368.178 510.251 368.591C510.479 369.004 510.592 369.557 510.592 370.25V376H509.251V374.818H509.183C509.092 375.008 508.941 375.21 508.729 375.426C508.517 375.642 508.234 375.826 507.882 375.977C507.53 376.129 507.1 376.205 506.592 376.205ZM506.797 375C507.327 375 507.774 374.896 508.138 374.688C508.505 374.479 508.782 374.21 508.967 373.881C509.157 373.551 509.251 373.205 509.251 372.841V371.614C509.195 371.682 509.07 371.744 508.876 371.801C508.687 371.854 508.467 371.902 508.217 371.943C507.971 371.981 507.731 372.015 507.496 372.045C507.265 372.072 507.077 372.095 506.933 372.114C506.585 372.159 506.259 372.233 505.956 372.335C505.657 372.434 505.414 372.583 505.229 372.784C505.047 372.981 504.956 373.25 504.956 373.591C504.956 374.057 505.128 374.409 505.473 374.648C505.821 374.883 506.263 375 506.797 375ZM514.381 364.364V376H513.04V364.364H514.381ZM521.337 376V367.273H522.678V376H521.337ZM522.018 365.818C521.757 365.818 521.532 365.729 521.342 365.551C521.157 365.373 521.064 365.159 521.064 364.909C521.064 364.659 521.157 364.445 521.342 364.267C521.532 364.089 521.757 364 522.018 364C522.28 364 522.503 364.089 522.689 364.267C522.878 364.445 522.973 364.659 522.973 364.909C522.973 365.159 522.878 365.373 522.689 365.551C522.503 365.729 522.28 365.818 522.018 365.818ZM531.315 369.227L530.111 369.568C530.035 369.367 529.923 369.172 529.776 368.983C529.632 368.79 529.435 368.631 529.185 368.506C528.935 368.381 528.615 368.318 528.224 368.318C527.69 368.318 527.245 368.441 526.889 368.688C526.537 368.93 526.361 369.239 526.361 369.614C526.361 369.947 526.482 370.21 526.724 370.403C526.967 370.597 527.346 370.758 527.861 370.886L529.156 371.205C529.937 371.394 530.518 371.684 530.901 372.074C531.283 372.46 531.474 372.958 531.474 373.568C531.474 374.068 531.33 374.515 531.043 374.909C530.759 375.303 530.361 375.614 529.849 375.841C529.338 376.068 528.743 376.182 528.065 376.182C527.175 376.182 526.438 375.989 525.855 375.602C525.272 375.216 524.902 374.652 524.747 373.909L526.02 373.591C526.141 374.061 526.37 374.413 526.707 374.648C527.048 374.883 527.493 375 528.043 375C528.668 375 529.164 374.867 529.531 374.602C529.902 374.333 530.088 374.011 530.088 373.636C530.088 373.333 529.982 373.08 529.77 372.875C529.558 372.667 529.232 372.511 528.793 372.409L527.338 372.068C526.539 371.879 525.952 371.585 525.577 371.188C525.205 370.786 525.02 370.284 525.02 369.682C525.02 369.189 525.158 368.754 525.435 368.375C525.715 367.996 526.096 367.699 526.577 367.483C527.062 367.267 527.611 367.159 528.224 367.159C529.088 367.159 529.766 367.348 530.259 367.727C530.755 368.106 531.107 368.606 531.315 369.227ZM537.288 367.273V368.409H532.766V367.273H537.288ZM534.084 365.182H535.425V373.5C535.425 373.879 535.48 374.163 535.589 374.352C535.703 374.538 535.847 374.663 536.021 374.727C536.199 374.788 536.387 374.818 536.584 374.818C536.732 374.818 536.853 374.811 536.947 374.795C537.042 374.777 537.118 374.761 537.175 374.75L537.447 375.955C537.357 375.989 537.23 376.023 537.067 376.057C536.904 376.095 536.697 376.114 536.447 376.114C536.069 376.114 535.697 376.032 535.334 375.869C534.974 375.706 534.675 375.458 534.436 375.125C534.201 374.792 534.084 374.371 534.084 373.864V365.182ZM545.146 364.364V376H543.805V364.364H545.146ZM551.148 376.182C550.36 376.182 549.669 375.994 549.074 375.619C548.483 375.244 548.021 374.72 547.688 374.045C547.358 373.371 547.193 372.583 547.193 371.682C547.193 370.773 547.358 369.979 547.688 369.301C548.021 368.623 548.483 368.097 549.074 367.722C549.669 367.347 550.36 367.159 551.148 367.159C551.936 367.159 552.625 367.347 553.216 367.722C553.811 368.097 554.273 368.623 554.602 369.301C554.936 369.979 555.102 370.773 555.102 371.682C555.102 372.583 554.936 373.371 554.602 374.045C554.273 374.72 553.811 375.244 553.216 375.619C552.625 375.994 551.936 376.182 551.148 376.182ZM551.148 374.977C551.746 374.977 552.239 374.824 552.625 374.517C553.011 374.21 553.297 373.807 553.483 373.307C553.669 372.807 553.761 372.265 553.761 371.682C553.761 371.098 553.669 370.555 553.483 370.051C553.297 369.547 553.011 369.14 552.625 368.83C552.239 368.519 551.746 368.364 551.148 368.364C550.549 368.364 550.057 368.519 549.67 368.83C549.284 369.14 548.998 369.547 548.812 370.051C548.627 370.555 548.534 371.098 548.534 371.682C548.534 372.265 548.627 372.807 548.812 373.307C548.998 373.807 549.284 374.21 549.67 374.517C550.057 374.824 550.549 374.977 551.148 374.977ZM560.695 376.182C559.876 376.182 559.172 375.989 558.581 375.602C557.99 375.216 557.536 374.684 557.217 374.006C556.899 373.328 556.74 372.553 556.74 371.682C556.74 370.795 556.903 370.013 557.229 369.335C557.558 368.653 558.017 368.121 558.604 367.739C559.195 367.352 559.884 367.159 560.672 367.159C561.286 367.159 561.839 367.273 562.331 367.5C562.823 367.727 563.227 368.045 563.541 368.455C563.856 368.864 564.051 369.341 564.126 369.886H562.786C562.683 369.489 562.456 369.136 562.104 368.83C561.755 368.519 561.286 368.364 560.695 368.364C560.172 368.364 559.714 368.5 559.32 368.773C558.929 369.042 558.625 369.422 558.405 369.915C558.189 370.403 558.081 370.977 558.081 371.636C558.081 372.311 558.187 372.898 558.399 373.398C558.615 373.898 558.918 374.286 559.308 374.562C559.702 374.839 560.164 374.977 560.695 374.977C561.043 374.977 561.359 374.917 561.643 374.795C561.928 374.674 562.168 374.5 562.365 374.273C562.562 374.045 562.702 373.773 562.786 373.455H564.126C564.051 373.97 563.863 374.434 563.564 374.847C563.268 375.256 562.876 375.581 562.388 375.824C561.903 376.062 561.339 376.182 560.695 376.182ZM567.337 372.818L567.314 371.159H567.587L571.405 367.273H573.064L568.996 371.386H568.882L567.337 372.818ZM566.087 376V364.364H567.428V376H566.087ZM571.632 376L568.223 371.682L569.178 370.75L573.337 376H571.632ZM578.089 376.182C577.249 376.182 576.523 375.996 575.913 375.625C575.307 375.25 574.839 374.727 574.51 374.057C574.184 373.383 574.021 372.598 574.021 371.705C574.021 370.811 574.184 370.023 574.51 369.341C574.839 368.655 575.298 368.121 575.885 367.739C576.476 367.352 577.165 367.159 577.953 367.159C578.408 367.159 578.857 367.235 579.3 367.386C579.743 367.538 580.146 367.784 580.51 368.125C580.874 368.462 581.163 368.909 581.379 369.466C581.595 370.023 581.703 370.708 581.703 371.523V372.091H574.976V370.932H580.339C580.339 370.439 580.241 370 580.044 369.614C579.851 369.227 579.574 368.922 579.214 368.699C578.858 368.475 578.438 368.364 577.953 368.364C577.419 368.364 576.957 368.496 576.567 368.761C576.18 369.023 575.883 369.364 575.675 369.784C575.466 370.205 575.362 370.655 575.362 371.136V371.909C575.362 372.568 575.476 373.127 575.703 373.585C575.934 374.04 576.254 374.386 576.663 374.625C577.072 374.86 577.548 374.977 578.089 374.977C578.442 374.977 578.76 374.928 579.044 374.83C579.332 374.727 579.58 374.576 579.788 374.375C579.997 374.17 580.158 373.917 580.271 373.614L581.567 373.977C581.43 374.417 581.201 374.803 580.879 375.136C580.557 375.466 580.16 375.723 579.686 375.909C579.213 376.091 578.68 376.182 578.089 376.182ZM587.038 376.182C586.311 376.182 585.669 375.998 585.112 375.631C584.555 375.259 584.12 374.737 583.805 374.062C583.491 373.384 583.334 372.583 583.334 371.659C583.334 370.742 583.491 369.947 583.805 369.273C584.12 368.598 584.557 368.078 585.118 367.71C585.679 367.343 586.326 367.159 587.061 367.159C587.629 367.159 588.078 367.254 588.408 367.443C588.741 367.629 588.995 367.841 589.169 368.08C589.347 368.314 589.485 368.508 589.584 368.659H589.697V364.364H591.038V376H589.743V374.659H589.584C589.485 374.818 589.345 375.019 589.163 375.261C588.982 375.5 588.722 375.714 588.385 375.903C588.048 376.089 587.599 376.182 587.038 376.182ZM587.22 374.977C587.758 374.977 588.213 374.837 588.584 374.557C588.955 374.273 589.237 373.881 589.43 373.381C589.624 372.877 589.72 372.295 589.72 371.636C589.72 370.985 589.625 370.415 589.436 369.926C589.247 369.434 588.966 369.051 588.595 368.778C588.224 368.502 587.766 368.364 587.22 368.364C586.652 368.364 586.179 368.509 585.8 368.801C585.425 369.089 585.143 369.481 584.953 369.977C584.768 370.47 584.675 371.023 584.675 371.636C584.675 372.258 584.769 372.822 584.959 373.33C585.152 373.833 585.436 374.235 585.811 374.534C586.19 374.83 586.66 374.977 587.22 374.977ZM594.658 376.091C594.377 376.091 594.137 375.991 593.936 375.79C593.735 375.589 593.635 375.348 593.635 375.068C593.635 374.788 593.735 374.547 593.936 374.347C594.137 374.146 594.377 374.045 594.658 374.045C594.938 374.045 595.179 374.146 595.379 374.347C595.58 374.547 595.68 374.788 595.68 375.068C595.68 375.254 595.633 375.424 595.538 375.58C595.447 375.735 595.324 375.86 595.169 375.955C595.018 376.045 594.847 376.091 594.658 376.091ZM358.722 398V386.364H365.744V387.614H360.131V391.545H365.381V392.795H360.131V396.75H365.835V398H358.722ZM369.443 392.75V398H368.102V389.273H369.398V390.636H369.511C369.716 390.193 370.027 389.837 370.443 389.568C370.86 389.295 371.398 389.159 372.057 389.159C372.648 389.159 373.165 389.28 373.608 389.523C374.051 389.761 374.396 390.125 374.642 390.614C374.888 391.098 375.011 391.712 375.011 392.455V398H373.67V392.545C373.67 391.86 373.492 391.326 373.136 390.943C372.78 390.557 372.292 390.364 371.67 390.364C371.242 390.364 370.86 390.456 370.523 390.642C370.189 390.828 369.926 391.098 369.733 391.455C369.54 391.811 369.443 392.242 369.443 392.75ZM381.257 389.273V390.409H376.734V389.273H381.257ZM378.053 387.182H379.393V395.5C379.393 395.879 379.448 396.163 379.558 396.352C379.672 396.538 379.816 396.663 379.99 396.727C380.168 396.788 380.356 396.818 380.553 396.818C380.7 396.818 380.821 396.811 380.916 396.795C381.011 396.777 381.087 396.761 381.143 396.75L381.416 397.955C381.325 397.989 381.198 398.023 381.036 398.057C380.873 398.095 380.666 398.114 380.416 398.114C380.037 398.114 379.666 398.032 379.303 397.869C378.943 397.706 378.643 397.458 378.405 397.125C378.17 396.792 378.053 396.371 378.053 395.864V387.182ZM386.839 398.182C385.999 398.182 385.273 397.996 384.663 397.625C384.057 397.25 383.589 396.727 383.26 396.057C382.934 395.383 382.771 394.598 382.771 393.705C382.771 392.811 382.934 392.023 383.26 391.341C383.589 390.655 384.048 390.121 384.635 389.739C385.226 389.352 385.915 389.159 386.703 389.159C387.158 389.159 387.607 389.235 388.05 389.386C388.493 389.538 388.896 389.784 389.26 390.125C389.624 390.462 389.913 390.909 390.129 391.466C390.345 392.023 390.453 392.708 390.453 393.523V394.091H383.726V392.932H389.089C389.089 392.439 388.991 392 388.794 391.614C388.601 391.227 388.324 390.922 387.964 390.699C387.608 390.475 387.188 390.364 386.703 390.364C386.169 390.364 385.707 390.496 385.317 390.761C384.93 391.023 384.633 391.364 384.425 391.784C384.216 392.205 384.112 392.655 384.112 393.136V393.909C384.112 394.568 384.226 395.127 384.453 395.585C384.684 396.04 385.004 396.386 385.413 396.625C385.822 396.86 386.298 396.977 386.839 396.977C387.192 396.977 387.51 396.928 387.794 396.83C388.082 396.727 388.33 396.576 388.538 396.375C388.747 396.17 388.908 395.917 389.021 395.614L390.317 395.977C390.18 396.417 389.951 396.803 389.629 397.136C389.307 397.466 388.91 397.723 388.436 397.909C387.963 398.091 387.43 398.182 386.839 398.182ZM392.493 398V389.273H393.788V390.591H393.879C394.038 390.159 394.326 389.809 394.743 389.54C395.16 389.271 395.629 389.136 396.152 389.136C396.25 389.136 396.374 389.138 396.521 389.142C396.669 389.146 396.781 389.152 396.857 389.159V390.523C396.811 390.511 396.707 390.494 396.544 390.472C396.385 390.445 396.216 390.432 396.038 390.432C395.614 390.432 395.235 390.521 394.902 390.699C394.572 390.873 394.311 391.116 394.118 391.426C393.929 391.733 393.834 392.083 393.834 392.477V398H392.493ZM403.81 401.273C403.582 401.273 403.38 401.254 403.202 401.216C403.024 401.182 402.901 401.148 402.832 401.114L403.173 399.932C403.499 400.015 403.787 400.045 404.037 400.023C404.287 400 404.509 399.888 404.702 399.688C404.899 399.491 405.079 399.17 405.241 398.727L405.491 398.045L402.264 389.273H403.719L406.128 396.227H406.219L408.628 389.273H410.082L406.378 399.273C406.211 399.723 406.005 400.097 405.759 400.392C405.512 400.691 405.226 400.913 404.901 401.057C404.579 401.201 404.215 401.273 403.81 401.273ZM415.085 398.182C414.297 398.182 413.606 397.994 413.011 397.619C412.42 397.244 411.958 396.72 411.625 396.045C411.295 395.371 411.131 394.583 411.131 393.682C411.131 392.773 411.295 391.979 411.625 391.301C411.958 390.623 412.42 390.097 413.011 389.722C413.606 389.347 414.297 389.159 415.085 389.159C415.873 389.159 416.563 389.347 417.153 389.722C417.748 390.097 418.21 390.623 418.54 391.301C418.873 391.979 419.04 392.773 419.04 393.682C419.04 394.583 418.873 395.371 418.54 396.045C418.21 396.72 417.748 397.244 417.153 397.619C416.563 397.994 415.873 398.182 415.085 398.182ZM415.085 396.977C415.684 396.977 416.176 396.824 416.562 396.517C416.949 396.21 417.235 395.807 417.42 395.307C417.606 394.807 417.699 394.265 417.699 393.682C417.699 393.098 417.606 392.555 417.42 392.051C417.235 391.547 416.949 391.14 416.562 390.83C416.176 390.519 415.684 390.364 415.085 390.364C414.487 390.364 413.994 390.519 413.608 390.83C413.222 391.14 412.936 391.547 412.75 392.051C412.564 392.555 412.472 393.098 412.472 393.682C412.472 394.265 412.564 394.807 412.75 395.307C412.936 395.807 413.222 396.21 413.608 396.517C413.994 396.824 414.487 396.977 415.085 396.977ZM426.587 394.432V389.273H427.928V398H426.587V396.523H426.496C426.291 396.966 425.973 397.343 425.541 397.653C425.109 397.96 424.564 398.114 423.905 398.114C423.359 398.114 422.875 397.994 422.45 397.756C422.026 397.513 421.693 397.15 421.45 396.665C421.208 396.176 421.087 395.561 421.087 394.818V389.273H422.428V394.727C422.428 395.364 422.606 395.871 422.962 396.25C423.321 396.629 423.78 396.818 424.337 396.818C424.67 396.818 425.009 396.733 425.354 396.562C425.702 396.392 425.994 396.131 426.229 395.778C426.467 395.426 426.587 394.977 426.587 394.432ZM430.384 398V389.273H431.679V390.591H431.77C431.929 390.159 432.217 389.809 432.634 389.54C433.05 389.271 433.52 389.136 434.043 389.136C434.141 389.136 434.264 389.138 434.412 389.142C434.56 389.146 434.671 389.152 434.747 389.159V390.523C434.702 390.511 434.598 390.494 434.435 390.472C434.276 390.445 434.107 390.432 433.929 390.432C433.505 390.432 433.126 390.521 432.793 390.699C432.463 390.873 432.202 391.116 432.009 391.426C431.819 391.733 431.724 392.083 431.724 392.477V398H430.384ZM440.837 401.273V389.273H442.132V390.659H442.291C442.39 390.508 442.526 390.314 442.7 390.08C442.878 389.841 443.132 389.629 443.462 389.443C443.795 389.254 444.246 389.159 444.814 389.159C445.549 389.159 446.196 389.343 446.757 389.71C447.318 390.078 447.755 390.598 448.07 391.273C448.384 391.947 448.541 392.742 448.541 393.659C448.541 394.583 448.384 395.384 448.07 396.062C447.755 396.737 447.32 397.259 446.763 397.631C446.206 397.998 445.564 398.182 444.837 398.182C444.276 398.182 443.827 398.089 443.49 397.903C443.153 397.714 442.893 397.5 442.712 397.261C442.53 397.019 442.39 396.818 442.291 396.659H442.178V401.273H440.837ZM442.155 393.636C442.155 394.295 442.251 394.877 442.445 395.381C442.638 395.881 442.92 396.273 443.291 396.557C443.662 396.837 444.117 396.977 444.655 396.977C445.215 396.977 445.683 396.83 446.058 396.534C446.437 396.235 446.721 395.833 446.911 395.33C447.104 394.822 447.2 394.258 447.2 393.636C447.2 393.023 447.106 392.47 446.916 391.977C446.731 391.481 446.448 391.089 446.07 390.801C445.695 390.509 445.223 390.364 444.655 390.364C444.109 390.364 443.651 390.502 443.28 390.778C442.909 391.051 442.628 391.434 442.439 391.926C442.25 392.415 442.155 392.985 442.155 393.636ZM450.587 398V389.273H451.928V398H450.587ZM451.268 387.818C451.007 387.818 450.782 387.729 450.592 387.551C450.407 387.373 450.314 387.159 450.314 386.909C450.314 386.659 450.407 386.445 450.592 386.267C450.782 386.089 451.007 386 451.268 386C451.53 386 451.753 386.089 451.939 386.267C452.128 386.445 452.223 386.659 452.223 386.909C452.223 387.159 452.128 387.373 451.939 387.551C451.753 387.729 451.53 387.818 451.268 387.818ZM455.724 392.75V398H454.384V389.273H455.679V390.636H455.793C455.997 390.193 456.308 389.837 456.724 389.568C457.141 389.295 457.679 389.159 458.338 389.159C458.929 389.159 459.446 389.28 459.889 389.523C460.332 389.761 460.677 390.125 460.923 390.614C461.17 391.098 461.293 391.712 461.293 392.455V398H459.952V392.545C459.952 391.86 459.774 391.326 459.418 390.943C459.062 390.557 458.573 390.364 457.952 390.364C457.524 390.364 457.141 390.456 456.804 390.642C456.471 390.828 456.207 391.098 456.014 391.455C455.821 391.811 455.724 392.242 455.724 392.75ZM472.038 389.273V390.409H467.516V389.273H472.038ZM468.834 387.182H470.175V395.5C470.175 395.879 470.23 396.163 470.339 396.352C470.453 396.538 470.597 396.663 470.771 396.727C470.949 396.788 471.137 396.818 471.334 396.818C471.482 396.818 471.603 396.811 471.697 396.795C471.792 396.777 471.868 396.761 471.925 396.75L472.197 397.955C472.107 397.989 471.98 398.023 471.817 398.057C471.654 398.095 471.447 398.114 471.197 398.114C470.819 398.114 470.447 398.032 470.084 397.869C469.724 397.706 469.425 397.458 469.186 397.125C468.951 396.792 468.834 396.371 468.834 395.864V387.182ZM477.507 398.182C476.719 398.182 476.028 397.994 475.433 397.619C474.842 397.244 474.38 396.72 474.047 396.045C473.717 395.371 473.553 394.583 473.553 393.682C473.553 392.773 473.717 391.979 474.047 391.301C474.38 390.623 474.842 390.097 475.433 389.722C476.028 389.347 476.719 389.159 477.507 389.159C478.295 389.159 478.984 389.347 479.575 389.722C480.17 390.097 480.632 390.623 480.962 391.301C481.295 391.979 481.462 392.773 481.462 393.682C481.462 394.583 481.295 395.371 480.962 396.045C480.632 396.72 480.17 397.244 479.575 397.619C478.984 397.994 478.295 398.182 477.507 398.182ZM477.507 396.977C478.106 396.977 478.598 396.824 478.984 396.517C479.371 396.21 479.657 395.807 479.842 395.307C480.028 394.807 480.121 394.265 480.121 393.682C480.121 393.098 480.028 392.555 479.842 392.051C479.657 391.547 479.371 391.14 478.984 390.83C478.598 390.519 478.106 390.364 477.507 390.364C476.909 390.364 476.416 390.519 476.03 390.83C475.643 391.14 475.357 391.547 475.172 392.051C474.986 392.555 474.893 393.098 474.893 393.682C474.893 394.265 474.986 394.807 475.172 395.307C475.357 395.807 475.643 396.21 476.03 396.517C476.416 396.824 476.909 396.977 477.507 396.977ZM490.577 398.205C490.024 398.205 489.522 398.1 489.071 397.892C488.62 397.68 488.262 397.375 487.997 396.977C487.732 396.576 487.599 396.091 487.599 395.523C487.599 395.023 487.698 394.617 487.895 394.307C488.092 393.992 488.355 393.746 488.685 393.568C489.014 393.39 489.378 393.258 489.776 393.17C490.177 393.08 490.58 393.008 490.986 392.955C491.516 392.886 491.946 392.835 492.276 392.801C492.609 392.763 492.851 392.701 493.003 392.614C493.158 392.527 493.236 392.375 493.236 392.159V392.114C493.236 391.553 493.082 391.117 492.776 390.807C492.473 390.496 492.012 390.341 491.395 390.341C490.755 390.341 490.253 390.481 489.889 390.761C489.526 391.042 489.27 391.341 489.122 391.659L487.849 391.205C488.077 390.674 488.38 390.261 488.759 389.966C489.141 389.667 489.558 389.458 490.009 389.341C490.463 389.22 490.91 389.159 491.349 389.159C491.63 389.159 491.952 389.193 492.315 389.261C492.683 389.326 493.037 389.46 493.378 389.665C493.723 389.869 494.009 390.178 494.236 390.591C494.463 391.004 494.577 391.557 494.577 392.25V398H493.236V396.818H493.168C493.077 397.008 492.925 397.21 492.713 397.426C492.501 397.642 492.219 397.826 491.866 397.977C491.514 398.129 491.084 398.205 490.577 398.205ZM490.781 397C491.312 397 491.759 396.896 492.122 396.688C492.49 396.479 492.766 396.21 492.952 395.881C493.141 395.551 493.236 395.205 493.236 394.841V393.614C493.179 393.682 493.054 393.744 492.861 393.801C492.671 393.854 492.452 393.902 492.202 393.943C491.955 393.981 491.715 394.015 491.48 394.045C491.249 394.072 491.062 394.095 490.918 394.114C490.569 394.159 490.243 394.233 489.94 394.335C489.641 394.434 489.399 394.583 489.213 394.784C489.031 394.981 488.94 395.25 488.94 395.591C488.94 396.057 489.113 396.409 489.457 396.648C489.806 396.883 490.247 397 490.781 397ZM500.57 398.182C499.751 398.182 499.047 397.989 498.456 397.602C497.865 397.216 497.411 396.684 497.092 396.006C496.774 395.328 496.615 394.553 496.615 393.682C496.615 392.795 496.778 392.013 497.104 391.335C497.433 390.653 497.892 390.121 498.479 389.739C499.07 389.352 499.759 389.159 500.547 389.159C501.161 389.159 501.714 389.273 502.206 389.5C502.698 389.727 503.102 390.045 503.416 390.455C503.731 390.864 503.926 391.341 504.001 391.886H502.661C502.558 391.489 502.331 391.136 501.979 390.83C501.63 390.519 501.161 390.364 500.57 390.364C500.047 390.364 499.589 390.5 499.195 390.773C498.804 391.042 498.5 391.422 498.28 391.915C498.064 392.403 497.956 392.977 497.956 393.636C497.956 394.311 498.062 394.898 498.274 395.398C498.49 395.898 498.793 396.286 499.183 396.562C499.577 396.839 500.039 396.977 500.57 396.977C500.918 396.977 501.234 396.917 501.518 396.795C501.803 396.674 502.043 396.5 502.24 396.273C502.437 396.045 502.577 395.773 502.661 395.455H504.001C503.926 395.97 503.738 396.434 503.439 396.847C503.143 397.256 502.751 397.581 502.263 397.824C501.778 398.062 501.214 398.182 500.57 398.182ZM509.507 398.182C508.689 398.182 507.984 397.989 507.393 397.602C506.803 397.216 506.348 396.684 506.03 396.006C505.712 395.328 505.553 394.553 505.553 393.682C505.553 392.795 505.715 392.013 506.041 391.335C506.371 390.653 506.829 390.121 507.416 389.739C508.007 389.352 508.696 389.159 509.484 389.159C510.098 389.159 510.651 389.273 511.143 389.5C511.636 389.727 512.039 390.045 512.354 390.455C512.668 390.864 512.863 391.341 512.939 391.886H511.598C511.496 391.489 511.268 391.136 510.916 390.83C510.568 390.519 510.098 390.364 509.507 390.364C508.984 390.364 508.526 390.5 508.132 390.773C507.742 391.042 507.437 391.422 507.217 391.915C507.001 392.403 506.893 392.977 506.893 393.636C506.893 394.311 507 394.898 507.212 395.398C507.428 395.898 507.731 396.286 508.121 396.562C508.515 396.839 508.977 396.977 509.507 396.977C509.856 396.977 510.172 396.917 510.456 396.795C510.74 396.674 510.981 396.5 511.178 396.273C511.375 396.045 511.515 395.773 511.598 395.455H512.939C512.863 395.97 512.676 396.434 512.376 396.847C512.081 397.256 511.689 397.581 511.2 397.824C510.715 398.062 510.151 398.182 509.507 398.182ZM518.558 398.182C517.717 398.182 516.992 397.996 516.382 397.625C515.776 397.25 515.308 396.727 514.979 396.057C514.653 395.383 514.49 394.598 514.49 393.705C514.49 392.811 514.653 392.023 514.979 391.341C515.308 390.655 515.767 390.121 516.354 389.739C516.945 389.352 517.634 389.159 518.422 389.159C518.876 389.159 519.325 389.235 519.768 389.386C520.212 389.538 520.615 389.784 520.979 390.125C521.342 390.462 521.632 390.909 521.848 391.466C522.064 392.023 522.172 392.708 522.172 393.523V394.091H515.445V392.932H520.808C520.808 392.439 520.71 392 520.513 391.614C520.32 391.227 520.043 390.922 519.683 390.699C519.327 390.475 518.907 390.364 518.422 390.364C517.888 390.364 517.426 390.496 517.036 390.761C516.649 391.023 516.352 391.364 516.143 391.784C515.935 392.205 515.831 392.655 515.831 393.136V393.909C515.831 394.568 515.945 395.127 516.172 395.585C516.403 396.04 516.723 396.386 517.132 396.625C517.541 396.86 518.017 396.977 518.558 396.977C518.911 396.977 519.229 396.928 519.513 396.83C519.801 396.727 520.049 396.576 520.257 396.375C520.465 396.17 520.626 395.917 520.74 395.614L522.036 395.977C521.899 396.417 521.67 396.803 521.348 397.136C521.026 397.466 520.628 397.723 520.155 397.909C519.681 398.091 519.149 398.182 518.558 398.182ZM530.393 391.227L529.189 391.568C529.113 391.367 529.001 391.172 528.854 390.983C528.71 390.79 528.513 390.631 528.263 390.506C528.013 390.381 527.693 390.318 527.303 390.318C526.768 390.318 526.323 390.441 525.967 390.688C525.615 390.93 525.439 391.239 525.439 391.614C525.439 391.947 525.56 392.21 525.803 392.403C526.045 392.597 526.424 392.758 526.939 392.886L528.234 393.205C529.015 393.394 529.596 393.684 529.979 394.074C530.361 394.46 530.553 394.958 530.553 395.568C530.553 396.068 530.409 396.515 530.121 396.909C529.837 397.303 529.439 397.614 528.928 397.841C528.416 398.068 527.821 398.182 527.143 398.182C526.253 398.182 525.517 397.989 524.933 397.602C524.35 397.216 523.981 396.652 523.825 395.909L525.098 395.591C525.219 396.061 525.448 396.413 525.786 396.648C526.126 396.883 526.571 397 527.121 397C527.746 397 528.242 396.867 528.609 396.602C528.981 396.333 529.166 396.011 529.166 395.636C529.166 395.333 529.06 395.08 528.848 394.875C528.636 394.667 528.31 394.511 527.871 394.409L526.416 394.068C525.617 393.879 525.03 393.585 524.655 393.188C524.284 392.786 524.098 392.284 524.098 391.682C524.098 391.189 524.236 390.754 524.513 390.375C524.793 389.996 525.174 389.699 525.655 389.483C526.14 389.267 526.689 389.159 527.303 389.159C528.166 389.159 528.844 389.348 529.337 389.727C529.833 390.106 530.185 390.606 530.393 391.227ZM538.753 391.227L537.548 391.568C537.473 391.367 537.361 391.172 537.213 390.983C537.069 390.79 536.872 390.631 536.622 390.506C536.372 390.381 536.052 390.318 535.662 390.318C535.128 390.318 534.683 390.441 534.327 390.688C533.974 390.93 533.798 391.239 533.798 391.614C533.798 391.947 533.92 392.21 534.162 392.403C534.404 392.597 534.783 392.758 535.298 392.886L536.594 393.205C537.374 393.394 537.955 393.684 538.338 394.074C538.721 394.46 538.912 394.958 538.912 395.568C538.912 396.068 538.768 396.515 538.48 396.909C538.196 397.303 537.798 397.614 537.287 397.841C536.776 398.068 536.181 398.182 535.503 398.182C534.613 398.182 533.876 397.989 533.293 397.602C532.709 397.216 532.34 396.652 532.185 395.909L533.457 395.591C533.579 396.061 533.808 396.413 534.145 396.648C534.486 396.883 534.931 397 535.48 397C536.105 397 536.601 396.867 536.969 396.602C537.34 396.333 537.526 396.011 537.526 395.636C537.526 395.333 537.42 395.08 537.207 394.875C536.995 394.667 536.67 394.511 536.23 394.409L534.776 394.068C533.976 393.879 533.389 393.585 533.014 393.188C532.643 392.786 532.457 392.284 532.457 391.682C532.457 391.189 532.596 390.754 532.872 390.375C533.152 389.996 533.533 389.699 534.014 389.483C534.499 389.267 535.048 389.159 535.662 389.159C536.526 389.159 537.204 389.348 537.696 389.727C538.192 390.106 538.545 390.606 538.753 391.227ZM546.294 401.273C546.067 401.273 545.864 401.254 545.686 401.216C545.508 401.182 545.385 401.148 545.317 401.114L545.658 399.932C545.983 400.015 546.271 400.045 546.521 400.023C546.771 400 546.993 399.888 547.186 399.688C547.383 399.491 547.563 399.17 547.726 398.727L547.976 398.045L544.749 389.273H546.203L548.612 396.227H548.703L551.112 389.273H552.567L548.862 399.273C548.696 399.723 548.489 400.097 548.243 400.392C547.997 400.691 547.711 400.913 547.385 401.057C547.063 401.201 546.699 401.273 546.294 401.273ZM557.57 398.182C556.782 398.182 556.09 397.994 555.496 397.619C554.905 397.244 554.443 396.72 554.109 396.045C553.78 395.371 553.615 394.583 553.615 393.682C553.615 392.773 553.78 391.979 554.109 391.301C554.443 390.623 554.905 390.097 555.496 389.722C556.09 389.347 556.782 389.159 557.57 389.159C558.357 389.159 559.047 389.347 559.638 389.722C560.232 390.097 560.695 390.623 561.024 391.301C561.357 391.979 561.524 392.773 561.524 393.682C561.524 394.583 561.357 395.371 561.024 396.045C560.695 396.72 560.232 397.244 559.638 397.619C559.047 397.994 558.357 398.182 557.57 398.182ZM557.57 396.977C558.168 396.977 558.661 396.824 559.047 396.517C559.433 396.21 559.719 395.807 559.905 395.307C560.09 394.807 560.183 394.265 560.183 393.682C560.183 393.098 560.09 392.555 559.905 392.051C559.719 391.547 559.433 391.14 559.047 390.83C558.661 390.519 558.168 390.364 557.57 390.364C556.971 390.364 556.479 390.519 556.092 390.83C555.706 391.14 555.42 391.547 555.234 392.051C555.049 392.555 554.956 393.098 554.956 393.682C554.956 394.265 555.049 394.807 555.234 395.307C555.42 395.807 555.706 396.21 556.092 396.517C556.479 396.824 556.971 396.977 557.57 396.977ZM569.071 394.432V389.273H570.412V398H569.071V396.523H568.98C568.776 396.966 568.457 397.343 568.026 397.653C567.594 397.96 567.048 398.114 566.389 398.114C565.844 398.114 565.359 397.994 564.935 397.756C564.51 397.513 564.177 397.15 563.935 396.665C563.692 396.176 563.571 395.561 563.571 394.818V389.273H564.912V394.727C564.912 395.364 565.09 395.871 565.446 396.25C565.806 396.629 566.264 396.818 566.821 396.818C567.154 396.818 567.493 396.733 567.838 396.562C568.187 396.392 568.478 396.131 568.713 395.778C568.952 395.426 569.071 394.977 569.071 394.432ZM572.868 398V389.273H574.163V390.591H574.254C574.413 390.159 574.701 389.809 575.118 389.54C575.535 389.271 576.004 389.136 576.527 389.136C576.625 389.136 576.749 389.138 576.896 389.142C577.044 389.146 577.156 389.152 577.232 389.159V390.523C577.186 390.511 577.082 390.494 576.919 390.472C576.76 390.445 576.591 390.432 576.413 390.432C575.989 390.432 575.61 390.521 575.277 390.699C574.947 390.873 574.686 391.116 574.493 391.426C574.304 391.733 574.209 392.083 574.209 392.477V398H572.868ZM586.844 401.455C586.196 401.455 585.639 401.371 585.173 401.205C584.707 401.042 584.319 400.826 584.009 400.557C583.702 400.292 583.457 400.008 583.276 399.705L584.344 398.955C584.465 399.114 584.618 399.295 584.804 399.5C584.99 399.708 585.243 399.888 585.565 400.04C585.891 400.195 586.317 400.273 586.844 400.273C587.548 400.273 588.13 400.102 588.588 399.761C589.046 399.42 589.276 398.886 589.276 398.159V396.386H589.162C589.063 396.545 588.923 396.742 588.741 396.977C588.563 397.208 588.306 397.415 587.969 397.597C587.635 397.775 587.185 397.864 586.616 397.864C585.912 397.864 585.279 397.697 584.719 397.364C584.162 397.03 583.721 396.545 583.395 395.909C583.073 395.273 582.912 394.5 582.912 393.591C582.912 392.697 583.069 391.919 583.384 391.256C583.698 390.589 584.135 390.074 584.696 389.71C585.257 389.343 585.904 389.159 586.639 389.159C587.207 389.159 587.658 389.254 587.991 389.443C588.329 389.629 588.586 389.841 588.764 390.08C588.946 390.314 589.086 390.508 589.185 390.659H589.321V389.273H590.616V398.25C590.616 399 590.446 399.61 590.105 400.08C589.768 400.553 589.313 400.9 588.741 401.119C588.173 401.343 587.541 401.455 586.844 401.455ZM586.798 396.659C587.336 396.659 587.791 396.536 588.162 396.29C588.533 396.044 588.815 395.689 589.009 395.227C589.202 394.765 589.298 394.212 589.298 393.568C589.298 392.939 589.204 392.384 589.014 391.903C588.825 391.422 588.545 391.045 588.173 390.773C587.802 390.5 587.344 390.364 586.798 390.364C586.23 390.364 585.757 390.508 585.378 390.795C585.003 391.083 584.721 391.47 584.531 391.955C584.346 392.439 584.253 392.977 584.253 393.568C584.253 394.174 584.348 394.71 584.537 395.176C584.73 395.638 585.014 396.002 585.389 396.267C585.768 396.528 586.238 396.659 586.798 396.659ZM596.616 398.182C595.829 398.182 595.137 397.994 594.543 397.619C593.952 397.244 593.49 396.72 593.156 396.045C592.827 395.371 592.662 394.583 592.662 393.682C592.662 392.773 592.827 391.979 593.156 391.301C593.49 390.623 593.952 390.097 594.543 389.722C595.137 389.347 595.829 389.159 596.616 389.159C597.404 389.159 598.094 389.347 598.685 389.722C599.279 390.097 599.741 390.623 600.071 391.301C600.404 391.979 600.571 392.773 600.571 393.682C600.571 394.583 600.404 395.371 600.071 396.045C599.741 396.72 599.279 397.244 598.685 397.619C598.094 397.994 597.404 398.182 596.616 398.182ZM596.616 396.977C597.215 396.977 597.707 396.824 598.094 396.517C598.48 396.21 598.766 395.807 598.952 395.307C599.137 394.807 599.23 394.265 599.23 393.682C599.23 393.098 599.137 392.555 598.952 392.051C598.766 391.547 598.48 391.14 598.094 390.83C597.707 390.519 597.215 390.364 596.616 390.364C596.018 390.364 595.526 390.519 595.139 390.83C594.753 391.14 594.467 391.547 594.281 392.051C594.096 392.555 594.003 393.098 594.003 393.682C594.003 394.265 594.096 394.807 594.281 395.307C594.467 395.807 594.753 396.21 595.139 396.517C595.526 396.824 596.018 396.977 596.616 396.977ZM606.163 398.182C605.375 398.182 604.684 397.994 604.089 397.619C603.499 397.244 603.036 396.72 602.703 396.045C602.374 395.371 602.209 394.583 602.209 393.682C602.209 392.773 602.374 391.979 602.703 391.301C603.036 390.623 603.499 390.097 604.089 389.722C604.684 389.347 605.375 389.159 606.163 389.159C606.951 389.159 607.641 389.347 608.232 389.722C608.826 390.097 609.288 390.623 609.618 391.301C609.951 391.979 610.118 392.773 610.118 393.682C610.118 394.583 609.951 395.371 609.618 396.045C609.288 396.72 608.826 397.244 608.232 397.619C607.641 397.994 606.951 398.182 606.163 398.182ZM606.163 396.977C606.762 396.977 607.254 396.824 607.641 396.517C608.027 396.21 608.313 395.807 608.499 395.307C608.684 394.807 608.777 394.265 608.777 393.682C608.777 393.098 608.684 392.555 608.499 392.051C608.313 391.547 608.027 391.14 607.641 390.83C607.254 390.519 606.762 390.364 606.163 390.364C605.565 390.364 605.072 390.519 604.686 390.83C604.3 391.14 604.014 391.547 603.828 392.051C603.643 392.555 603.55 393.098 603.55 393.682C603.55 394.265 603.643 394.807 603.828 395.307C604.014 395.807 604.3 396.21 604.686 396.517C605.072 396.824 605.565 396.977 606.163 396.977ZM615.46 398.182C614.733 398.182 614.091 397.998 613.534 397.631C612.977 397.259 612.542 396.737 612.227 396.062C611.913 395.384 611.756 394.583 611.756 393.659C611.756 392.742 611.913 391.947 612.227 391.273C612.542 390.598 612.979 390.078 613.54 389.71C614.1 389.343 614.748 389.159 615.483 389.159C616.051 389.159 616.5 389.254 616.83 389.443C617.163 389.629 617.417 389.841 617.591 390.08C617.769 390.314 617.907 390.508 618.006 390.659H618.119V386.364H619.46V398H618.165V396.659H618.006C617.907 396.818 617.767 397.019 617.585 397.261C617.403 397.5 617.144 397.714 616.807 397.903C616.47 398.089 616.021 398.182 615.46 398.182ZM615.642 396.977C616.18 396.977 616.634 396.837 617.006 396.557C617.377 396.273 617.659 395.881 617.852 395.381C618.045 394.877 618.142 394.295 618.142 393.636C618.142 392.985 618.047 392.415 617.858 391.926C617.669 391.434 617.388 391.051 617.017 390.778C616.646 390.502 616.188 390.364 615.642 390.364C615.074 390.364 614.6 390.509 614.222 390.801C613.847 391.089 613.564 391.481 613.375 391.977C613.189 392.47 613.097 393.023 613.097 393.636C613.097 394.258 613.191 394.822 613.381 395.33C613.574 395.833 613.858 396.235 614.233 396.534C614.612 396.83 615.081 396.977 615.642 396.977ZM629.898 398.182C629.17 398.182 628.528 397.998 627.972 397.631C627.415 397.259 626.979 396.737 626.665 396.062C626.35 395.384 626.193 394.583 626.193 393.659C626.193 392.742 626.35 391.947 626.665 391.273C626.979 390.598 627.417 390.078 627.977 389.71C628.538 389.343 629.186 389.159 629.92 389.159C630.489 389.159 630.938 389.254 631.267 389.443C631.6 389.629 631.854 389.841 632.028 390.08C632.206 390.314 632.345 390.508 632.443 390.659H632.557V386.364H633.898V398H632.602V396.659H632.443C632.345 396.818 632.205 397.019 632.023 397.261C631.841 397.5 631.581 397.714 631.244 397.903C630.907 398.089 630.458 398.182 629.898 398.182ZM630.08 396.977C630.617 396.977 631.072 396.837 631.443 396.557C631.814 396.273 632.097 395.881 632.29 395.381C632.483 394.877 632.58 394.295 632.58 393.636C632.58 392.985 632.485 392.415 632.295 391.926C632.106 391.434 631.826 391.051 631.455 390.778C631.083 390.502 630.625 390.364 630.08 390.364C629.511 390.364 629.038 390.509 628.659 390.801C628.284 391.089 628.002 391.481 627.812 391.977C627.627 392.47 627.534 393.023 627.534 393.636C627.534 394.258 627.629 394.822 627.818 395.33C628.011 395.833 628.295 396.235 628.67 396.534C629.049 396.83 629.519 396.977 630.08 396.977ZM639.108 398.205C638.555 398.205 638.053 398.1 637.602 397.892C637.152 397.68 636.794 397.375 636.528 396.977C636.263 396.576 636.131 396.091 636.131 395.523C636.131 395.023 636.229 394.617 636.426 394.307C636.623 393.992 636.886 393.746 637.216 393.568C637.545 393.39 637.909 393.258 638.307 393.17C638.708 393.08 639.112 393.008 639.517 392.955C640.047 392.886 640.477 392.835 640.807 392.801C641.14 392.763 641.383 392.701 641.534 392.614C641.689 392.527 641.767 392.375 641.767 392.159V392.114C641.767 391.553 641.614 391.117 641.307 390.807C641.004 390.496 640.544 390.341 639.926 390.341C639.286 390.341 638.784 390.481 638.42 390.761C638.057 391.042 637.801 391.341 637.653 391.659L636.381 391.205C636.608 390.674 636.911 390.261 637.29 389.966C637.672 389.667 638.089 389.458 638.54 389.341C638.994 389.22 639.441 389.159 639.881 389.159C640.161 389.159 640.483 389.193 640.847 389.261C641.214 389.326 641.568 389.46 641.909 389.665C642.254 389.869 642.54 390.178 642.767 390.591C642.994 391.004 643.108 391.557 643.108 392.25V398H641.767V396.818H641.699C641.608 397.008 641.456 397.21 641.244 397.426C641.032 397.642 640.75 397.826 640.398 397.977C640.045 398.129 639.616 398.205 639.108 398.205ZM639.312 397C639.843 397 640.29 396.896 640.653 396.688C641.021 396.479 641.297 396.21 641.483 395.881C641.672 395.551 641.767 395.205 641.767 394.841V393.614C641.71 393.682 641.585 393.744 641.392 393.801C641.203 393.854 640.983 393.902 640.733 393.943C640.487 393.981 640.246 394.015 640.011 394.045C639.78 394.072 639.593 394.095 639.449 394.114C639.1 394.159 638.775 394.233 638.472 394.335C638.172 394.434 637.93 394.583 637.744 394.784C637.563 394.981 637.472 395.25 637.472 395.591C637.472 396.057 637.644 396.409 637.989 396.648C638.337 396.883 638.778 397 639.312 397ZM646.107 401.273C645.879 401.273 645.677 401.254 645.499 401.216C645.321 401.182 645.197 401.148 645.129 401.114L645.47 399.932C645.796 400.015 646.084 400.045 646.334 400.023C646.584 400 646.805 399.888 646.999 399.688C647.196 399.491 647.375 399.17 647.538 398.727L647.788 398.045L644.561 389.273H646.016L648.425 396.227H648.516L650.925 389.273H652.379L648.675 399.273C648.508 399.723 648.302 400.097 648.055 400.392C647.809 400.691 647.523 400.913 647.197 401.057C646.875 401.201 646.512 401.273 646.107 401.273ZM660.331 391.227L659.126 391.568C659.051 391.367 658.939 391.172 658.791 390.983C658.647 390.79 658.45 390.631 658.2 390.506C657.95 390.381 657.63 390.318 657.24 390.318C656.706 390.318 656.261 390.441 655.905 390.688C655.553 390.93 655.376 391.239 655.376 391.614C655.376 391.947 655.498 392.21 655.74 392.403C655.982 392.597 656.361 392.758 656.876 392.886L658.172 393.205C658.952 393.394 659.534 393.684 659.916 394.074C660.299 394.46 660.49 394.958 660.49 395.568C660.49 396.068 660.346 396.515 660.058 396.909C659.774 397.303 659.376 397.614 658.865 397.841C658.354 398.068 657.759 398.182 657.081 398.182C656.191 398.182 655.454 397.989 654.871 397.602C654.287 397.216 653.918 396.652 653.763 395.909L655.036 395.591C655.157 396.061 655.386 396.413 655.723 396.648C656.064 396.883 656.509 397 657.058 397C657.683 397 658.179 396.867 658.547 396.602C658.918 396.333 659.104 396.011 659.104 395.636C659.104 395.333 658.998 395.08 658.786 394.875C658.573 394.667 658.248 394.511 657.808 394.409L656.354 394.068C655.554 393.879 654.967 393.585 654.592 393.188C654.221 392.786 654.036 392.284 654.036 391.682C654.036 391.189 654.174 390.754 654.45 390.375C654.731 389.996 655.111 389.699 655.592 389.483C656.077 389.267 656.626 389.159 657.24 389.159C658.104 389.159 658.782 389.348 659.274 389.727C659.77 390.106 660.123 390.606 660.331 391.227ZM663.486 398.091C663.205 398.091 662.965 397.991 662.764 397.79C662.563 397.589 662.463 397.348 662.463 397.068C662.463 396.788 662.563 396.547 662.764 396.347C662.965 396.146 663.205 396.045 663.486 396.045C663.766 396.045 664.007 396.146 664.207 396.347C664.408 396.547 664.509 396.788 664.509 397.068C664.509 397.254 664.461 397.424 664.366 397.58C664.276 397.735 664.152 397.86 663.997 397.955C663.846 398.045 663.675 398.091 663.486 398.091Z" fill="black"/>
</svg>
